#N canvas -8 -8 1366 725 10;
#X msg 91 134 all 0;
#X obj 31 91 inlet;
#X obj 91 114 r reset;
#X obj 31 230 outlet~;
#X obj 31 159 clone inc_f_unit 128 \$1 \$2 \$3 \$4 \$5 \$6 \$7 \$8
\$9 \$10 \$11 \$12 \$13 \$14 \$15 \$16 \$17 \$18 \$19 \$20;
#X obj 31 209 *~ 0.8;
#X connect 0 0 4 0;
#X connect 1 0 4 0;
#X connect 2 0 0 0;
#X connect 4 0 5 0;
#X connect 5 0 3 0;
