#N canvas 317 112 450 531 10;
#X msg 91 134 all 0;
#X obj 31 91 inlet;
#X obj 91 114 r reset;
#X obj 31 230 outlet~;
#X obj 31 209 *~ 0.8;
#X obj 31 159 clone inc_clarinet_unit 128;
#X connect 0 0 5 0;
#X connect 1 0 5 0;
#X connect 2 0 0 0;
#X connect 4 0 3 0;
#X connect 5 0 4 0;
