#N canvas -8 -8 1366 725 10;
#X obj 33 31 loadbang;
#X obj 33 51 \$1;
#X obj 33 71 mtof;
#X obj 33 91 s \$0_note;
#X obj 121 37 inlet;
#X obj 59 511 bng 15 250 50 0 empty empty empty 17 7 0 10 -262144 -1
-1;
#X obj 166 67 route 0;
#X obj 244 89 t b;
#X obj 121 67 s \$0_v;
#X obj 250 111 s \$0_notebang;
#X obj 59 421 r \$0_notebang;
#X text 190 40 Detect Notein;
#X obj 134 136 t b;
#X msg 233 268 1;
#X msg 133 301 0;
#X obj 193 330 switch~;
#X obj 133 215 del 20;
#X obj 165 110 s \$0_noteoff;
#X obj 59 492 spigot;
#X obj 144 422 loadbang;
#X msg 144 442 1;
#X obj 199 422 r \$0_noteoff;
#X obj 59 534 s \$0_triggered;
#X obj 278 422 r \$0_triggered;
#X obj 278 442 del 0.01;
#X msg 278 462 0;
#X obj 151 534 s \$0_envbang;
#X obj 166 177 + 5;
#X obj 133 282 spigot;
#X obj 166 233 r \$0_v;
#X obj 378 26 cnv 20 260 300 empty empty FM-Envelope 10 12 0 14 -191407
-262144 0;
#X obj 384 228 vline~;
#X obj 384 157 f;
#X obj 384 177 pack f f f;
#X msg 384 197 0 \, 1 \$1 \, \$3 \$2 \$1;
#X obj 558 52 r \$0_noteoff;
#X obj 558 146 f;
#X msg 558 199 0 \$1;
#X obj 384 52 r \$0_envbang;
#X obj 938 28 cnv 20 370 247 empty empty Note-Envelope 10 12 0 14 -162280
-262144 0;
#X obj 954 191 vline~;
#X obj 954 75 bng 15 250 50 0 empty empty empty 17 7 0 10 -262144 -1
-1;
#X obj 954 120 f;
#X obj 954 140 pack f f f f;
#X obj 954 53 r \$0_envbang;
#X msg 954 160 0 \, \$4 \$1 \, \$3 \$2 \$1;
#X obj 1190 76 r \$0_noteoff;
#X obj 1190 131 f;
#X msg 1190 171 0 \$1;
#X obj 383 352 cnv 15 300 300 empty empty Modulator 20 12 0 14 -4032
-66577 0;
#X obj 547 515 r \$0_note;
#X obj 517 556 *~;
#X obj 517 576 osc~;
#X text 547 576 This is "amodosc";
#X obj 480 609 *~;
#X obj 479 575 *~;
#X obj 546 415 -;
#X obj 407 468 *~;
#X obj 424 543 +~;
#X text 78 404 Prevent retriggering before keyup;
#X obj 703 352 cnv 15 180 300 empty empty Carrier 20 12 0 14 -257985
-66577 0;
#X obj 757 436 r \$0_note;
#X obj 742 505 +~;
#X msg 757 456 \$1 10;
#X obj 757 476 line~;
#X obj 727 548 *~;
#X obj 742 525 osc~;
#X obj 384 268 s~ \$0_menv;
#X obj 407 388 r~ \$0_menv;
#X obj 954 231 s~ \$0_eenv;
#X obj 727 395 r~ \$0_eenv;
#X obj 742 415 r~ \$0_amodosc;
#X obj 250 248 loadbang;
#X obj 480 629 s~ \$0_amodosc;
#X obj 166 253 == 0;
#X obj 517 496 expr 4*($f1/127)+1;
#X obj 384 248 pow~ 1.5;
#X obj 954 211 pow~ 1.5;
#X obj 166 90 t b;
#X text 192 91 On;
#X text 269 90 Off;
#X obj 1225 150 s \$0_sta;
#X obj 579 179 s \$0_stb;
#X obj 166 137 r \$0_sta;
#X obj 223 137 r \$0_stb;
#X obj 166 197 + 10;
#X obj 166 157 1;
#X obj 726 582 s~ \$0_tofilter;
#X obj 641 27 cnv 20 260 300 empty empty Filter-Envelope 10 12 0 14
-191407 -262144 0;
#X obj 647 214 vline~;
#X obj 647 148 f;
#X obj 647 168 pack f f f;
#X msg 647 188 0 \, 1 \$1 \, \$3 \$2 \$1;
#X obj 821 53 r \$0_noteoff;
#X obj 821 152 f;
#X msg 821 195 0 \$1;
#X obj 647 53 r \$0_envbang;
#X obj 647 234 pow~ 1.5;
#X obj 842 175 s \$0_stb;
#X obj 647 254 s~ \$0_fenv;
#X obj 963 580 outlet~;
#X obj 903 356 r~ \$0_tofilter;
#X obj 419 120 \$9;
#X obj 462 120 \$10;
#X obj 509 120 \$11;
#X obj 573 121 \$12;
#X obj 484 88 loadbang;
#X obj 745 68 loadbang;
#X obj 682 116 \$13;
#X obj 725 116 \$14;
#X obj 772 116 \$15;
#X obj 836 117 \$16;
#X obj 1124 38 loadbang;
#X obj 1007 76 \$5;
#X obj 1050 76 \$6;
#X obj 1097 76 \$7;
#X obj 1205 96 \$8;
#X obj 573 395 \$3;
#X obj 546 395 \$4;
#X obj 546 364 loadbang;
#X obj 475 476 \$3;
#X obj 546 435 s \$0_index_diff;
#X obj 423 407 r \$0_index_diff;
#X obj 475 496 sig~;
#X obj 517 518 sig~;
#X obj 547 535 sig~;
#X obj 423 447 sig~;
#X obj 517 476 \$2;
#X obj 1144 75 1;
#X connect 0 0 1 0;
#X connect 1 0 2 0;
#X connect 2 0 3 0;
#X connect 4 0 8 0;
#X connect 4 0 6 0;
#X connect 5 0 22 0;
#X connect 5 0 26 0;
#X connect 6 0 12 0;
#X connect 6 0 78 0;
#X connect 6 1 7 0;
#X connect 7 0 9 0;
#X connect 7 0 13 0;
#X connect 10 0 18 0;
#X connect 12 0 16 0;
#X connect 13 0 15 0;
#X connect 14 0 15 0;
#X connect 16 0 28 0;
#X connect 18 0 5 0;
#X connect 19 0 20 0;
#X connect 20 0 18 1;
#X connect 21 0 20 0;
#X connect 23 0 24 0;
#X connect 24 0 25 0;
#X connect 25 0 18 1;
#X connect 27 0 85 0;
#X connect 28 0 14 0;
#X connect 29 0 74 0;
#X connect 31 0 76 0;
#X connect 32 0 33 0;
#X connect 33 0 34 0;
#X connect 34 0 31 0;
#X connect 35 0 36 0;
#X connect 36 0 37 0;
#X connect 36 0 82 0;
#X connect 37 0 31 0;
#X connect 38 0 32 0;
#X connect 40 0 77 0;
#X connect 41 0 42 0;
#X connect 42 0 43 0;
#X connect 43 0 45 0;
#X connect 44 0 41 0;
#X connect 45 0 40 0;
#X connect 46 0 47 0;
#X connect 47 0 48 0;
#X connect 47 0 81 0;
#X connect 48 0 40 0;
#X connect 50 0 125 0;
#X connect 51 0 52 0;
#X connect 51 0 55 1;
#X connect 52 0 54 1;
#X connect 54 0 73 0;
#X connect 55 0 54 0;
#X connect 56 0 121 0;
#X connect 57 0 58 0;
#X connect 58 0 55 0;
#X connect 61 0 63 0;
#X connect 62 0 66 0;
#X connect 63 0 64 0;
#X connect 64 0 62 1;
#X connect 65 0 87 0;
#X connect 66 0 65 1;
#X connect 68 0 57 0;
#X connect 70 0 65 0;
#X connect 71 0 62 0;
#X connect 72 0 13 0;
#X connect 74 0 28 1;
#X connect 75 0 124 0;
#X connect 76 0 67 0;
#X connect 77 0 69 0;
#X connect 78 0 17 0;
#X connect 83 0 86 0;
#X connect 84 0 27 1;
#X connect 85 0 16 1;
#X connect 86 0 27 0;
#X connect 89 0 97 0;
#X connect 90 0 91 0;
#X connect 91 0 92 0;
#X connect 92 0 89 0;
#X connect 93 0 94 0;
#X connect 94 0 95 0;
#X connect 94 0 98 0;
#X connect 95 0 89 0;
#X connect 96 0 90 0;
#X connect 97 0 99 0;
#X connect 101 0 100 0;
#X connect 102 0 32 1;
#X connect 103 0 33 1;
#X connect 104 0 33 2;
#X connect 105 0 36 1;
#X connect 106 0 102 0;
#X connect 106 0 105 0;
#X connect 106 0 104 0;
#X connect 106 0 103 0;
#X connect 107 0 108 0;
#X connect 107 0 111 0;
#X connect 107 0 110 0;
#X connect 107 0 109 0;
#X connect 108 0 90 1;
#X connect 109 0 91 1;
#X connect 110 0 91 2;
#X connect 111 0 94 1;
#X connect 112 0 113 0;
#X connect 112 0 116 0;
#X connect 112 0 115 0;
#X connect 112 0 114 0;
#X connect 112 0 128 0;
#X connect 113 0 42 1;
#X connect 114 0 43 1;
#X connect 115 0 43 2;
#X connect 116 0 47 1;
#X connect 117 0 56 1;
#X connect 118 0 56 0;
#X connect 119 0 117 0;
#X connect 119 0 118 0;
#X connect 119 0 120 0;
#X connect 119 0 127 0;
#X connect 120 0 123 0;
#X connect 122 0 126 0;
#X connect 123 0 58 1;
#X connect 124 0 51 0;
#X connect 125 0 51 1;
#X connect 126 0 57 1;
#X connect 127 0 75 0;
#X connect 128 0 43 3;
