#N canvas -8 -8 1366 725 10;
#X obj 101 101 cnv 15 100 66 empty empty empty 20 12 0 14 -261682 -66577
0;
#X obj 397 53 inlet;
#N canvas 0 50 450 300 supertoggle 0;
#X obj 64 33 inlet;
#X obj 100 100 tgl 10 0 \$0_t \$0_o empty 17 7 0 10 -260818 -260818
-260818 0 1;
#X msg 169 78 color 22 22 0;
#X msg 62 77 color 14 14 14;
#X obj 102 102 cnv 6 6 6 empty empty empty 20 12 0 14 -1 -66577 0;
#X obj 64 53 sel 1 0;
#X connect 0 0 5 0;
#X connect 2 0 1 0;
#X connect 3 0 1 0;
#X connect 5 0 3 0;
#X connect 5 1 2 0;
#X coords 0 -1 1 1 10 10 2 100 100;
#X restore 102 102 pd supertoggle;
#X obj 475 140 == 0;
#N canvas 0 50 450 300 supertoggle 0;
#X obj 64 33 inlet;
#X obj 100 100 tgl 10 0 \$0_t \$0_o empty 17 7 0 10 -1 -1 -262144 0
1;
#X msg 169 78 color 22 22 0;
#X msg 62 77 color 14 14 14;
#X obj 102 102 cnv 6 6 6 empty empty empty 20 12 0 14 -1 -66577 0;
#X obj 64 53 sel 1 0;
#X connect 0 0 5 0;
#X connect 2 0 1 0;
#X connect 3 0 1 0;
#X connect 5 0 3 0;
#X connect 5 1 2 0;
#X coords 0 -1 1 1 10 10 2 100 100;
#X restore 113 102 pd supertoggle;
#N canvas 0 50 450 300 supertoggle 0;
#X obj 64 33 inlet;
#X obj 100 100 tgl 10 0 \$0_t \$0_o empty 17 7 0 10 -1 -1 -262144 0
1;
#X msg 169 78 color 22 22 0;
#X msg 62 77 color 14 14 14;
#X obj 102 102 cnv 6 6 6 empty empty empty 20 12 0 14 -1 -66577 0;
#X obj 64 53 sel 1 0;
#X connect 0 0 5 0;
#X connect 2 0 1 0;
#X connect 3 0 1 0;
#X connect 5 0 3 0;
#X connect 5 1 2 0;
#X coords 0 -1 1 1 10 10 2 100 100;
#X restore 124 102 pd supertoggle;
#N canvas 0 50 450 300 supertoggle 0;
#X obj 64 33 inlet;
#X obj 100 100 tgl 10 0 \$0_t \$0_o empty 17 7 0 10 -1 -1 -262144 0
1;
#X msg 169 78 color 22 22 0;
#X msg 62 77 color 14 14 14;
#X obj 102 102 cnv 6 6 6 empty empty empty 20 12 0 14 -1 -66577 0;
#X obj 64 53 sel 1 0;
#X connect 0 0 5 0;
#X connect 2 0 1 0;
#X connect 3 0 1 0;
#X connect 5 0 3 0;
#X connect 5 1 2 0;
#X coords 0 -1 1 1 10 10 2 100 100;
#X restore 135 102 pd supertoggle;
#N canvas 0 50 450 300 supertoggle 0;
#X obj 64 33 inlet;
#X obj 100 100 tgl 10 0 \$0_t \$0_o empty 17 7 0 10 -1 -1 -262144 0
1;
#X msg 169 78 color 22 22 0;
#X msg 62 77 color 14 14 14;
#X obj 102 102 cnv 6 6 6 empty empty empty 20 12 0 14 -1 -66577 0;
#X obj 64 53 sel 1 0;
#X connect 0 0 5 0;
#X connect 2 0 1 0;
#X connect 3 0 1 0;
#X connect 5 0 3 0;
#X connect 5 1 2 0;
#X coords 0 -1 1 1 10 10 2 100 100;
#X restore 146 102 pd supertoggle;
#N canvas 0 50 450 300 supertoggle 0;
#X obj 64 33 inlet;
#X obj 100 100 tgl 10 0 \$0_t \$0_o empty 17 7 0 10 -1 -1 -262144 0
1;
#X msg 169 78 color 22 22 0;
#X msg 62 77 color 14 14 14;
#X obj 102 102 cnv 6 6 6 empty empty empty 20 12 0 14 -1 -66577 0;
#X obj 64 53 sel 1 0;
#X connect 0 0 5 0;
#X connect 2 0 1 0;
#X connect 3 0 1 0;
#X connect 5 0 3 0;
#X connect 5 1 2 0;
#X coords 0 -1 1 1 10 10 2 100 100;
#X restore 157 102 pd supertoggle;
#N canvas 0 50 450 300 supertoggle 0;
#X obj 64 33 inlet;
#X obj 100 100 tgl 10 0 \$0_t \$0_o empty 17 7 0 10 -1 -1 -262144 0
1;
#X msg 169 78 color 22 22 0;
#X msg 62 77 color 14 14 14;
#X obj 102 102 cnv 6 6 6 empty empty empty 20 12 0 14 -1 -66577 0;
#X obj 64 53 sel 1 0;
#X connect 0 0 5 0;
#X connect 2 0 1 0;
#X connect 3 0 1 0;
#X connect 5 0 3 0;
#X connect 5 1 2 0;
#X coords 0 -1 1 1 10 10 2 100 100;
#X restore 168 102 pd supertoggle;
#N canvas 0 50 450 300 supertoggle 0;
#X obj 64 33 inlet;
#X obj 100 100 tgl 10 0 \$0_t \$0_o empty 17 7 0 10 -1 -1 -262144 0
1;
#X msg 169 78 color 22 22 0;
#X msg 62 77 color 14 14 14;
#X obj 102 102 cnv 6 6 6 empty empty empty 20 12 0 14 -1 -66577 0;
#X obj 64 53 sel 1 0;
#X connect 0 0 5 0;
#X connect 2 0 1 0;
#X connect 3 0 1 0;
#X connect 5 0 3 0;
#X connect 5 1 2 0;
#X coords 0 -1 1 1 10 10 2 100 100;
#X restore 179 102 pd supertoggle;
#N canvas 0 50 450 300 supertoggle 0;
#X obj 64 33 inlet;
#X obj 100 100 tgl 10 0 \$0_t \$0_o empty 17 7 0 10 -1 -1 -262144 0
1;
#X msg 169 78 color 22 22 0;
#X msg 62 77 color 14 14 14;
#X obj 102 102 cnv 6 6 6 empty empty empty 20 12 0 14 -1 -66577 0;
#X obj 64 53 sel 1 0;
#X connect 0 0 5 0;
#X connect 2 0 1 0;
#X connect 3 0 1 0;
#X connect 5 0 3 0;
#X connect 5 1 2 0;
#X coords 0 -1 1 1 10 10 2 100 100;
#X restore 190 102 pd supertoggle;
#N canvas 0 50 450 300 supertoggle 0;
#X obj 64 33 inlet;
#X obj 100 100 tgl 10 0 \$0_t \$0_o empty 17 7 0 10 -1 -1 -262144 0
1;
#X msg 169 78 color 22 22 0;
#X msg 62 77 color 14 14 14;
#X obj 102 102 cnv 6 6 6 empty empty empty 20 12 0 14 -1 -66577 0;
#X obj 64 53 sel 1 0;
#X connect 0 0 5 0;
#X connect 2 0 1 0;
#X connect 3 0 1 0;
#X connect 5 0 3 0;
#X connect 5 1 2 0;
#X coords 0 -1 1 1 10 10 2 100 100;
#X restore 102 113 pd supertoggle;
#N canvas 0 50 450 300 supertoggle 0;
#X obj 64 33 inlet;
#X obj 100 100 tgl 10 0 \$0_t \$0_o empty 17 7 0 10 -1 -1 -262144 0
1;
#X msg 169 78 color 22 22 0;
#X msg 62 77 color 14 14 14;
#X obj 102 102 cnv 6 6 6 empty empty empty 20 12 0 14 -1 -66577 0;
#X obj 64 53 sel 1 0;
#X connect 0 0 5 0;
#X connect 2 0 1 0;
#X connect 3 0 1 0;
#X connect 5 0 3 0;
#X connect 5 1 2 0;
#X coords 0 -1 1 1 10 10 2 100 100;
#X restore 113 113 pd supertoggle;
#N canvas 0 50 450 300 supertoggle 0;
#X obj 64 33 inlet;
#X obj 100 100 tgl 10 0 \$0_t \$0_o empty 17 7 0 10 -1 -1 -262144 0
1;
#X msg 169 78 color 22 22 0;
#X msg 62 77 color 14 14 14;
#X obj 102 102 cnv 6 6 6 empty empty empty 20 12 0 14 -1 -66577 0;
#X obj 64 53 sel 1 0;
#X connect 0 0 5 0;
#X connect 2 0 1 0;
#X connect 3 0 1 0;
#X connect 5 0 3 0;
#X connect 5 1 2 0;
#X coords 0 -1 1 1 10 10 2 100 100;
#X restore 124 113 pd supertoggle;
#N canvas 0 50 450 300 supertoggle 0;
#X obj 64 33 inlet;
#X obj 100 100 tgl 10 0 \$0_t \$0_o empty 17 7 0 10 -1 -1 -262144 0
1;
#X msg 169 78 color 22 22 0;
#X msg 62 77 color 14 14 14;
#X obj 102 102 cnv 6 6 6 empty empty empty 20 12 0 14 -1 -66577 0;
#X obj 64 53 sel 1 0;
#X connect 0 0 5 0;
#X connect 2 0 1 0;
#X connect 3 0 1 0;
#X connect 5 0 3 0;
#X connect 5 1 2 0;
#X coords 0 -1 1 1 10 10 2 100 100;
#X restore 135 113 pd supertoggle;
#N canvas 0 50 450 300 supertoggle 0;
#X obj 64 33 inlet;
#X obj 100 100 tgl 10 0 \$0_t \$0_o empty 17 7 0 10 -1 -1 -262144 0
1;
#X msg 169 78 color 22 22 0;
#X msg 62 77 color 14 14 14;
#X obj 102 102 cnv 6 6 6 empty empty empty 20 12 0 14 -1 -66577 0;
#X obj 64 53 sel 1 0;
#X connect 0 0 5 0;
#X connect 2 0 1 0;
#X connect 3 0 1 0;
#X connect 5 0 3 0;
#X connect 5 1 2 0;
#X coords 0 -1 1 1 10 10 2 100 100;
#X restore 146 113 pd supertoggle;
#N canvas 0 50 450 300 supertoggle 0;
#X obj 64 33 inlet;
#X obj 100 100 tgl 10 0 \$0_t \$0_o empty 17 7 0 10 -1 -1 -262144 0
1;
#X msg 169 78 color 22 22 0;
#X msg 62 77 color 14 14 14;
#X obj 102 102 cnv 6 6 6 empty empty empty 20 12 0 14 -1 -66577 0;
#X obj 64 53 sel 1 0;
#X connect 0 0 5 0;
#X connect 2 0 1 0;
#X connect 3 0 1 0;
#X connect 5 0 3 0;
#X connect 5 1 2 0;
#X coords 0 -1 1 1 10 10 2 100 100;
#X restore 157 113 pd supertoggle;
#N canvas 0 50 450 300 supertoggle 0;
#X obj 64 33 inlet;
#X obj 100 100 tgl 10 0 \$0_t \$0_o empty 17 7 0 10 -1 -1 -262144 0
1;
#X msg 169 78 color 22 22 0;
#X msg 62 77 color 14 14 14;
#X obj 102 102 cnv 6 6 6 empty empty empty 20 12 0 14 -1 -66577 0;
#X obj 64 53 sel 1 0;
#X connect 0 0 5 0;
#X connect 2 0 1 0;
#X connect 3 0 1 0;
#X connect 5 0 3 0;
#X connect 5 1 2 0;
#X coords 0 -1 1 1 10 10 2 100 100;
#X restore 168 113 pd supertoggle;
#N canvas 0 50 450 300 supertoggle 0;
#X obj 64 33 inlet;
#X obj 100 100 tgl 10 0 \$0_t \$0_o empty 17 7 0 10 -1 -1 -262144 0
1;
#X msg 169 78 color 22 22 0;
#X msg 62 77 color 14 14 14;
#X obj 102 102 cnv 6 6 6 empty empty empty 20 12 0 14 -1 -66577 0;
#X obj 64 53 sel 1 0;
#X connect 0 0 5 0;
#X connect 2 0 1 0;
#X connect 3 0 1 0;
#X connect 5 0 3 0;
#X connect 5 1 2 0;
#X coords 0 -1 1 1 10 10 2 100 100;
#X restore 179 113 pd supertoggle;
#N canvas 0 50 450 300 supertoggle 0;
#X obj 64 33 inlet;
#X obj 100 100 tgl 10 0 \$0_t \$0_o empty 17 7 0 10 -1 -1 -262144 0
1;
#X msg 169 78 color 22 22 0;
#X msg 62 77 color 14 14 14;
#X obj 102 102 cnv 6 6 6 empty empty empty 20 12 0 14 -1 -66577 0;
#X obj 64 53 sel 1 0;
#X connect 0 0 5 0;
#X connect 2 0 1 0;
#X connect 3 0 1 0;
#X connect 5 0 3 0;
#X connect 5 1 2 0;
#X coords 0 -1 1 1 10 10 2 100 100;
#X restore 190 113 pd supertoggle;
#N canvas 0 50 450 300 supertoggle 0;
#X obj 64 33 inlet;
#X obj 100 100 tgl 10 0 \$0_t \$0_o empty 17 7 0 10 -1 -1 -262144 0
1;
#X msg 169 78 color 22 22 0;
#X msg 62 77 color 14 14 14;
#X obj 102 102 cnv 6 6 6 empty empty empty 20 12 0 14 -1 -66577 0;
#X obj 64 53 sel 1 0;
#X connect 0 0 5 0;
#X connect 2 0 1 0;
#X connect 3 0 1 0;
#X connect 5 0 3 0;
#X connect 5 1 2 0;
#X coords 0 -1 1 1 10 10 2 100 100;
#X restore 102 124 pd supertoggle;
#N canvas 0 50 450 300 supertoggle 0;
#X obj 64 33 inlet;
#X obj 100 100 tgl 10 0 \$0_t \$0_o empty 17 7 0 10 -1 -1 -262144 0
1;
#X msg 169 78 color 22 22 0;
#X msg 62 77 color 14 14 14;
#X obj 102 102 cnv 6 6 6 empty empty empty 20 12 0 14 -1 -66577 0;
#X obj 64 53 sel 1 0;
#X connect 0 0 5 0;
#X connect 2 0 1 0;
#X connect 3 0 1 0;
#X connect 5 0 3 0;
#X connect 5 1 2 0;
#X coords 0 -1 1 1 10 10 2 100 100;
#X restore 113 124 pd supertoggle;
#N canvas 0 50 450 300 supertoggle 0;
#X obj 64 33 inlet;
#X obj 100 100 tgl 10 0 \$0_t \$0_o empty 17 7 0 10 -1 -1 -262144 0
1;
#X msg 169 78 color 22 22 0;
#X msg 62 77 color 14 14 14;
#X obj 102 102 cnv 6 6 6 empty empty empty 20 12 0 14 -1 -66577 0;
#X obj 64 53 sel 1 0;
#X connect 0 0 5 0;
#X connect 2 0 1 0;
#X connect 3 0 1 0;
#X connect 5 0 3 0;
#X connect 5 1 2 0;
#X coords 0 -1 1 1 10 10 2 100 100;
#X restore 124 124 pd supertoggle;
#N canvas 0 50 450 300 supertoggle 0;
#X obj 64 33 inlet;
#X obj 100 100 tgl 10 0 \$0_t \$0_o empty 17 7 0 10 -1 -1 -262144 0
1;
#X msg 169 78 color 22 22 0;
#X msg 62 77 color 14 14 14;
#X obj 102 102 cnv 6 6 6 empty empty empty 20 12 0 14 -1 -66577 0;
#X obj 64 53 sel 1 0;
#X connect 0 0 5 0;
#X connect 2 0 1 0;
#X connect 3 0 1 0;
#X connect 5 0 3 0;
#X connect 5 1 2 0;
#X coords 0 -1 1 1 10 10 2 100 100;
#X restore 135 124 pd supertoggle;
#N canvas 0 50 450 300 supertoggle 0;
#X obj 64 33 inlet;
#X obj 100 100 tgl 10 0 \$0_t \$0_o empty 17 7 0 10 -1 -1 -262144 0
1;
#X msg 169 78 color 22 22 0;
#X msg 62 77 color 14 14 14;
#X obj 102 102 cnv 6 6 6 empty empty empty 20 12 0 14 -1 -66577 0;
#X obj 64 53 sel 1 0;
#X connect 0 0 5 0;
#X connect 2 0 1 0;
#X connect 3 0 1 0;
#X connect 5 0 3 0;
#X connect 5 1 2 0;
#X coords 0 -1 1 1 10 10 2 100 100;
#X restore 146 124 pd supertoggle;
#N canvas 0 50 450 300 supertoggle 0;
#X obj 64 33 inlet;
#X obj 100 100 tgl 10 0 \$0_t \$0_o empty 17 7 0 10 -1 -1 -262144 0
1;
#X msg 169 78 color 22 22 0;
#X msg 62 77 color 14 14 14;
#X obj 102 102 cnv 6 6 6 empty empty empty 20 12 0 14 -1 -66577 0;
#X obj 64 53 sel 1 0;
#X connect 0 0 5 0;
#X connect 2 0 1 0;
#X connect 3 0 1 0;
#X connect 5 0 3 0;
#X connect 5 1 2 0;
#X coords 0 -1 1 1 10 10 2 100 100;
#X restore 157 124 pd supertoggle;
#N canvas 0 50 450 300 supertoggle 0;
#X obj 64 33 inlet;
#X obj 100 100 tgl 10 0 \$0_t \$0_o empty 17 7 0 10 -1 -1 -262144 0
1;
#X msg 169 78 color 22 22 0;
#X msg 62 77 color 14 14 14;
#X obj 102 102 cnv 6 6 6 empty empty empty 20 12 0 14 -1 -66577 0;
#X obj 64 53 sel 1 0;
#X connect 0 0 5 0;
#X connect 2 0 1 0;
#X connect 3 0 1 0;
#X connect 5 0 3 0;
#X connect 5 1 2 0;
#X coords 0 -1 1 1 10 10 2 100 100;
#X restore 168 124 pd supertoggle;
#N canvas 0 50 450 300 supertoggle 0;
#X obj 64 33 inlet;
#X obj 100 100 tgl 10 0 \$0_t \$0_o empty 17 7 0 10 -1 -1 -262144 0
1;
#X msg 169 78 color 22 22 0;
#X msg 62 77 color 14 14 14;
#X obj 102 102 cnv 6 6 6 empty empty empty 20 12 0 14 -1 -66577 0;
#X obj 64 53 sel 1 0;
#X connect 0 0 5 0;
#X connect 2 0 1 0;
#X connect 3 0 1 0;
#X connect 5 0 3 0;
#X connect 5 1 2 0;
#X coords 0 -1 1 1 10 10 2 100 100;
#X restore 179 124 pd supertoggle;
#N canvas 0 50 450 300 supertoggle 0;
#X obj 64 33 inlet;
#X obj 100 100 tgl 10 0 \$0_t \$0_o empty 17 7 0 10 -1 -1 -262144 0
1;
#X msg 169 78 color 22 22 0;
#X msg 62 77 color 14 14 14;
#X obj 102 102 cnv 6 6 6 empty empty empty 20 12 0 14 -1 -66577 0;
#X obj 64 53 sel 1 0;
#X connect 0 0 5 0;
#X connect 2 0 1 0;
#X connect 3 0 1 0;
#X connect 5 0 3 0;
#X connect 5 1 2 0;
#X coords 0 -1 1 1 10 10 2 100 100;
#X restore 190 124 pd supertoggle;
#N canvas 0 50 450 300 supertoggle 0;
#X obj 64 33 inlet;
#X obj 100 100 tgl 10 0 \$0_t \$0_o empty 17 7 0 10 -1 -1 -262144 0
1;
#X msg 169 78 color 22 22 0;
#X msg 62 77 color 14 14 14;
#X obj 102 102 cnv 6 6 6 empty empty empty 20 12 0 14 -1 -66577 0;
#X obj 64 53 sel 1 0;
#X connect 0 0 5 0;
#X connect 2 0 1 0;
#X connect 3 0 1 0;
#X connect 5 0 3 0;
#X connect 5 1 2 0;
#X coords 0 -1 1 1 10 10 2 100 100;
#X restore 102 135 pd supertoggle;
#N canvas 0 50 450 300 supertoggle 0;
#X obj 64 33 inlet;
#X obj 100 100 tgl 10 0 \$0_t \$0_o empty 17 7 0 10 -1 -1 -262144 0
1;
#X msg 169 78 color 22 22 0;
#X msg 62 77 color 14 14 14;
#X obj 102 102 cnv 6 6 6 empty empty empty 20 12 0 14 -1 -66577 0;
#X obj 64 53 sel 1 0;
#X connect 0 0 5 0;
#X connect 2 0 1 0;
#X connect 3 0 1 0;
#X connect 5 0 3 0;
#X connect 5 1 2 0;
#X coords 0 -1 1 1 10 10 2 100 100;
#X restore 113 135 pd supertoggle;
#N canvas 0 50 450 300 supertoggle 0;
#X obj 64 33 inlet;
#X obj 100 100 tgl 10 0 \$0_t \$0_o empty 17 7 0 10 -1 -1 -262144 0
1;
#X msg 169 78 color 22 22 0;
#X msg 62 77 color 14 14 14;
#X obj 102 102 cnv 6 6 6 empty empty empty 20 12 0 14 -1 -66577 0;
#X obj 64 53 sel 1 0;
#X connect 0 0 5 0;
#X connect 2 0 1 0;
#X connect 3 0 1 0;
#X connect 5 0 3 0;
#X connect 5 1 2 0;
#X coords 0 -1 1 1 10 10 2 100 100;
#X restore 124 135 pd supertoggle;
#N canvas 0 50 450 300 supertoggle 0;
#X obj 64 33 inlet;
#X obj 100 100 tgl 10 0 \$0_t \$0_o empty 17 7 0 10 -1 -1 -262144 0
1;
#X msg 169 78 color 22 22 0;
#X msg 62 77 color 14 14 14;
#X obj 102 102 cnv 6 6 6 empty empty empty 20 12 0 14 -1 -66577 0;
#X obj 64 53 sel 1 0;
#X connect 0 0 5 0;
#X connect 2 0 1 0;
#X connect 3 0 1 0;
#X connect 5 0 3 0;
#X connect 5 1 2 0;
#X coords 0 -1 1 1 10 10 2 100 100;
#X restore 135 135 pd supertoggle;
#N canvas 0 50 450 300 supertoggle 0;
#X obj 64 33 inlet;
#X obj 100 100 tgl 10 0 \$0_t \$0_o empty 17 7 0 10 -1 -1 -262144 0
1;
#X msg 169 78 color 22 22 0;
#X msg 62 77 color 14 14 14;
#X obj 102 102 cnv 6 6 6 empty empty empty 20 12 0 14 -1 -66577 0;
#X obj 64 53 sel 1 0;
#X connect 0 0 5 0;
#X connect 2 0 1 0;
#X connect 3 0 1 0;
#X connect 5 0 3 0;
#X connect 5 1 2 0;
#X coords 0 -1 1 1 10 10 2 100 100;
#X restore 146 135 pd supertoggle;
#N canvas 0 50 450 300 supertoggle 0;
#X obj 64 33 inlet;
#X obj 100 100 tgl 10 0 \$0_t \$0_o empty 17 7 0 10 -1 -1 -262144 0
1;
#X msg 169 78 color 22 22 0;
#X msg 62 77 color 14 14 14;
#X obj 102 102 cnv 6 6 6 empty empty empty 20 12 0 14 -1 -66577 0;
#X obj 64 53 sel 1 0;
#X connect 0 0 5 0;
#X connect 2 0 1 0;
#X connect 3 0 1 0;
#X connect 5 0 3 0;
#X connect 5 1 2 0;
#X coords 0 -1 1 1 10 10 2 100 100;
#X restore 157 135 pd supertoggle;
#N canvas 0 50 450 300 supertoggle 0;
#X obj 64 33 inlet;
#X obj 100 100 tgl 10 0 \$0_t \$0_o empty 17 7 0 10 -1 -1 -262144 0
1;
#X msg 169 78 color 22 22 0;
#X msg 62 77 color 14 14 14;
#X obj 102 102 cnv 6 6 6 empty empty empty 20 12 0 14 -1 -66577 0;
#X obj 64 53 sel 1 0;
#X connect 0 0 5 0;
#X connect 2 0 1 0;
#X connect 3 0 1 0;
#X connect 5 0 3 0;
#X connect 5 1 2 0;
#X coords 0 -1 1 1 10 10 2 100 100;
#X restore 168 135 pd supertoggle;
#N canvas 0 50 450 300 supertoggle 0;
#X obj 64 33 inlet;
#X obj 100 100 tgl 10 0 \$0_t \$0_o empty 17 7 0 10 -1 -1 -262144 0
1;
#X msg 169 78 color 22 22 0;
#X msg 62 77 color 14 14 14;
#X obj 102 102 cnv 6 6 6 empty empty empty 20 12 0 14 -1 -66577 0;
#X obj 64 53 sel 1 0;
#X connect 0 0 5 0;
#X connect 2 0 1 0;
#X connect 3 0 1 0;
#X connect 5 0 3 0;
#X connect 5 1 2 0;
#X coords 0 -1 1 1 10 10 2 100 100;
#X restore 179 135 pd supertoggle;
#N canvas 0 50 450 300 supertoggle 0;
#X obj 64 33 inlet;
#X obj 100 100 tgl 10 0 \$0_t \$0_o empty 17 7 0 10 -1 -1 -262144 0
1;
#X msg 169 78 color 22 22 0;
#X msg 62 77 color 14 14 14;
#X obj 102 102 cnv 6 6 6 empty empty empty 20 12 0 14 -1 -66577 0;
#X obj 64 53 sel 1 0;
#X connect 0 0 5 0;
#X connect 2 0 1 0;
#X connect 3 0 1 0;
#X connect 5 0 3 0;
#X connect 5 1 2 0;
#X coords 0 -1 1 1 10 10 2 100 100;
#X restore 190 135 pd supertoggle;
#X obj 515 140 == 1;
#X obj 555 140 == 2;
#X obj 595 140 == 3;
#X obj 635 140 == 4;
#X obj 675 140 == 5;
#X obj 715 140 == 6;
#X obj 755 140 == 7;
#X obj 795 140 == 8;
#X obj 475 210 == 9;
#X obj 515 210 == 10;
#X obj 555 210 == 11;
#X obj 595 210 == 12;
#X obj 635 210 == 13;
#X obj 675 210 == 14;
#X obj 715 210 == 15;
#X obj 755 210 == 16;
#X obj 795 210 == 17;
#X obj 475 279 == 18;
#X obj 515 280 == 19;
#X obj 555 280 == 20;
#X obj 595 280 == 21;
#X obj 635 280 == 22;
#X obj 675 280 == 23;
#X obj 715 280 == 24;
#X obj 755 280 == 25;
#X obj 795 280 == 26;
#X obj 475 350 == 27;
#X obj 515 350 == 28;
#X obj 555 350 == 29;
#X obj 595 350 == 30;
#X obj 635 350 == 31;
#X obj 675 350 == 32;
#X obj 715 350 == 33;
#X obj 755 350 == 34;
#X obj 795 350 == 35;
#N canvas 0 50 450 300 supertoggle 0;
#X obj 64 33 inlet;
#X obj 100 100 tgl 10 0 \$0_t \$0_o empty 17 7 0 10 -1 -1 -262144 0
1;
#X msg 169 78 color 22 22 0;
#X msg 62 77 color 14 14 14;
#X obj 102 102 cnv 6 6 6 empty empty empty 20 12 0 14 -1 -66577 0;
#X obj 64 53 sel 1 0;
#X connect 0 0 5 0;
#X connect 2 0 1 0;
#X connect 3 0 1 0;
#X connect 5 0 3 0;
#X connect 5 1 2 0;
#X coords 0 -1 1 1 10 10 2 100 100;
#X restore 102 145 pd supertoggle;
#N canvas 0 50 450 300 supertoggle 0;
#X obj 64 33 inlet;
#X obj 100 100 tgl 10 0 \$0_t \$0_o empty 17 7 0 10 -1 -1 -262144 0
1;
#X msg 169 78 color 22 22 0;
#X msg 62 77 color 14 14 14;
#X obj 102 102 cnv 6 6 6 empty empty empty 20 12 0 14 -1 -66577 0;
#X obj 64 53 sel 1 0;
#X connect 0 0 5 0;
#X connect 2 0 1 0;
#X connect 3 0 1 0;
#X connect 5 0 3 0;
#X connect 5 1 2 0;
#X coords 0 -1 1 1 10 10 2 100 100;
#X restore 113 145 pd supertoggle;
#N canvas 0 50 450 300 supertoggle 0;
#X obj 64 33 inlet;
#X obj 100 100 tgl 10 0 \$0_t \$0_o empty 17 7 0 10 -1 -1 -262144 0
1;
#X msg 169 78 color 22 22 0;
#X msg 62 77 color 14 14 14;
#X obj 102 102 cnv 6 6 6 empty empty empty 20 12 0 14 -1 -66577 0;
#X obj 64 53 sel 1 0;
#X connect 0 0 5 0;
#X connect 2 0 1 0;
#X connect 3 0 1 0;
#X connect 5 0 3 0;
#X connect 5 1 2 0;
#X coords 0 -1 1 1 10 10 2 100 100;
#X restore 124 145 pd supertoggle;
#N canvas 0 50 450 300 supertoggle 0;
#X obj 64 33 inlet;
#X obj 100 100 tgl 10 0 \$0_t \$0_o empty 17 7 0 10 -1 -1 -262144 0
1;
#X msg 169 78 color 22 22 0;
#X msg 62 77 color 14 14 14;
#X obj 102 102 cnv 6 6 6 empty empty empty 20 12 0 14 -1 -66577 0;
#X obj 64 53 sel 1 0;
#X connect 0 0 5 0;
#X connect 2 0 1 0;
#X connect 3 0 1 0;
#X connect 5 0 3 0;
#X connect 5 1 2 0;
#X coords 0 -1 1 1 10 10 2 100 100;
#X restore 135 145 pd supertoggle;
#N canvas 0 50 450 300 supertoggle 0;
#X obj 64 33 inlet;
#X obj 100 100 tgl 10 0 \$0_t \$0_o empty 17 7 0 10 -1 -1 -262144 0
1;
#X msg 169 78 color 22 22 0;
#X msg 62 77 color 14 14 14;
#X obj 102 102 cnv 6 6 6 empty empty empty 20 12 0 14 -1 -66577 0;
#X obj 64 53 sel 1 0;
#X connect 0 0 5 0;
#X connect 2 0 1 0;
#X connect 3 0 1 0;
#X connect 5 0 3 0;
#X connect 5 1 2 0;
#X coords 0 -1 1 1 10 10 2 100 100;
#X restore 146 145 pd supertoggle;
#N canvas 0 50 450 300 supertoggle 0;
#X obj 64 33 inlet;
#X obj 100 100 tgl 10 0 \$0_t \$0_o empty 17 7 0 10 -1 -1 -262144 0
1;
#X msg 169 78 color 22 22 0;
#X msg 62 77 color 14 14 14;
#X obj 102 102 cnv 6 6 6 empty empty empty 20 12 0 14 -1 -66577 0;
#X obj 64 53 sel 1 0;
#X connect 0 0 5 0;
#X connect 2 0 1 0;
#X connect 3 0 1 0;
#X connect 5 0 3 0;
#X connect 5 1 2 0;
#X coords 0 -1 1 1 10 10 2 100 100;
#X restore 157 145 pd supertoggle;
#N canvas 0 50 450 300 supertoggle 0;
#X obj 64 33 inlet;
#X obj 100 100 tgl 10 0 \$0_t \$0_o empty 17 7 0 10 -1 -1 -262144 0
1;
#X msg 169 78 color 22 22 0;
#X msg 62 77 color 14 14 14;
#X obj 102 102 cnv 6 6 6 empty empty empty 20 12 0 14 -1 -66577 0;
#X obj 64 53 sel 1 0;
#X connect 0 0 5 0;
#X connect 2 0 1 0;
#X connect 3 0 1 0;
#X connect 5 0 3 0;
#X connect 5 1 2 0;
#X coords 0 -1 1 1 10 10 2 100 100;
#X restore 168 145 pd supertoggle;
#N canvas 0 50 450 300 supertoggle 0;
#X obj 64 33 inlet;
#X obj 100 100 tgl 10 0 \$0_t \$0_o empty 17 7 0 10 -1 -1 -262144 0
1;
#X msg 169 78 color 22 22 0;
#X msg 62 77 color 14 14 14;
#X obj 102 102 cnv 6 6 6 empty empty empty 20 12 0 14 -1 -66577 0;
#X obj 64 53 sel 1 0;
#X connect 0 0 5 0;
#X connect 2 0 1 0;
#X connect 3 0 1 0;
#X connect 5 0 3 0;
#X connect 5 1 2 0;
#X coords 0 -1 1 1 10 10 2 100 100;
#X restore 179 145 pd supertoggle;
#N canvas 0 50 450 300 supertoggle 0;
#X obj 64 33 inlet;
#X obj 100 100 tgl 10 0 \$0_t \$0_o empty 17 7 0 10 -1 -1 -262144 0
1;
#X msg 169 78 color 22 22 0;
#X msg 62 77 color 14 14 14;
#X obj 102 102 cnv 6 6 6 empty empty empty 20 12 0 14 -1 -66577 0;
#X obj 64 53 sel 1 0;
#X connect 0 0 5 0;
#X connect 2 0 1 0;
#X connect 3 0 1 0;
#X connect 5 0 3 0;
#X connect 5 1 2 0;
#X coords 0 -1 1 1 10 10 2 100 100;
#X restore 190 145 pd supertoggle;
#N canvas 0 50 450 300 supertoggle 0;
#X obj 64 33 inlet;
#X obj 100 100 tgl 10 0 \$0_t \$0_o empty 17 7 0 10 -1 -1 -262144 0
1;
#X msg 169 78 color 22 22 0;
#X msg 62 77 color 14 14 14;
#X obj 102 102 cnv 6 6 6 empty empty empty 20 12 0 14 -1 -66577 0;
#X obj 64 53 sel 1 0;
#X connect 0 0 5 0;
#X connect 2 0 1 0;
#X connect 3 0 1 0;
#X connect 5 0 3 0;
#X connect 5 1 2 0;
#X coords 0 -1 1 1 10 10 2 100 100;
#X restore 102 156 pd supertoggle;
#N canvas 0 50 450 300 supertoggle 0;
#X obj 64 33 inlet;
#X obj 100 100 tgl 10 0 \$0_t \$0_o empty 17 7 0 10 -1 -1 -262144 0
1;
#X msg 169 78 color 22 22 0;
#X msg 62 77 color 14 14 14;
#X obj 102 102 cnv 6 6 6 empty empty empty 20 12 0 14 -1 -66577 0;
#X obj 64 53 sel 1 0;
#X connect 0 0 5 0;
#X connect 2 0 1 0;
#X connect 3 0 1 0;
#X connect 5 0 3 0;
#X connect 5 1 2 0;
#X coords 0 -1 1 1 10 10 2 100 100;
#X restore 113 156 pd supertoggle;
#N canvas 0 50 450 300 supertoggle 0;
#X obj 64 33 inlet;
#X obj 100 100 tgl 10 0 \$0_t \$0_o empty 17 7 0 10 -1 -1 -262144 0
1;
#X msg 169 78 color 22 22 0;
#X msg 62 77 color 14 14 14;
#X obj 102 102 cnv 6 6 6 empty empty empty 20 12 0 14 -1 -66577 0;
#X obj 64 53 sel 1 0;
#X connect 0 0 5 0;
#X connect 2 0 1 0;
#X connect 3 0 1 0;
#X connect 5 0 3 0;
#X connect 5 1 2 0;
#X coords 0 -1 1 1 10 10 2 100 100;
#X restore 124 156 pd supertoggle;
#N canvas 0 50 450 300 supertoggle 0;
#X obj 64 33 inlet;
#X obj 100 100 tgl 10 0 \$0_t \$0_o empty 17 7 0 10 -1 -1 -262144 0
1;
#X msg 169 78 color 22 22 0;
#X msg 62 77 color 14 14 14;
#X obj 102 102 cnv 6 6 6 empty empty empty 20 12 0 14 -1 -66577 0;
#X obj 64 53 sel 1 0;
#X connect 0 0 5 0;
#X connect 2 0 1 0;
#X connect 3 0 1 0;
#X connect 5 0 3 0;
#X connect 5 1 2 0;
#X coords 0 -1 1 1 10 10 2 100 100;
#X restore 135 156 pd supertoggle;
#N canvas 0 50 450 300 supertoggle 0;
#X obj 64 33 inlet;
#X obj 100 100 tgl 10 0 \$0_t \$0_o empty 17 7 0 10 -1 -1 -262144 0
1;
#X msg 169 78 color 22 22 0;
#X msg 62 77 color 14 14 14;
#X obj 102 102 cnv 6 6 6 empty empty empty 20 12 0 14 -1 -66577 0;
#X obj 64 53 sel 1 0;
#X connect 0 0 5 0;
#X connect 2 0 1 0;
#X connect 3 0 1 0;
#X connect 5 0 3 0;
#X connect 5 1 2 0;
#X coords 0 -1 1 1 10 10 2 100 100;
#X restore 146 156 pd supertoggle;
#N canvas 0 50 450 300 supertoggle 0;
#X obj 64 33 inlet;
#X obj 100 100 tgl 10 0 \$0_t \$0_o empty 17 7 0 10 -1 -1 -262144 0
1;
#X msg 169 78 color 22 22 0;
#X msg 62 77 color 14 14 14;
#X obj 102 102 cnv 6 6 6 empty empty empty 20 12 0 14 -1 -66577 0;
#X obj 64 53 sel 1 0;
#X connect 0 0 5 0;
#X connect 2 0 1 0;
#X connect 3 0 1 0;
#X connect 5 0 3 0;
#X connect 5 1 2 0;
#X coords 0 -1 1 1 10 10 2 100 100;
#X restore 157 156 pd supertoggle;
#N canvas 0 50 450 300 supertoggle 0;
#X obj 64 33 inlet;
#X obj 100 100 tgl 10 0 \$0_t \$0_o empty 17 7 0 10 -1 -1 -262144 0
1;
#X msg 169 78 color 22 22 0;
#X msg 62 77 color 14 14 14;
#X obj 102 102 cnv 6 6 6 empty empty empty 20 12 0 14 -1 -66577 0;
#X obj 64 53 sel 1 0;
#X connect 0 0 5 0;
#X connect 2 0 1 0;
#X connect 3 0 1 0;
#X connect 5 0 3 0;
#X connect 5 1 2 0;
#X coords 0 -1 1 1 10 10 2 100 100;
#X restore 168 156 pd supertoggle;
#N canvas 0 50 450 300 supertoggle 0;
#X obj 64 33 inlet;
#X obj 100 100 tgl 10 0 \$0_t \$0_o empty 17 7 0 10 -1 -1 -262144 0
1;
#X msg 169 78 color 22 22 0;
#X msg 62 77 color 14 14 14;
#X obj 102 102 cnv 6 6 6 empty empty empty 20 12 0 14 -1 -66577 0;
#X obj 64 53 sel 1 0;
#X connect 0 0 5 0;
#X connect 2 0 1 0;
#X connect 3 0 1 0;
#X connect 5 0 3 0;
#X connect 5 1 2 0;
#X coords 0 -1 1 1 10 10 2 100 100;
#X restore 179 156 pd supertoggle;
#N canvas 0 50 450 300 supertoggle 0;
#X obj 64 33 inlet;
#X obj 100 100 tgl 10 0 \$0_t \$0_o empty 17 7 0 10 -1 -1 -262144 0
1;
#X msg 169 78 color 22 22 0;
#X msg 62 77 color 14 14 14;
#X obj 102 102 cnv 6 6 6 empty empty empty 20 12 0 14 -1 -66577 0;
#X obj 64 53 sel 1 0;
#X connect 0 0 5 0;
#X connect 2 0 1 0;
#X connect 3 0 1 0;
#X connect 5 0 3 0;
#X connect 5 1 2 0;
#X coords 0 -1 1 1 10 10 2 100 100;
#X restore 190 156 pd supertoggle;
#X obj 475 410 == 36;
#X obj 515 410 == 37;
#X obj 555 410 == 38;
#X obj 595 410 == 39;
#X obj 635 410 == 40;
#X obj 675 410 == 41;
#X obj 715 410 == 42;
#X obj 755 410 == 43;
#X obj 795 410 == 44;
#X obj 475 470 == 45;
#X obj 515 470 == 46;
#X obj 555 470 == 47;
#X obj 595 470 == 48;
#X obj 635 470 == 49;
#X obj 675 470 == 50;
#X obj 715 470 == 51;
#X obj 755 470 == 52;
#X obj 795 470 == 53;
#X connect 1 0 3 0;
#X connect 1 0 46 0;
#X connect 1 0 45 0;
#X connect 1 0 44 0;
#X connect 1 0 43 0;
#X connect 1 0 42 0;
#X connect 1 0 41 0;
#X connect 1 0 40 0;
#X connect 1 0 39 0;
#X connect 1 0 47 0;
#X connect 1 0 55 0;
#X connect 1 0 54 0;
#X connect 1 0 53 0;
#X connect 1 0 52 0;
#X connect 1 0 51 0;
#X connect 1 0 50 0;
#X connect 1 0 49 0;
#X connect 1 0 48 0;
#X connect 1 0 56 0;
#X connect 1 0 64 0;
#X connect 1 0 63 0;
#X connect 1 0 62 0;
#X connect 1 0 61 0;
#X connect 1 0 60 0;
#X connect 1 0 59 0;
#X connect 1 0 58 0;
#X connect 1 0 57 0;
#X connect 1 0 65 0;
#X connect 1 0 73 0;
#X connect 1 0 72 0;
#X connect 1 0 71 0;
#X connect 1 0 70 0;
#X connect 1 0 69 0;
#X connect 1 0 68 0;
#X connect 1 0 67 0;
#X connect 1 0 66 0;
#X connect 1 0 92 0;
#X connect 1 0 100 0;
#X connect 1 0 99 0;
#X connect 1 0 98 0;
#X connect 1 0 97 0;
#X connect 1 0 96 0;
#X connect 1 0 95 0;
#X connect 1 0 94 0;
#X connect 1 0 93 0;
#X connect 1 0 101 0;
#X connect 1 0 109 0;
#X connect 1 0 108 0;
#X connect 1 0 107 0;
#X connect 1 0 106 0;
#X connect 1 0 105 0;
#X connect 1 0 104 0;
#X connect 1 0 103 0;
#X connect 1 0 102 0;
#X connect 3 0 2 0;
#X connect 39 0 4 0;
#X connect 40 0 5 0;
#X connect 41 0 6 0;
#X connect 42 0 7 0;
#X connect 43 0 8 0;
#X connect 44 0 9 0;
#X connect 45 0 10 0;
#X connect 46 0 11 0;
#X connect 47 0 12 0;
#X connect 48 0 13 0;
#X connect 49 0 14 0;
#X connect 50 0 15 0;
#X connect 51 0 16 0;
#X connect 52 0 17 0;
#X connect 53 0 18 0;
#X connect 54 0 19 0;
#X connect 55 0 20 0;
#X connect 56 0 21 0;
#X connect 57 0 22 0;
#X connect 58 0 23 0;
#X connect 59 0 24 0;
#X connect 60 0 25 0;
#X connect 61 0 26 0;
#X connect 62 0 27 0;
#X connect 63 0 28 0;
#X connect 64 0 29 0;
#X connect 65 0 30 0;
#X connect 66 0 31 0;
#X connect 67 0 32 0;
#X connect 68 0 33 0;
#X connect 69 0 34 0;
#X connect 70 0 35 0;
#X connect 71 0 36 0;
#X connect 72 0 37 0;
#X connect 73 0 38 0;
#X connect 92 0 74 0;
#X connect 93 0 75 0;
#X connect 94 0 76 0;
#X connect 95 0 77 0;
#X connect 96 0 78 0;
#X connect 97 0 79 0;
#X connect 98 0 80 0;
#X connect 99 0 81 0;
#X connect 100 0 82 0;
#X connect 101 0 83 0;
#X connect 102 0 84 0;
#X connect 103 0 85 0;
#X connect 104 0 86 0;
#X connect 105 0 87 0;
#X connect 106 0 88 0;
#X connect 107 0 89 0;
#X connect 108 0 90 0;
#X connect 109 0 91 0;
#X coords 0 -1 1 1 102 68 2 100 100;
