#N canvas -8 -8 1366 725 10;
#X obj 417 170 tri~;
#X obj 417 191 fatten~;
#X obj 417 212 *~;
#X obj 416 360 outlet~;
#X obj 33 31 loadbang;
#X obj 33 51 \$1;
#X obj 33 71 mtof;
#X obj 33 91 s \$0_note;
#X obj 121 37 inlet;
#X obj 59 511 bng 15 250 50 0 empty empty empty 17 7 0 10 -262144 -1
-1;
#X obj 166 67 route 0;
#X obj 244 89 t b;
#X obj 121 67 s \$0_v;
#X obj 250 111 s \$0_notebang;
#X obj 59 421 r \$0_notebang;
#X text 190 40 Detect Notein;
#X obj 134 136 t b;
#X msg 233 268 1;
#X msg 133 301 0;
#X obj 193 330 switch~;
#X obj 165 110 s \$0_noteoff;
#X obj 59 492 spigot;
#X obj 144 422 loadbang;
#X msg 144 442 1;
#X obj 199 422 r \$0_noteoff;
#X obj 59 534 s \$0_triggered;
#X obj 278 422 r \$0_triggered;
#X obj 278 442 del 0.01;
#X msg 278 462 0;
#X obj 151 534 s \$0_envbang;
#X obj 133 242 spigot;
#X obj 166 193 r \$0_v;
#X text 78 404 Prevent retriggering before keyup;
#X obj 250 214 loadbang;
#X obj 166 213 == 0;
#X obj 166 90 t b;
#X text 192 91 On;
#X text 269 90 Off;
#X obj 664 82 cnv 20 370 247 empty empty Note-Envelope 10 12 0 14 -162280
-262144 0;
#X obj 680 245 vline~;
#X obj 680 129 bng 15 250 50 0 empty empty empty 17 7 0 10 -262144
-1 -1;
#X obj 680 174 f;
#X obj 680 194 pack f f f f;
#X obj 680 107 r \$0_envbang;
#X msg 680 214 0 \, \$4 \$1 \, \$3 \$2 \$1;
#X obj 916 130 r \$0_noteoff;
#X obj 916 185 f;
#X msg 916 225 0 \$1;
#X obj 680 285 s~ \$0_eenv;
#X obj 680 265 pow~ 1.5;
#X obj 951 204 s \$0_sta;
#X obj 850 92 loadbang;
#X obj 870 129 1;
#X obj 776 130 1;
#X obj 823 130 1;
#X obj 417 149 r \$0_note;
#X obj 505 222 r~ \$0_eenv;
#X obj 417 233 *~;
#X obj 469 254 r \$0_v;
#X obj 469 275 / 127;
#X obj 469 317 line~;
#X obj 133 175 del 5;
#X obj 733 130 2;
#X obj 931 150 2;
#X msg 469 296 \$1 2;
#X connect 0 0 1 0;
#X connect 1 0 2 0;
#X connect 2 0 57 0;
#X connect 4 0 5 0;
#X connect 5 0 6 0;
#X connect 6 0 7 0;
#X connect 8 0 12 0;
#X connect 8 0 10 0;
#X connect 9 0 25 0;
#X connect 9 0 29 0;
#X connect 10 0 16 0;
#X connect 10 0 35 0;
#X connect 10 1 11 0;
#X connect 11 0 13 0;
#X connect 11 0 17 0;
#X connect 14 0 21 0;
#X connect 16 0 61 0;
#X connect 17 0 19 0;
#X connect 18 0 19 0;
#X connect 21 0 9 0;
#X connect 22 0 23 0;
#X connect 23 0 21 1;
#X connect 24 0 23 0;
#X connect 26 0 27 0;
#X connect 27 0 28 0;
#X connect 28 0 21 1;
#X connect 30 0 18 0;
#X connect 31 0 34 0;
#X connect 33 0 18 0;
#X connect 34 0 30 1;
#X connect 35 0 20 0;
#X connect 39 0 49 0;
#X connect 40 0 41 0;
#X connect 41 0 42 0;
#X connect 42 0 44 0;
#X connect 43 0 40 0;
#X connect 44 0 39 0;
#X connect 45 0 46 0;
#X connect 46 0 47 0;
#X connect 46 0 50 0;
#X connect 47 0 39 0;
#X connect 49 0 48 0;
#X connect 51 0 52 0;
#X connect 51 0 53 0;
#X connect 51 0 54 0;
#X connect 51 0 62 0;
#X connect 51 0 63 0;
#X connect 52 0 42 3;
#X connect 53 0 42 1;
#X connect 54 0 42 2;
#X connect 55 0 0 0;
#X connect 56 0 2 1;
#X connect 57 0 3 0;
#X connect 58 0 59 0;
#X connect 59 0 64 0;
#X connect 60 0 57 1;
#X connect 61 0 30 0;
#X connect 62 0 41 1;
#X connect 63 0 46 1;
#X connect 64 0 60 0;
