#N canvas 0 0 450 300 10;
#X obj 23 54 counter;
#X floatatom 23 75 5 0 0 0 - - -;
#X floatatom 72 143 5 0 0 0 - - -;
#X obj 23 185 bng 15 250 50 0 empty empty empty 17 7 0 10 -262144 -1
-1;
#X obj 23 162 sel 30;
#X obj 72 76 r randbang;
#X obj 72 100 random \$1;
#X obj 72 122 + \$2;
#X floatatom 104 26 5 0 0 0 - - -;
#X floatatom 65 26 5 0 0 0 - - -;
#X obj 138 49 r resetcounters;
#X obj 53 187 outlet;
#X obj 149 77 inlet;
#X msg 172 115 0;
#X connect 0 0 1 0;
#X connect 0 0 9 0;
#X connect 1 0 4 0;
#X connect 2 0 4 1;
#X connect 4 0 3 0;
#X connect 4 0 11 0;
#X connect 5 0 6 0;
#X connect 6 0 7 0;
#X connect 7 0 2 0;
#X connect 7 0 8 0;
#X connect 10 0 0 2;
#X connect 10 0 13 0;
#X connect 12 0 0 0;
#X connect 13 0 9 0;
#X coords 0 -1 1 1 135 40 1 5 5;
