#N canvas 557 198 1361 715 10;
#X obj 81 86 tgl 15 0 empty empty empty 17 7 0 10 -262144 -1 -1 0 1
;
#X obj 483 79 tgl 15 0 empty empty empty 17 7 0 10 -262144 -1 -1 0
1;
#X obj 81 108 metro 400;
#X obj 139 178 s tomidi;
#X obj 265 -20 r tomidi;
#X obj 154 -20 unpack f f;
#X floatatom 154 2 5 0 0 0 - - -;
#X floatatom 211 3 5 0 0 0 - - -;
#X obj 81 178 s tomidi;
#X obj 483 177 s tomidi;
#X obj 139 133 del 290;
#X obj 483 100 metro 800;
#X obj 539 177 s tomidi;
#X obj 595 177 s tomidi;
#X obj 681 77 tgl 15 0 empty empty empty 17 7 0 10 -262144 -1 -1 0
1;
#X obj 681 175 s tomidi;
#X obj 681 97 metro 800;
#X obj 737 175 s tomidi;
#X obj 793 175 s tomidi;
#X obj 377 -3 bng 15 250 50 0 empty empty empty 17 7 0 10 -262144 -1
-1;
#X obj 377 16 s randbang;
#X obj 449 16 s resetcounters;
#X obj 449 -3 bng 15 250 50 0 empty empty empty 17 7 0 10 -262144 -1
-1;
#X obj 63 250 s b1;
#X obj 81 62 r b1;
#X msg 81 156 76 180;
#X msg 139 156 72 100;
#X msg 483 156 76 180;
#X msg 539 156 77 180;
#X msg 595 156 76 180;
#X msg 681 154 76 180;
#X msg 737 154 77 180;
#X msg 793 154 79 180;
#X obj -16 47 bng 30 250 50 0 b1 empty Go! 35 15 0 10 -204786 -13381
-13381;
#X obj 377 -25 r reset;
#X obj 21 48 bng 30 250 50 0 reset empty Stop/Reset 35 15 0 10 -261234
-86277 -86277;
#X obj 117 62 r reset;
#X msg 117 82 0;
#X obj 515 58 r reset;
#X msg 515 78 0;
#X obj 713 56 r reset;
#X msg 713 76 0;
#X obj 233 79 tgl 15 0 empty empty empty 17 7 0 10 -262144 -1 -1 0
1;
#X obj 402 177 s tomidi;
#X obj 233 177 s tomidi;
#X obj 233 100 metro 800;
#X obj 402 133 del 690;
#X obj 290 177 s tomidi;
#X obj 346 177 s tomidi;
#X obj 290 132 del 200;
#X obj 346 133 del 400;
#X obj 210 202 inccountdown 30 7;
#X obj 210 250 s b2;
#X obj 233 58 r b2;
#X msg 233 156 76 180;
#X msg 290 155 77 180;
#X msg 346 156 76 180;
#X msg 402 156 72 100;
#X obj 266 58 r reset;
#X msg 266 78 0;
#X obj 483 58 r b3;
#X obj 681 56 r b4;
#X obj 460 250 s b3;
#X obj 663 248 s b4;
#X obj 483 133 del 200;
#X obj 539 133 del 400;
#X obj 595 133 del 600;
#X obj 681 132 del 200;
#X obj 737 131 del 400;
#X obj 793 131 del 600;
#X text 80 44 # 1 (pickup at end);
#X text 231 42 # 2 (pickup at end);
#X text 481 42 # 3 (del 200 eighth at front);
#X text 679 40 # 4 (eighth rest at front);
#X obj 871 77 tgl 15 0 empty empty empty 17 7 0 10 -262144 -1 -1 0
1;
#X obj 871 175 s tomidi;
#X obj 871 97 metro 800;
#X obj 927 175 s tomidi;
#X obj 983 175 s tomidi;
#X msg 871 154 76 180;
#X msg 927 154 77 180;
#X msg 983 154 79 180;
#X obj 903 56 r reset;
#X msg 903 76 0;
#X obj 927 131 del 200;
#X obj 983 131 del 400;
#X obj 1061 77 tgl 15 0 empty empty empty 17 7 0 10 -262144 -1 -1 0
1;
#X obj 1061 175 s tomidi;
#X obj 1117 175 s tomidi;
#X obj 1093 56 r reset;
#X msg 1093 76 0;
#X obj 871 56 r b5;
#X obj 1061 56 r b6;
#X obj 853 248 s b5;
#X obj 1043 248 s b6;
#X obj 1061 97 metro 3200;
#X obj 1117 131 del 1600;
#X obj 43 329 tgl 15 0 empty empty empty 17 7 0 10 -262144 -1 -1 0
1;
#X obj 43 427 s tomidi;
#X obj 99 427 s tomidi;
#X obj 155 427 s tomidi;
#X obj 75 308 r reset;
#X msg 75 328 0;
#X obj 43 308 r b7;
#X obj 20 500 s b7;
#X obj 43 383 del 1400;
#X obj 99 383 del 1500;
#X obj 155 383 del 1600;
#X msg 43 406 72 90;
#X msg 99 406 72 90;
#X msg 155 406 72 90;
#X obj 43 350 metro 3600;
#X text 869 40 # 5 eighths;
#X text 1059 40 # 6 whole notes;
#X text 41 292 # 7 isolated eighths and rests;
#X obj 243 329 tgl 15 0 empty empty empty 17 7 0 10 -262144 -1 -1 0
1;
#X obj 243 427 s tomidi;
#X obj 299 427 s tomidi;
#X obj 355 427 s tomidi;
#X obj 275 308 r reset;
#X msg 275 328 0;
#X obj 243 350 metro 3600;
#X text 241 291 # 8 long notes again;
#X msg 243 406 79 2380;
#X obj 299 383 del 2400;
#X msg 299 406 77 1580;
#X obj 355 383 del 4000;
#X msg 355 406 77 1580;
#X obj 433 329 tgl 15 0 empty empty empty 17 7 0 10 -262144 -1 -1 0
1;
#X obj 433 427 s tomidi;
#X obj 489 427 s tomidi;
#X obj 465 308 r reset;
#X msg 465 328 0;
#X text 431 291 # 9 isolated sixteenths;
#X obj 243 308 r b8;
#X obj 433 308 r b9;
#X obj 220 500 s b8;
#X obj 410 500 s b9;
#X obj 433 350 metro 1600;
#X obj 489 383 del 100;
#X msg 433 406 83 90;
#X msg 489 406 79 90;
#X obj 593 329 tgl 15 0 empty empty empty 17 7 0 10 -262144 -1 -1 0
1;
#X obj 593 427 s tomidi;
#X obj 649 427 s tomidi;
#X obj 631 308 r reset;
#X msg 631 328 0;
#X obj 649 383 del 100;
#X msg 593 406 83 90;
#X msg 649 406 79 90;
#X text 591 291 #10 repeated sxts;
#X obj 593 350 metro 200;
#X obj 593 308 r b10;
#X obj 570 500 s b10;
#X obj 743 329 tgl 15 0 empty empty empty 17 7 0 10 -262144 -1 -1 0
1;
#X obj 743 427 s tomidi;
#X obj 799 427 s tomidi;
#X obj 781 308 r reset;
#X msg 781 328 0;
#X obj 799 383 del 100;
#X msg 799 406 79 90;
#X obj 743 308 r b11;
#X obj 720 500 s b11;
#X msg 743 406 77 90;
#X obj 855 427 s tomidi;
#X obj 910 427 s tomidi;
#X msg 910 406 79 90;
#X obj 966 427 s tomidi;
#X obj 1021 427 s tomidi;
#X msg 1021 406 79 90;
#X obj 855 383 del 200;
#X obj 910 383 del 300;
#X obj 966 383 del 400;
#X obj 1021 383 del 500;
#X obj 743 350 metro 600;
#X msg 855 406 83 90;
#X msg 966 406 83 90;
#X text 741 291 #11 repeated sxts;
#X obj 43 569 tgl 15 0 empty empty empty 17 7 0 10 -262144 -1 -1 0
1;
#X obj 43 667 s tomidi;
#X obj 99 667 s tomidi;
#X obj 81 548 r reset;
#X msg 81 568 0;
#X obj 155 667 s tomidi;
#X obj 210 667 s tomidi;
#X text 40 531 #12 Motif;
#X obj 43 548 r b12;
#X obj 20 740 s b12;
#X msg 43 646 77 180;
#X msg 99 646 79 180;
#X msg 155 646 83 1580;
#X msg 210 646 84 300;
#X obj 99 623 del 200;
#X obj 155 623 del 400;
#X obj 210 623 del 2000;
#X obj 43 590 metro 2400;
#X obj 293 569 tgl 15 0 empty empty empty 17 7 0 10 -262144 -1 -1 0
1;
#X obj 293 667 s tomidi;
#X obj 349 667 s tomidi;
#X obj 331 548 r reset;
#X msg 331 568 0;
#X obj 405 667 s tomidi;
#X obj 460 667 s tomidi;
#X msg 349 646 79 180;
#X obj 405 623 del 400;
#X obj 293 590 metro 2400;
#X text 290 531 #13 Motif 2;
#X obj 293 548 r b13;
#X obj 270 740 s b13;
#X obj 515 667 s tomidi;
#X obj 570 667 s tomidi;
#X obj 349 623 del 100;
#X msg 293 646 83 90;
#X msg 405 646 79 90;
#X obj 460 623 del 500;
#X msg 460 646 77 90;
#X obj 515 623 del 600;
#X msg 515 646 79 180;
#X msg 570 646 79 1480;
#X obj 570 623 del 1100;
#X obj 649 569 tgl 15 0 empty empty empty 17 7 0 10 -262144 -1 -1 0
1;
#X obj 649 667 s tomidi;
#X obj 705 667 s tomidi;
#X obj 687 548 r reset;
#X msg 687 568 0;
#X obj 761 667 s tomidi;
#X obj 816 667 s tomidi;
#X obj 649 548 r b14;
#X obj 626 740 s b14;
#X text 646 531 #14 Whole Notes;
#X obj 649 590 metro 6400;
#X obj 705 623 del 1600;
#X obj 761 623 del 3200;
#X obj 816 623 del 4800;
#X msg 649 646 84 1580;
#X msg 705 646 83 1580;
#X msg 761 646 79 1580;
#X msg 816 646 78 1580;
#X obj 896 569 tgl 15 0 empty empty empty 17 7 0 10 -262144 -1 -1 0
1;
#X obj 905 637 s tomidi;
#X obj 934 548 r reset;
#X msg 934 568 0;
#X text 893 531 #15 Isolated G;
#X obj 896 548 r b15;
#X obj 896 710 s b15;
#X obj 896 590 metro 1600;
#X msg 905 616 79 90;
#X obj 1059 569 tgl 15 0 empty empty empty 17 7 0 10 -262144 -1 -1
0 1;
#X obj 1059 667 s tomidi;
#X obj 1115 667 s tomidi;
#X obj 1097 548 r reset;
#X msg 1097 568 0;
#X obj 1171 667 s tomidi;
#X obj 1226 667 s tomidi;
#X text 1056 531 #16 Sixteenths pt 1;
#X obj 1059 548 r b16;
#X obj 1036 740 s b16;
#X obj 1059 590 metro 400;
#X obj 1115 623 del 100;
#X obj 1171 623 del 200;
#X obj 1226 623 del 300;
#X msg 1059 646 79 90;
#X msg 1115 646 83 90;
#X msg 1226 646 83 90;
#X obj 43 809 tgl 15 0 empty empty empty 17 7 0 10 -262144 -1 -1 0
1;
#X obj 43 907 s tomidi;
#X obj 99 907 s tomidi;
#X obj 81 788 r reset;
#X msg 81 808 0;
#X obj 155 907 s tomidi;
#X obj 210 907 s tomidi;
#X obj 265 907 s tomidi;
#X obj 99 863 del 100;
#X msg 43 886 83 90;
#X text 40 771 # 17 Sixteenths pt 2;
#X obj 43 830 metro 600;
#X obj 155 863 del 200;
#X obj 210 863 del 300;
#X obj 265 863 del 400;
#X msg 99 886 84 90;
#X msg 155 886 83 90;
#X msg 210 886 84 90;
#X msg 265 886 83 90;
#X obj 20 980 s b17;
#X obj 43 788 r b17;
#X obj 343 809 tgl 15 0 empty empty empty 17 7 0 10 -262144 -1 -1 0
1;
#X obj 343 907 s tomidi;
#X obj 399 907 s tomidi;
#X obj 381 788 r reset;
#X msg 381 808 0;
#X obj 455 907 s tomidi;
#X obj 510 907 s tomidi;
#X obj 565 907 s tomidi;
#X obj 620 907 s tomidi;
#X obj 399 863 del 100;
#X text 340 771 #18 Sixteenths pt 3;
#X obj 343 788 r b18;
#X obj 320 980 s b18;
#X obj 343 830 metro 800;
#X obj 455 863 del 200;
#X obj 510 863 del 300;
#X obj 565 863 del 400;
#X obj 620 863 del 700;
#X msg 343 886 76 90;
#X msg 399 886 78 90;
#X msg 455 886 76 90;
#X msg 510 886 78 90;
#X msg 565 886 76 280;
#X obj 703 809 tgl 15 0 empty empty empty 17 7 0 10 -262144 -1 -1 0
1;
#X obj 712 897 s tomidi;
#X obj 741 788 r reset;
#X msg 741 808 0;
#X text 700 771 #19 Isolated G;
#X obj 703 788 r b19;
#X obj 703 970 s b19;
#X obj 703 830 metro 1200;
#X obj 712 855 del 600;
#X msg 712 876 91 580;
#X obj 873 809 tgl 15 0 empty empty empty 17 7 0 10 -262144 -1 -1 0
1;
#X obj 873 907 s tomidi;
#X obj 929 907 s tomidi;
#X obj 911 788 r reset;
#X msg 911 808 0;
#X obj 985 907 s tomidi;
#X obj 1040 907 s tomidi;
#X obj 1095 907 s tomidi;
#X obj 1150 907 s tomidi;
#X obj 929 863 del 100;
#X obj 985 863 del 200;
#X obj 1040 863 del 300;
#X obj 1095 863 del 400;
#X msg 873 886 76 90;
#X msg 929 886 78 90;
#X msg 985 886 76 90;
#X msg 1040 886 78 90;
#X msg 1150 886 76 80;
#X text 870 771 #20 Sixteenths pt 4;
#X obj 850 980 s b20;
#X obj 995 977 s tomidi;
#X obj 1050 977 s tomidi;
#X obj 1105 977 s tomidi;
#X obj 1160 977 s tomidi;
#X msg 1160 956 76 80;
#X obj 1150 863 del 700;
#X obj 995 933 del 800;
#X obj 1050 933 del 900;
#X obj 1105 933 del 1000;
#X obj 1160 933 del 1100;
#X msg 995 956 78 90;
#X msg 1050 956 76 90;
#X msg 1105 956 78 280;
#X obj 873 830 metro 1200;
#X obj 22 1049 tgl 15 0 empty empty empty 17 7 0 10 -262144 -1 -1 0
1;
#X obj 31 1117 s tomidi;
#X obj 60 1028 r reset;
#X msg 60 1048 0;
#X text 19 1011 #21 Isolated F#;
#X obj 22 1028 r b21;
#X obj 22 1190 s b21;
#X obj 22 1070 metro 1200;
#X msg 31 1096 78 1180;
#X obj 193 1049 tgl 15 0 empty empty empty 17 7 0 10 -262144 -1 -1
0 1;
#X obj 193 1147 s tomidi;
#X obj 249 1147 s tomidi;
#X obj 231 1028 r reset;
#X msg 231 1048 0;
#X obj 305 1147 s tomidi;
#X obj 360 1147 s tomidi;
#X obj 415 1147 s tomidi;
#X obj 470 1147 s tomidi;
#X obj 333 1217 s tomidi;
#X obj 388 1217 s tomidi;
#X obj 443 1217 s tomidi;
#X text 190 1011 #22 6/8 Transition pt 1;
#X obj 170 1220 s b22;
#X obj 1293 1905 vsl 15 1280 0 127 0 0 empty empty empty 0 -9 0 10
-262144 -1 -1 0 1;
#X obj 193 1070 metro 5000;
#X obj 249 1103 del 600;
#X obj 305 1103 del 1200;
#X obj 360 1103 del 1800;
#X obj 415 1103 del 2400;
#X obj 470 1103 del 3000;
#X obj 333 1173 del 3600;
#X obj 388 1173 del 4200;
#X obj 443 1173 del 4800;
#X msg 193 1126 76 580;
#X msg 249 1126 76 580;
#X msg 305 1126 76 580;
#X msg 360 1126 76 580;
#X msg 415 1126 76;
#X msg 415 1126 76 580;
#X msg 470 1126 78 580;
#X msg 333 1196 79 580;
#X msg 388 1196 81 580;
#X msg 443 1196 83 180;
#X obj 553 1059 tgl 15 0 empty empty empty 17 7 0 10 -262144 -1 -1
0 1;
#X obj 553 1157 s tomidi;
#X obj 609 1157 s tomidi;
#X obj 591 1038 r reset;
#X msg 591 1058 0;
#X obj 665 1157 s tomidi;
#X obj 720 1157 s tomidi;
#X obj 775 1157 s tomidi;
#X obj 830 1157 s tomidi;
#X obj 693 1227 s tomidi;
#X obj 748 1227 s tomidi;
#X obj 803 1227 s tomidi;
#X msg 553 1136 76 580;
#X msg 830 1136 78 580;
#X msg 748 1206 81 580;
#X obj 609 1113 del 200;
#X obj 665 1113 del 800;
#X obj 720 1113 del 1400;
#X obj 775 1113 del 2000;
#X obj 830 1113 del 2600;
#X obj 693 1183 del 3200;
#X obj 748 1183 del 3800;
#X obj 803 1183 del 4400;
#X msg 803 1206 83 380;
#X msg 609 1136 78 580;
#X msg 665 1136 78 580;
#X msg 720 1136 78 580;
#X msg 775 1136 78 580;
#X msg 693 1206 79 580;
#X text 550 1021 #23 6/8 Transition pt 2;
#X obj 193 1028 r b22;
#X obj 553 1038 r b23;
#X obj 530 1230 s b23;
#X obj 907 1059 tgl 15 0 empty empty empty 17 7 0 10 -262144 -1 -1
0 1;
#X obj 907 1157 s tomidi;
#X obj 963 1157 s tomidi;
#X obj 945 1038 r reset;
#X msg 945 1058 0;
#X obj 1019 1157 s tomidi;
#X obj 1074 1157 s tomidi;
#X obj 1129 1157 s tomidi;
#X obj 1184 1157 s tomidi;
#X obj 1047 1227 s tomidi;
#X obj 1102 1227 s tomidi;
#X obj 1157 1227 s tomidi;
#X msg 1102 1206 81 580;
#X obj 963 1113 del 200;
#X msg 1047 1206 79 580;
#X text 904 1021 #24 6/8 Transition pt 3;
#X obj 907 1038 r b24;
#X obj 884 1230 s b24;
#X obj 553 1080 metro 4800;
#X obj 907 1080 metro 4200;
#X obj 1157 1183 del 4000;
#X msg 1157 1206 83 180;
#X msg 907 1136 76 180;
#X msg 963 1136 78 180;
#X msg 1019 1136 79 580;
#X obj 1019 1113 del 400;
#X obj 1074 1113 del 1000;
#X obj 1129 1113 del 1600;
#X obj 1184 1113 del 2200;
#X obj 1047 1183 del 2800;
#X obj 1102 1183 del 3400;
#X msg 1074 1136 79 580;
#X msg 1129 1136 79 580;
#X msg 1184 1136 79 580;
#X obj 47 1289 tgl 15 0 empty empty empty 17 7 0 10 -262144 -1 -1 0
1;
#X obj 47 1387 s tomidi;
#X obj 103 1387 s tomidi;
#X obj 85 1268 r reset;
#X msg 85 1288 0;
#X obj 159 1387 s tomidi;
#X obj 214 1387 s tomidi;
#X obj 269 1387 s tomidi;
#X obj 324 1387 s tomidi;
#X obj 187 1457 s tomidi;
#X obj 242 1457 s tomidi;
#X obj 297 1457 s tomidi;
#X msg 242 1436 81 580;
#X obj 47 1310 metro 4200;
#X msg 47 1366 76 180;
#X msg 103 1366 78 180;
#X obj 159 1343 del 400;
#X obj 47 1268 r b25;
#X obj 24 1460 s b25;
#X obj 103 1343 del 200;
#X obj 214 1343 del 600;
#X obj 269 1343 del 1200;
#X obj 324 1343 del 1800;
#X obj 187 1413 del 2400;
#X obj 242 1413 del 3000;
#X obj 297 1413 del 3600;
#X msg 159 1366 79 180;
#X msg 297 1436 83 580;
#X msg 214 1366 81 580;
#X msg 269 1366 81 580;
#X msg 324 1366 81 580;
#X msg 187 1436 81 580;
#X text 44 1251 #25 6/8 Transition pt 4;
#X obj 403 1289 tgl 15 0 empty empty empty 17 7 0 10 -262144 -1 -1
0 1;
#X obj 403 1387 s tomidi;
#X obj 459 1387 s tomidi;
#X obj 441 1268 r reset;
#X msg 441 1288 0;
#X obj 515 1387 s tomidi;
#X obj 570 1387 s tomidi;
#X obj 625 1387 s tomidi;
#X obj 680 1387 s tomidi;
#X obj 543 1457 s tomidi;
#X obj 598 1457 s tomidi;
#X obj 653 1457 s tomidi;
#X msg 403 1366 76 180;
#X msg 459 1366 78 180;
#X obj 515 1343 del 400;
#X obj 459 1343 del 200;
#X obj 570 1343 del 600;
#X msg 515 1366 79 180;
#X msg 653 1436 83 580;
#X text 400 1251 #26 6/8 Transition pt 5;
#X obj 380 1460 s b26;
#X msg 570 1366 81 180;
#X obj 625 1343 del 800;
#X obj 403 1310 metro 3800;
#X msg 625 1366 83 580;
#X msg 680 1366 83 580;
#X msg 543 1436 83 580;
#X msg 598 1436 83 580;
#X obj 680 1343 del 1400;
#X obj 543 1413 del 2000;
#X obj 598 1413 del 2600;
#X obj 653 1413 del 3200;
#X obj 823 1289 tgl 15 0 empty empty empty 17 7 0 10 -262144 -1 -1
0 1;
#X obj 823 1387 s tomidi;
#X obj 879 1387 s tomidi;
#X obj 861 1268 r reset;
#X msg 861 1288 0;
#X obj 935 1387 s tomidi;
#X obj 990 1387 s tomidi;
#X obj 1045 1387 s tomidi;
#X obj 1100 1387 s tomidi;
#X obj 879 1343 del 100;
#X obj 935 1343 del 200;
#X obj 990 1343 del 300;
#X obj 1045 1343 del 400;
#X msg 823 1366 76 90;
#X msg 879 1366 78 90;
#X msg 935 1366 76 90;
#X msg 990 1366 78 90;
#X obj 945 1457 s tomidi;
#X obj 1000 1457 s tomidi;
#X obj 1055 1457 s tomidi;
#X obj 1110 1457 s tomidi;
#X msg 1110 1436 76 80;
#X obj 945 1413 del 800;
#X obj 1000 1413 del 900;
#X obj 1055 1413 del 1000;
#X obj 1110 1413 del 1100;
#X msg 945 1436 78 90;
#X msg 1000 1436 76 90;
#X msg 1055 1436 78 280;
#X obj 823 1310 metro 1200;
#X obj 873 788 r b20;
#X text 820 1251 #27 -reprise 20;
#X obj 800 1460 s b27;
#X obj 1155 1387 s tomidi;
#X obj 1155 1343 del 700;
#X obj 1100 1343 del 600;
#X msg 1100 1366 76 80;
#X msg 1045 1366 79 180;
#X msg 1155 1366 79 80;
#X obj 823 1268 r b27;
#X obj 63 1529 tgl 15 0 empty empty empty 17 7 0 10 -262144 -1 -1 0
1;
#X obj 63 1627 s tomidi;
#X obj 119 1627 s tomidi;
#X obj 101 1508 r reset;
#X msg 101 1528 0;
#X obj 175 1627 s tomidi;
#X obj 230 1627 s tomidi;
#X obj 285 1627 s tomidi;
#X obj 340 1627 s tomidi;
#X obj 119 1583 del 100;
#X obj 175 1583 del 200;
#X obj 230 1583 del 300;
#X obj 285 1583 del 400;
#X msg 63 1606 76 90;
#X msg 119 1606 78 90;
#X msg 175 1606 76 90;
#X msg 230 1606 78 90;
#X msg 340 1606 76 80;
#X obj 340 1583 del 700;
#X text 60 1492 #28 reprise shorter;
#X obj 63 1508 r b28;
#X obj 40 1700 s b28;
#X obj 63 1550 metro 800;
#X msg 285 1606 76 280;
#X obj 423 1529 tgl 15 0 empty empty empty 17 7 0 10 -262144 -1 -1
0 1;
#X obj 423 1627 s tomidi;
#X obj 479 1627 s tomidi;
#X obj 461 1508 r reset;
#X msg 461 1528 0;
#X obj 535 1627 s tomidi;
#X obj 423 1508 r b29;
#X obj 400 1700 s b29;
#X obj 479 1583 del 1200;
#X obj 535 1583 del 2400;
#X obj 423 1550 metro 3600;
#X msg 423 1606 76 1180;
#X msg 479 1606 79 1180;
#X msg 535 1606 84 1180;
#X text 420 1492 #29 long notes C chord;
#X obj 603 1529 tgl 15 0 empty empty empty 17 7 0 10 -262144 -1 -1
0 1;
#X obj 612 1596 s tomidi;
#X obj 641 1508 r reset;
#X msg 641 1528 0;
#X text 600 1491 #30 C .whole;
#X obj 603 1508 r b30;
#X obj 603 1669 s b30;
#X obj 603 1549 metro 2400;
#X msg 612 1575 84 2380;
#X obj 773 1529 tgl 15 0 empty empty empty 17 7 0 10 -262144 -1 -1
0 1;
#X obj 773 1627 s tomidi;
#X obj 829 1627 s tomidi;
#X obj 811 1508 r reset;
#X msg 811 1528 0;
#X obj 885 1627 s tomidi;
#X obj 940 1627 s tomidi;
#X obj 995 1627 s tomidi;
#X obj 1050 1627 s tomidi;
#X obj 829 1583 del 100;
#X obj 885 1583 del 200;
#X obj 940 1583 del 300;
#X obj 995 1583 del 400;
#X text 770 1492 #31 3/8 sixtheenths;
#X obj 1050 1583 del 500;
#X obj 773 1550 metro 600;
#X msg 773 1606 79 90;
#X msg 829 1606 77 90;
#X msg 885 1606 79 90;
#X msg 940 1606 83 90;
#X msg 995 1606 79 90;
#X msg 1050 1606 83 90;
#X msg 620 886 76 90;
#X obj 773 1508 r b31;
#X obj 750 1700 s b31;
#X obj 63 1769 tgl 15 0 empty empty empty 17 7 0 10 -262144 -1 -1 0
1;
#X obj 63 1867 s tomidi;
#X obj 119 1867 s tomidi;
#X obj 101 1748 r reset;
#X msg 101 1768 0;
#X obj 175 1867 s tomidi;
#X obj 230 1867 s tomidi;
#X obj 178 1935 s tomidi;
#X obj 233 1935 s tomidi;
#X obj 119 1823 del 100;
#X obj 175 1823 del 200;
#X obj 230 1823 del 300;
#X obj 178 1891 del 400;
#X obj 233 1891 del 500;
#X text 60 1732 #32 3/8 elaboration;
#X obj 63 1748 r b32;
#X obj 40 1940 s b32;
#X obj 63 1790 metro 2400;
#X msg 63 1846 77 90;
#X msg 119 1846 79 90;
#X msg 175 1846 77 90;
#X msg 230 1846 79 90;
#X msg 178 1914 83 90;
#X msg 233 1914 77 1280;
#X obj 288 1935 s tomidi;
#X obj 288 1891 del 1800;
#X msg 288 1914 79 580;
#X obj 372 1769 tgl 15 0 empty empty empty 17 7 0 10 -262144 -1 -1
0 1;
#X obj 395 1855 s tomidi;
#X obj 451 1855 s tomidi;
#X obj 410 1748 r reset;
#X msg 410 1768 0;
#X obj 451 1811 del 100;
#X text 369 1732 #33 Sixteenths transition;
#X obj 372 1748 r b33;
#X obj 372 1928 s b33;
#X obj 372 1790 metro 400;
#X msg 395 1834 79 90;
#X msg 451 1834 77 90;
#X obj 542 1769 tgl 15 0 empty empty empty 17 7 0 10 -262144 -1 -1
0 1;
#X obj 565 1855 s tomidi;
#X obj 621 1855 s tomidi;
#X obj 580 1748 r reset;
#X msg 580 1768 0;
#X obj 621 1811 del 100;
#X msg 565 1834 79 90;
#X msg 621 1834 77 90;
#X text 539 1732 #34 Sixteenths transition 2;
#X obj 542 1748 r b34;
#X obj 542 1928 s b34;
#X obj 542 1790 metro 200;
#X obj 733 1769 tgl 15 0 empty empty empty 17 7 0 10 -262144 -1 -1
0 1;
#X obj 733 1867 s tomidi;
#X obj 789 1867 s tomidi;
#X obj 771 1748 r reset;
#X msg 771 1768 0;
#X obj 845 1799 s tomidi;
#X obj 900 1799 s tomidi;
#X obj 955 1799 s tomidi;
#X obj 1010 1799 s tomidi;
#X obj 789 1823 del 100;
#X obj 845 1755 del 200;
#X obj 900 1755 del 300;
#X obj 955 1755 del 400;
#X obj 1010 1755 del 500;
#X text 730 1732 #35 Gigantic Melody;
#X obj 733 1748 r b35;
#X obj 710 1940 s b35;
#X obj 1065 1799 s tomidi;
#X obj 1120 1799 s tomidi;
#X obj 1175 1799 s tomidi;
#X obj 1230 1799 s tomidi;
#X obj 855 1869 s tomidi;
#X obj 910 1869 s tomidi;
#X obj 965 1869 s tomidi;
#X obj 1020 1869 s tomidi;
#X obj 1075 1869 s tomidi;
#X obj 1130 1869 s tomidi;
#X obj 1185 1869 s tomidi;
#X obj 1240 1869 s tomidi;
#X obj 865 1939 s tomidi;
#X obj 920 1939 s tomidi;
#X obj 975 1939 s tomidi;
#X obj 1030 1939 s tomidi;
#X obj 733 1790 metro 13200;
#X obj 1065 1755 del 600;
#X obj 1120 1755 del 700;
#X obj 1175 1755 del 800;
#X obj 1230 1755 del 900;
#X obj 855 1825 del 2400;
#X obj 910 1825 del 2800;
#X obj 965 1825 del 4000;
#X obj 1020 1825 del 4200;
#X obj 1075 1825 del 4600;
#X obj 1130 1825 del 4800;
#X obj 1185 1825 del 5400;
#X obj 865 1895 del 7200;
#X obj 920 1895 del 7400;
#X obj 975 1895 del 9800;
#X obj 1030 1895 del 10800;
#X msg 733 1846 77 90;
#X msg 789 1846 79 90;
#X msg 845 1778 83 90;
#X msg 900 1778 79 90;
#X msg 955 1778 83 90;
#X msg 1010 1778 79 90;
#X msg 1065 1778 83 90;
#X msg 1120 1778 79 90;
#X msg 1175 1778 83 90;
#X msg 1230 1778 79 90;
#X msg 855 1848 82 180;
#X msg 910 1848 91 1180;
#X msg 965 1848 93 180;
#X msg 1020 1848 91 380;
#X msg 1075 1848 95 180;
#X msg 1130 1848 93 280;
#X msg 1185 1848 91 180;
#X msg 1240 1848 88 1180;
#X msg 865 1918 91 180;
#X msg 920 1918 90 1380;
#X msg 975 1918 88 980;
#X msg 1030 1918 89 1180;
#X obj 76 2010 tgl 15 0 empty empty empty 17 7 0 10 -262144 -1 -1 0
1;
#X obj 76 2108 s tomidi;
#X obj 132 2108 s tomidi;
#X obj 114 1989 r reset;
#X msg 114 2009 0;
#X obj 132 2064 del 100;
#X msg 132 2087 79 90;
#X msg 76 2087 77 90;
#X obj 188 2108 s tomidi;
#X obj 243 2108 s tomidi;
#X msg 243 2087 79 90;
#X obj 299 2108 s tomidi;
#X obj 354 2108 s tomidi;
#X msg 354 2087 79 90;
#X obj 188 2064 del 200;
#X obj 243 2064 del 300;
#X obj 299 2064 del 400;
#X obj 354 2064 del 500;
#X obj 76 2031 metro 600;
#X msg 188 2087 83 90;
#X msg 299 2087 83 90;
#X text 74 1972 #36 reprise 11;
#X obj 76 1989 r b36;
#X obj 53 2181 s b36;
#X obj 409 2020 tgl 15 0 empty empty empty 17 7 0 10 -262144 -1 -1
0 1;
#X obj 432 2106 s tomidi;
#X obj 488 2106 s tomidi;
#X obj 447 1999 r reset;
#X msg 447 2019 0;
#X obj 488 2062 del 100;
#X obj 409 2041 metro 200;
#X text 406 1982 #37 Sixteenths trns rep;
#X obj 409 1999 r b37;
#X obj 409 2179 s b37;
#X msg 432 2085 77 90;
#X msg 488 2085 79 90;
#X obj 739 2020 tgl 15 0 empty empty empty 17 7 0 10 -262144 -1 -1
0 1;
#X obj 762 2106 s tomidi;
#X obj 818 2106 s tomidi;
#X obj 777 1999 r reset;
#X msg 777 2019 0;
#X obj 818 2062 del 100;
#X msg 818 2085 79 90;
#X obj 878 2106 s tomidi;
#X obj 878 2062 del 200;
#X text 736 1982 #39 Sixteenths trns rep 3;
#X obj 739 1999 r b39;
#X obj 739 2179 s b39;
#X msg 762 2085 83 90;
#X obj 935 2106 s tomidi;
#X obj 878 2172 s tomidi;
#X obj 934 2172 s tomidi;
#X obj 549 2020 tgl 15 0 empty empty empty 17 7 0 10 -262144 -1 -1
0 1;
#X obj 572 2106 s tomidi;
#X obj 628 2106 s tomidi;
#X obj 587 1999 r reset;
#X msg 587 2019 0;
#X obj 628 2062 del 100;
#X msg 572 2085 77 90;
#X msg 628 2085 79 90;
#X text 546 1982 #38 Sixteenths trns rep2;
#X obj 549 2179 s b38;
#X obj 549 2041 metro 300;
#X obj 683 2106 s tomidi;
#X obj 683 2062 del 200;
#X msg 683 2085 83 90;
#X obj 549 1999 r b38;
#X obj 935 2062 del 300;
#X obj 878 2128 del 400;
#X obj 934 2128 del 500;
#X obj 739 2041 metro 600;
#X msg 878 2085 77 90;
#X msg 935 2085 79 90;
#X msg 878 2151 83 90;
#X msg 934 2151 84 90;
#X obj 989 2020 tgl 15 0 empty empty empty 17 7 0 10 -262144 -1 -1
0 1;
#X obj 1012 2106 s tomidi;
#X obj 1068 2106 s tomidi;
#X obj 1027 1999 r reset;
#X msg 1027 2019 0;
#X obj 1068 2062 del 100;
#X obj 989 2041 metro 200;
#X text 986 1982 #40 BF;
#X obj 989 1999 r b40;
#X obj 989 2179 s b40;
#X msg 1012 2085 83 90;
#X msg 1068 2085 77 90;
#X obj 1129 2020 tgl 15 0 empty empty empty 17 7 0 10 -262144 -1 -1
0 1;
#X obj 1152 2106 s tomidi;
#X obj 1208 2106 s tomidi;
#X obj 1167 1999 r reset;
#X msg 1167 2019 0;
#X obj 1208 2062 del 100;
#X obj 1129 2041 metro 200;
#X msg 1152 2085 83 90;
#X text 1126 1982 #41 BG;
#X msg 1208 2085 79 90;
#X obj 1129 1999 r b41;
#X obj 1129 2179 s b41;
#X obj 76 2260 tgl 15 0 empty empty empty 17 7 0 10 -262144 -1 -1 0
1;
#X obj 76 2358 s tomidi;
#X obj 132 2358 s tomidi;
#X obj 114 2239 r reset;
#X msg 114 2259 0;
#X obj 188 2358 s tomidi;
#X obj 243 2358 s tomidi;
#X text 58 2223 #42 Whole Notes CBAC;
#X obj 76 2239 r b42;
#X obj 53 2431 s b42;
#X obj 76 2281 metro 6400;
#X obj 132 2314 del 1600;
#X obj 188 2314 del 3200;
#X obj 243 2314 del 4800;
#X msg 76 2337 84 1580;
#X msg 132 2337 83 1580;
#X msg 188 2337 81 1580;
#X msg 243 2337 84 1580;
#X obj 339 2260 tgl 15 0 empty empty empty 17 7 0 10 -262144 -1 -1
0 1;
#X obj 339 2351 s tomidi;
#X obj 395 2351 s tomidi;
#X obj 377 2239 r reset;
#X msg 377 2259 0;
#X obj 395 2307 del 100;
#X obj 455 2351 s tomidi;
#X obj 455 2307 del 200;
#X obj 512 2351 s tomidi;
#X obj 568 2351 s tomidi;
#X obj 623 2351 s tomidi;
#X obj 512 2307 del 300;
#X obj 568 2307 del 400;
#X obj 490 2416 s tomidi;
#X obj 546 2416 s tomidi;
#X obj 623 2307 del 600;
#X obj 490 2372 del 800;
#X obj 602 2416 s tomidi;
#X obj 546 2372 del 1000;
#X obj 602 2372 del 1100;
#X msg 339 2330 89 90;
#X msg 395 2330 88 90;
#X msg 455 2330 89 90;
#X msg 512 2330 88 90;
#X msg 568 2330 88 90;
#X msg 623 2330 88 90;
#X msg 490 2395 88 90;
#X msg 546 2395 89 90;
#X msg 602 2395 88 90;
#X text 336 2222 #43 Transitiony;
#X obj 339 2239 r b43;
#X obj 319 2419 s b43;
#X obj 709 2260 tgl 15 0 empty empty empty 17 7 0 10 -262144 -1 -1
0 1;
#X obj 709 2351 s tomidi;
#X obj 765 2351 s tomidi;
#X obj 747 2239 r reset;
#X msg 747 2259 0;
#X obj 825 2351 s tomidi;
#X obj 882 2351 s tomidi;
#X text 706 2222 #44 Slowing;
#X obj 709 2239 r b44;
#X obj 689 2419 s b44;
#X obj 765 2307 del 200;
#X obj 339 2281 metro 1200;
#X obj 825 2307 del 600;
#X obj 882 2307 del 800;
#X msg 709 2330 89 180;
#X msg 765 2330 88 380;
#X msg 825 2330 88 180;
#X msg 882 2330 84 380;
#X obj 709 2281 metro 1200;
#X obj 989 2260 tgl 15 0 empty empty empty 17 7 0 10 -262144 -1 -1
0 1;
#X obj 989 2351 s tomidi;
#X obj 1045 2351 s tomidi;
#X obj 1027 2239 r reset;
#X msg 1027 2259 0;
#X obj 1105 2351 s tomidi;
#X obj 989 2281 metro 1200;
#X text 986 2222 #45 Slowing DDG;
#X obj 989 2239 r b45;
#X obj 969 2419 s b45;
#X msg 989 2330 86 380;
#X msg 1045 2330 86 380;
#X msg 1105 2330 79 380;
#X obj 73 2507 tgl 15 0 empty empty empty 17 7 0 10 -262144 -1 -1 0
1;
#X obj 73 2598 s tomidi;
#X obj 129 2598 s tomidi;
#X obj 111 2486 r reset;
#X msg 111 2506 0;
#X obj 129 2554 del 100;
#X obj 189 2598 s tomidi;
#X obj 189 2554 del 200;
#X obj 246 2598 s tomidi;
#X obj 302 2598 s tomidi;
#X obj 357 2598 s tomidi;
#X obj 246 2554 del 300;
#X obj 192 2663 s tomidi;
#X obj 248 2663 s tomidi;
#X obj 304 2663 s tomidi;
#X text 70 2469 #46 Transitiony;
#X obj 73 2486 r b46;
#X obj 53 2666 s b46;
#X obj 358 2663 s tomidi;
#X obj 414 2663 s tomidi;
#X obj 73 2528 metro 2000;
#X obj 302 2554 del 600;
#X obj 357 2554 del 1000;
#X obj 192 2619 del 1400;
#X obj 248 2619 del 1600;
#X obj 304 2619 del 1700;
#X obj 358 2619 del 1800;
#X obj 414 2619 del 1900;
#X msg 73 2577 79 90;
#X msg 129 2577 86 90;
#X msg 189 2577 88 90;
#X msg 246 2577 86 90;
#X msg 302 2577 79 90;
#X msg 357 2577 79 90;
#X msg 192 2642 79 90;
#X msg 248 2642 79 90;
#X msg 304 2642 86 90;
#X msg 358 2642 88 90;
#X msg 414 2642 86 90;
#X obj 509 2500 tgl 15 0 empty empty empty 17 7 0 10 -262144 -1 -1
0 1;
#X obj 509 2591 s tomidi;
#X obj 565 2591 s tomidi;
#X obj 547 2479 r reset;
#X msg 547 2499 0;
#X obj 625 2591 s tomidi;
#X obj 509 2521 metro 400;
#X text 506 2462 #47;
#X obj 509 2479 r b47;
#X obj 489 2659 s b47;
#X obj 565 2547 del 100;
#X obj 625 2547 del 200;
#X msg 625 2570 86 180;
#X msg 509 2570 86 90;
#X msg 565 2570 88 90;
#X obj 709 2500 tgl 15 0 empty empty empty 17 7 0 10 -262144 -1 -1
0 1;
#X obj 709 2591 s tomidi;
#X obj 765 2591 s tomidi;
#X obj 747 2479 r reset;
#X msg 747 2499 0;
#X obj 825 2591 s tomidi;
#X obj 831 2656 s tomidi;
#X text 706 2462 #48;
#X obj 709 2479 r b48;
#X obj 689 2659 s b48;
#X obj 765 2547 del 2400;
#X obj 825 2547 del 4000;
#X obj 831 2612 del 5600;
#X obj 709 2521 metro 6000;
#X msg 831 2635 77 380;
#X msg 709 2570 79 2380;
#X msg 765 2570 79 1580;
#X msg 825 2570 77 1580;
#X obj 928 2490 tgl 15 0 empty empty empty 17 7 0 10 -262144 -1 -1
0 1;
#X obj 928 2588 s tomidi;
#X obj 984 2588 s tomidi;
#X obj 966 2469 r reset;
#X msg 966 2489 0;
#X obj 984 2544 del 100;
#X msg 984 2567 79 90;
#X msg 928 2567 77 90;
#X obj 1040 2588 s tomidi;
#X obj 1095 2588 s tomidi;
#X msg 1095 2567 79 90;
#X obj 1151 2588 s tomidi;
#X obj 1206 2588 s tomidi;
#X msg 1206 2567 79 90;
#X obj 1040 2544 del 200;
#X obj 1095 2544 del 300;
#X obj 1151 2544 del 400;
#X obj 1206 2544 del 500;
#X obj 928 2511 metro 600;
#X text 926 2452 #49 reprise 11;
#X obj 928 2469 r b49;
#X obj 905 2661 s b49;
#X msg 1040 2567 82 90;
#X msg 1151 2567 82 90;
#X obj 88 2730 tgl 15 0 empty empty empty 17 7 0 10 -262144 -1 -1 0
1;
#X obj 88 2828 s tomidi;
#X obj 144 2828 s tomidi;
#X obj 126 2709 r reset;
#X msg 126 2729 0;
#X obj 144 2784 del 100;
#X msg 144 2807 79 90;
#X msg 88 2807 77 90;
#X text 86 2692 #50;
#X obj 88 2709 r b50;
#X obj 65 2901 s b50;
#X obj 88 2751 metro 200;
#X obj 228 2730 tgl 15 0 empty empty empty 17 7 0 10 -262144 -1 -1
0 1;
#X obj 228 2828 s tomidi;
#X obj 284 2828 s tomidi;
#X obj 266 2709 r reset;
#X msg 266 2729 0;
#X obj 284 2784 del 100;
#X msg 284 2807 79 90;
#X msg 228 2807 77 90;
#X obj 340 2828 s tomidi;
#X obj 228 2751 metro 300;
#X obj 340 2784 del 300;
#X msg 340 2807 82 90;
#X text 226 2692 #51;
#X obj 228 2709 r b51;
#X obj 205 2901 s b51;
#X obj 418 2730 tgl 15 0 empty empty empty 17 7 0 10 -262144 -1 -1
0 1;
#X obj 418 2828 s tomidi;
#X obj 474 2828 s tomidi;
#X obj 456 2709 r reset;
#X msg 456 2729 0;
#X obj 474 2784 del 100;
#X text 416 2692 #52;
#X obj 418 2709 r b52;
#X obj 395 2901 s b52;
#X obj 418 2751 metro 200;
#X msg 418 2807 79 90;
#X msg 474 2807 82 90;
#X obj 558 2730 tgl 15 0 empty empty empty 17 7 0 10 -262144 -1 -1
0 1;
#X obj 558 2828 s tomidi;
#X obj 614 2828 s tomidi;
#X obj 596 2709 r reset;
#X msg 596 2729 0;
#X obj 614 2784 del 100;
#X obj 558 2751 metro 200;
#X text 556 2692 #53;
#X msg 558 2807 82 90;
#X msg 614 2807 79 90;
#X obj 403 1268 r b26;
#X msg 1061 154 84 1580;
#X msg 1117 154 84 1580;
#X obj 63 202 inccountdown 30 7;
#X obj 460 202 inccountdown 30 7;
#X obj 663 202 inccountdown 30 7;
#X obj 853 202 inccountdown 30 7;
#X obj 410 452 inccountdown 30 7;
#X obj 1043 202 inccountdown 10 3;
#X obj 220 452 inccountdown 10 3;
#X obj 20 692 inccountdown 20 5;
#X obj 270 692 inccountdown 20 5;
#X obj 626 692 inccountdown 10 3;
#X obj 320 932 inccountdown 20 5;
#X obj 850 932 inccountdown 20 5;
#X obj 22 1142 inccountdown 15 4;
#X obj 170 1172 inccountdown 8 4;
#X obj 530 1182 inccountdown 8 4;
#X obj 884 1182 inccountdown 8 4;
#X obj 24 1412 inccountdown 8 4;
#X obj 380 1412 inccountdown 8 4;
#X obj 800 1412 inccountdown 20 5;
#X obj 40 1652 inccountdown 20 5;
#X obj 400 1652 inccountdown 10 3;
#X obj 603 1621 inccountdown 10 4;
#X obj 750 1652 inccountdown 30 9;
#X obj 40 1892 inccountdown 30 4;
#X obj 372 1880 inccountdown 40 12;
#X obj 542 1880 inccountdown 45 15;
#X obj 53 2133 inccountdown 40 9;
#X obj 409 2131 inccountdown 45 15;
#X obj 710 1892 inccountdown 10 3;
#X obj 549 2131 inccountdown 42 12;
#X obj 739 2131 inccountdown 36 8;
#X obj 989 2131 inccountdown 45 15;
#X obj 1129 2131 inccountdown 45 15;
#X obj 53 2383 inccountdown 20 4;
#X obj 319 2371 inccountdown 25 6;
#X obj 689 2371 inccountdown 27 5;
#X obj 969 2371 inccountdown 27 5;
#X obj 53 2618 inccountdown 22 4;
#X obj 489 2611 inccountdown 38 12;
#X obj 905 2613 inccountdown 40 9;
#X obj 65 2853 inccountdown 40 9;
#X obj 205 2853 inccountdown 37 7;
#X obj 395 2853 inccountdown 42 8;
#X obj 535 2853 inccountdown 42 12;
#X obj 1045 2307 del 400;
#X obj 1105 2307 del 800;
#X obj 689 2611 inccountdown 6 6;
#X obj 1240 1825 del 5600;
#X msg 1171 646 84 90;
#X obj 20 452 inccountdown 25 12;
#X obj 570 452 inccountdown 40 22;
#X obj 720 452 inccountdown 40 16;
#X obj 896 662 inccountdown 20 15;
#X obj 1036 692 inccountdown 40 12;
#X obj 20 932 inccountdown 20 17;
#X obj 703 922 inccountdown 21 7;
#X msg 1095 886 67 280;
#X obj 97 251 del 400;
#X obj 97 272 s b2;
#X obj 242 250 del 800;
#X obj 242 270 s b3;
#X obj 492 250 del 800;
#X obj 492 271 s b4;
#X obj 695 248 del 800;
#X obj 695 269 s b5;
#X obj 885 248 del 800;
#X obj 885 269 s b6;
#X obj 1075 248 del 3200;
#X obj 1075 270 s b7;
#X obj 52 500 del 3600;
#X obj 109 513 s b8;
#X obj 252 500 del 3600;
#X obj 252 523 s b9;
#X obj 442 500 del 1600;
#X obj 442 522 s b10;
#X obj 607 500 del 200;
#X obj 607 520 s b11;
#X obj 757 500 del 600;
#X obj 757 521 s b12;
#X obj 57 740 del 2400;
#X obj 125 751 s b13;
#X obj 307 740 del 2400;
#X obj 306 760 s b14;
#X obj 663 740 del 6400;
#X obj 661 760 s b15;
#X obj 933 710 del 1600;
#X obj 933 730 s b16;
#X obj 1073 740 del 400;
#X obj 1074 761 s b17;
#X obj 57 980 del 600;
#X obj 107 980 s b18;
#X obj 358 980 del 800;
#X obj 358 1001 s b19;
#X obj 741 970 del 600;
#X obj 741 990 s b20;
#X obj 888 980 del 1200;
#X obj 888 1001 s b21;
#X obj 59 1190 del 1200;
#X obj 59 1210 s b22;
#X obj 208 1220 del 5000;
#X obj 219 1240 s b23;
#X obj 568 1230 del 4800;
#X obj 568 1250 s b24;
#X obj 922 1230 del 4200;
#X obj 935 1253 s b25;
#X obj 62 1460 del 4200;
#X obj 119 1465 s b26;
#X obj 418 1460 del 3800;
#X obj 476 1460 s b27;
#X obj 838 1460 del 1200;
#X obj 896 1460 s b28;
#X obj 78 1700 del 800;
#X obj 133 1700 s b29;
#X obj 438 1700 del 3600;
#X obj 492 1700 s b30;
#X obj 641 1669 del 2400;
#X obj 700 1669 s b31;
#X obj 788 1700 del 600;
#X obj 838 1700 s b32;
#X obj 78 1940 del 2400;
#X obj 134 1940 s b33;
#X obj 410 1928 del 400;
#X obj 461 1928 s b34;
#X obj 581 1928 del 200;
#X obj 633 1928 s b35;
#X obj 748 1940 del 13200;
#X obj 810 1940 s b36;
#X obj 90 2181 del 600;
#X obj 140 2181 s b37;
#X obj 447 2179 del 200;
#X obj 498 2179 s b38;
#X obj 587 2179 del 300;
#X obj 639 2179 s b39;
#X obj 777 2179 del 600;
#X obj 827 2179 s b40;
#X obj 1027 2179 del 200;
#X obj 1077 2179 s b41;
#X obj 1167 2179 del 200;
#X obj 1216 2179 s b42;
#X obj 90 2431 del 6400;
#X obj 146 2431 s b43;
#X obj 357 2419 del 1200;
#X obj 413 2419 s b44;
#X obj 727 2419 del 1200;
#X obj 784 2419 s b45;
#X obj 1007 2419 del 1200;
#X obj 1064 2419 s b46;
#X obj 91 2667 del 2000;
#X obj 147 2667 s b47;
#X obj 527 2659 del 400;
#X obj 577 2659 s b48;
#X obj 727 2659 del 6000;
#X obj 784 2659 s b49;
#X obj 942 2661 del 600;
#X obj 992 2661 s b50;
#X obj 102 2901 del 200;
#X obj 155 2901 s b51;
#X obj 242 2901 del 300;
#X obj 292 2902 s b52;
#X obj 558 2709 r b53;
#X obj 535 2901 s b53;
#X obj 575 2902 s END!;
#X obj 432 2901 del 200;
#X obj 483 2901 s b53;
#X obj 265 3 incmidisender 1;
#X connect 0 0 2 0;
#X connect 1 0 11 0;
#X connect 2 0 25 0;
#X connect 2 0 10 0;
#X connect 2 0 1091 0;
#X connect 4 0 5 0;
#X connect 4 0 1255 0;
#X connect 5 0 6 0;
#X connect 5 1 7 0;
#X connect 10 0 26 0;
#X connect 11 0 64 0;
#X connect 11 0 65 0;
#X connect 11 0 66 0;
#X connect 11 0 1092 0;
#X connect 14 0 16 0;
#X connect 16 0 67 0;
#X connect 16 0 68 0;
#X connect 16 0 69 0;
#X connect 16 0 1093 0;
#X connect 19 0 20 0;
#X connect 22 0 21 0;
#X connect 24 0 0 0;
#X connect 25 0 8 0;
#X connect 26 0 3 0;
#X connect 27 0 9 0;
#X connect 28 0 12 0;
#X connect 29 0 13 0;
#X connect 30 0 15 0;
#X connect 31 0 17 0;
#X connect 32 0 18 0;
#X connect 34 0 19 0;
#X connect 34 0 22 0;
#X connect 36 0 37 0;
#X connect 37 0 0 0;
#X connect 38 0 39 0;
#X connect 39 0 1 0;
#X connect 40 0 41 0;
#X connect 41 0 14 0;
#X connect 42 0 45 0;
#X connect 45 0 54 0;
#X connect 45 0 46 0;
#X connect 45 0 49 0;
#X connect 45 0 50 0;
#X connect 45 0 51 0;
#X connect 46 0 57 0;
#X connect 49 0 55 0;
#X connect 50 0 56 0;
#X connect 51 0 52 0;
#X connect 51 0 1150 0;
#X connect 53 0 42 0;
#X connect 54 0 44 0;
#X connect 55 0 47 0;
#X connect 56 0 48 0;
#X connect 57 0 43 0;
#X connect 58 0 59 0;
#X connect 59 0 42 0;
#X connect 60 0 1 0;
#X connect 61 0 14 0;
#X connect 64 0 27 0;
#X connect 65 0 28 0;
#X connect 66 0 29 0;
#X connect 67 0 30 0;
#X connect 68 0 31 0;
#X connect 69 0 32 0;
#X connect 74 0 76 0;
#X connect 76 0 79 0;
#X connect 76 0 84 0;
#X connect 76 0 85 0;
#X connect 76 0 1094 0;
#X connect 79 0 75 0;
#X connect 80 0 77 0;
#X connect 81 0 78 0;
#X connect 82 0 83 0;
#X connect 83 0 74 0;
#X connect 84 0 80 0;
#X connect 85 0 81 0;
#X connect 86 0 95 0;
#X connect 89 0 90 0;
#X connect 90 0 86 0;
#X connect 91 0 74 0;
#X connect 92 0 86 0;
#X connect 95 0 1089 0;
#X connect 95 0 96 0;
#X connect 95 0 1096 0;
#X connect 96 0 1090 0;
#X connect 97 0 111 0;
#X connect 101 0 102 0;
#X connect 102 0 97 0;
#X connect 103 0 97 0;
#X connect 105 0 108 0;
#X connect 106 0 109 0;
#X connect 107 0 110 0;
#X connect 108 0 98 0;
#X connect 109 0 99 0;
#X connect 110 0 100 0;
#X connect 111 0 105 0;
#X connect 111 0 106 0;
#X connect 111 0 107 0;
#X connect 111 0 1140 0;
#X connect 115 0 121 0;
#X connect 119 0 120 0;
#X connect 120 0 115 0;
#X connect 121 0 123 0;
#X connect 121 0 124 0;
#X connect 121 0 126 0;
#X connect 121 0 1097 0;
#X connect 123 0 116 0;
#X connect 124 0 125 0;
#X connect 125 0 117 0;
#X connect 126 0 127 0;
#X connect 127 0 118 0;
#X connect 128 0 138 0;
#X connect 131 0 132 0;
#X connect 132 0 128 0;
#X connect 134 0 115 0;
#X connect 135 0 128 0;
#X connect 138 0 140 0;
#X connect 138 0 139 0;
#X connect 138 0 1095 0;
#X connect 139 0 141 0;
#X connect 140 0 129 0;
#X connect 141 0 130 0;
#X connect 142 0 151 0;
#X connect 145 0 146 0;
#X connect 146 0 142 0;
#X connect 147 0 149 0;
#X connect 148 0 143 0;
#X connect 149 0 144 0;
#X connect 151 0 148 0;
#X connect 151 0 147 0;
#X connect 151 0 1141 0;
#X connect 152 0 142 0;
#X connect 154 0 174 0;
#X connect 157 0 158 0;
#X connect 158 0 154 0;
#X connect 159 0 160 0;
#X connect 160 0 156 0;
#X connect 161 0 154 0;
#X connect 163 0 155 0;
#X connect 166 0 165 0;
#X connect 169 0 168 0;
#X connect 170 0 175 0;
#X connect 171 0 166 0;
#X connect 172 0 176 0;
#X connect 173 0 169 0;
#X connect 174 0 163 0;
#X connect 174 0 159 0;
#X connect 174 0 170 0;
#X connect 174 0 171 0;
#X connect 174 0 172 0;
#X connect 174 0 173 0;
#X connect 174 0 1142 0;
#X connect 175 0 164 0;
#X connect 176 0 167 0;
#X connect 178 0 195 0;
#X connect 181 0 182 0;
#X connect 182 0 178 0;
#X connect 186 0 178 0;
#X connect 188 0 179 0;
#X connect 189 0 180 0;
#X connect 190 0 183 0;
#X connect 191 0 184 0;
#X connect 192 0 189 0;
#X connect 193 0 190 0;
#X connect 194 0 191 0;
#X connect 195 0 188 0;
#X connect 195 0 192 0;
#X connect 195 0 193 0;
#X connect 195 0 194 0;
#X connect 195 0 1098 0;
#X connect 196 0 205 0;
#X connect 199 0 200 0;
#X connect 200 0 196 0;
#X connect 203 0 198 0;
#X connect 204 0 213 0;
#X connect 205 0 212 0;
#X connect 205 0 204 0;
#X connect 205 0 211 0;
#X connect 205 0 214 0;
#X connect 205 0 216 0;
#X connect 205 0 219 0;
#X connect 205 0 1099 0;
#X connect 207 0 196 0;
#X connect 211 0 203 0;
#X connect 212 0 197 0;
#X connect 213 0 201 0;
#X connect 214 0 215 0;
#X connect 215 0 202 0;
#X connect 216 0 217 0;
#X connect 217 0 209 0;
#X connect 218 0 210 0;
#X connect 219 0 218 0;
#X connect 220 0 230 0;
#X connect 223 0 224 0;
#X connect 224 0 220 0;
#X connect 227 0 220 0;
#X connect 230 0 234 0;
#X connect 230 0 231 0;
#X connect 230 0 232 0;
#X connect 230 0 233 0;
#X connect 230 0 1100 0;
#X connect 231 0 235 0;
#X connect 232 0 236 0;
#X connect 233 0 237 0;
#X connect 234 0 221 0;
#X connect 235 0 222 0;
#X connect 236 0 225 0;
#X connect 237 0 226 0;
#X connect 238 0 245 0;
#X connect 240 0 241 0;
#X connect 241 0 238 0;
#X connect 243 0 238 0;
#X connect 245 0 246 0;
#X connect 245 0 1143 0;
#X connect 246 0 239 0;
#X connect 247 0 257 0;
#X connect 250 0 251 0;
#X connect 251 0 247 0;
#X connect 255 0 247 0;
#X connect 257 0 261 0;
#X connect 257 0 258 0;
#X connect 257 0 259 0;
#X connect 257 0 260 0;
#X connect 257 0 1144 0;
#X connect 258 0 262 0;
#X connect 259 0 1139 0;
#X connect 260 0 263 0;
#X connect 261 0 248 0;
#X connect 262 0 249 0;
#X connect 263 0 253 0;
#X connect 264 0 275 0;
#X connect 267 0 268 0;
#X connect 268 0 264 0;
#X connect 272 0 279 0;
#X connect 273 0 265 0;
#X connect 275 0 273 0;
#X connect 275 0 272 0;
#X connect 275 0 276 0;
#X connect 275 0 277 0;
#X connect 275 0 278 0;
#X connect 275 0 1145 0;
#X connect 276 0 280 0;
#X connect 277 0 281 0;
#X connect 278 0 282 0;
#X connect 279 0 266 0;
#X connect 280 0 269 0;
#X connect 281 0 270 0;
#X connect 282 0 271 0;
#X connect 284 0 264 0;
#X connect 285 0 298 0;
#X connect 288 0 289 0;
#X connect 289 0 285 0;
#X connect 294 0 304 0;
#X connect 296 0 285 0;
#X connect 298 0 303 0;
#X connect 298 0 294 0;
#X connect 298 0 299 0;
#X connect 298 0 300 0;
#X connect 298 0 301 0;
#X connect 298 0 302 0;
#X connect 298 0 1101 0;
#X connect 299 0 305 0;
#X connect 300 0 306 0;
#X connect 301 0 307 0;
#X connect 302 0 637 0;
#X connect 303 0 286 0;
#X connect 304 0 287 0;
#X connect 305 0 290 0;
#X connect 306 0 291 0;
#X connect 307 0 292 0;
#X connect 308 0 315 0;
#X connect 310 0 311 0;
#X connect 311 0 308 0;
#X connect 313 0 308 0;
#X connect 315 0 316 0;
#X connect 315 0 1146 0;
#X connect 316 0 317 0;
#X connect 317 0 309 0;
#X connect 318 0 351 0;
#X connect 321 0 322 0;
#X connect 322 0 318 0;
#X connect 327 0 332 0;
#X connect 328 0 333 0;
#X connect 329 0 334 0;
#X connect 330 0 1147 0;
#X connect 331 0 319 0;
#X connect 332 0 320 0;
#X connect 333 0 323 0;
#X connect 334 0 324 0;
#X connect 335 0 326 0;
#X connect 342 0 341 0;
#X connect 343 0 335 0;
#X connect 344 0 348 0;
#X connect 345 0 349 0;
#X connect 346 0 350 0;
#X connect 347 0 342 0;
#X connect 348 0 338 0;
#X connect 349 0 339 0;
#X connect 350 0 340 0;
#X connect 351 0 331 0;
#X connect 351 0 327 0;
#X connect 351 0 328 0;
#X connect 351 0 329 0;
#X connect 351 0 330 0;
#X connect 351 0 343 0;
#X connect 351 0 344 0;
#X connect 351 0 345 0;
#X connect 351 0 346 0;
#X connect 351 0 347 0;
#X connect 351 0 1102 0;
#X connect 352 0 359 0;
#X connect 354 0 355 0;
#X connect 355 0 352 0;
#X connect 357 0 352 0;
#X connect 359 0 360 0;
#X connect 359 0 1103 0;
#X connect 360 0 353 0;
#X connect 361 0 376 0;
#X connect 364 0 365 0;
#X connect 365 0 361 0;
#X connect 376 0 385 0;
#X connect 376 0 377 0;
#X connect 376 0 378 0;
#X connect 376 0 379 0;
#X connect 376 0 380 0;
#X connect 376 0 381 0;
#X connect 376 0 382 0;
#X connect 376 0 383 0;
#X connect 376 0 384 0;
#X connect 376 0 1104 0;
#X connect 377 0 386 0;
#X connect 378 0 387 0;
#X connect 379 0 388 0;
#X connect 380 0 389 0;
#X connect 380 0 389 0;
#X connect 381 0 391 0;
#X connect 382 0 392 0;
#X connect 383 0 393 0;
#X connect 384 0 394 0;
#X connect 385 0 362 0;
#X connect 386 0 363 0;
#X connect 387 0 366 0;
#X connect 388 0 367 0;
#X connect 389 0 368 0;
#X connect 389 0 368 0;
#X connect 391 0 369 0;
#X connect 392 0 370 0;
#X connect 393 0 371 0;
#X connect 394 0 372 0;
#X connect 395 0 446 0;
#X connect 398 0 399 0;
#X connect 399 0 395 0;
#X connect 407 0 396 0;
#X connect 408 0 403 0;
#X connect 409 0 405 0;
#X connect 410 0 419 0;
#X connect 411 0 420 0;
#X connect 412 0 421 0;
#X connect 413 0 422 0;
#X connect 414 0 408 0;
#X connect 415 0 423 0;
#X connect 416 0 409 0;
#X connect 417 0 418 0;
#X connect 418 0 406 0;
#X connect 419 0 397 0;
#X connect 420 0 400 0;
#X connect 421 0 401 0;
#X connect 422 0 402 0;
#X connect 423 0 404 0;
#X connect 425 0 361 0;
#X connect 426 0 395 0;
#X connect 428 0 447 0;
#X connect 431 0 432 0;
#X connect 432 0 428 0;
#X connect 440 0 438 0;
#X connect 441 0 451 0;
#X connect 442 0 437 0;
#X connect 444 0 428 0;
#X connect 446 0 407 0;
#X connect 446 0 410 0;
#X connect 446 0 411 0;
#X connect 446 0 412 0;
#X connect 446 0 413 0;
#X connect 446 0 414 0;
#X connect 446 0 415 0;
#X connect 446 0 416 0;
#X connect 446 0 417 0;
#X connect 446 0 1105 0;
#X connect 447 0 450 0;
#X connect 447 0 441 0;
#X connect 447 0 448 0;
#X connect 447 0 453 0;
#X connect 447 0 454 0;
#X connect 447 0 455 0;
#X connect 447 0 456 0;
#X connect 447 0 457 0;
#X connect 447 0 458 0;
#X connect 447 0 1106 0;
#X connect 448 0 449 0;
#X connect 449 0 439 0;
#X connect 450 0 429 0;
#X connect 451 0 430 0;
#X connect 452 0 433 0;
#X connect 453 0 452 0;
#X connect 454 0 459 0;
#X connect 455 0 460 0;
#X connect 456 0 461 0;
#X connect 457 0 442 0;
#X connect 458 0 440 0;
#X connect 459 0 434 0;
#X connect 460 0 435 0;
#X connect 461 0 436 0;
#X connect 462 0 475 0;
#X connect 465 0 466 0;
#X connect 466 0 462 0;
#X connect 474 0 472 0;
#X connect 475 0 476 0;
#X connect 475 0 478 0;
#X connect 475 0 481 0;
#X connect 475 0 482 0;
#X connect 475 0 483 0;
#X connect 475 0 484 0;
#X connect 475 0 485 0;
#X connect 475 0 486 0;
#X connect 475 0 487 0;
#X connect 475 0 1107 0;
#X connect 476 0 463 0;
#X connect 477 0 464 0;
#X connect 478 0 488 0;
#X connect 479 0 462 0;
#X connect 481 0 477 0;
#X connect 482 0 490 0;
#X connect 483 0 491 0;
#X connect 484 0 492 0;
#X connect 485 0 493 0;
#X connect 486 0 474 0;
#X connect 487 0 489 0;
#X connect 488 0 467 0;
#X connect 489 0 473 0;
#X connect 490 0 468 0;
#X connect 491 0 469 0;
#X connect 492 0 470 0;
#X connect 493 0 471 0;
#X connect 495 0 518 0;
#X connect 498 0 499 0;
#X connect 499 0 495 0;
#X connect 507 0 496 0;
#X connect 508 0 497 0;
#X connect 509 0 512 0;
#X connect 510 0 508 0;
#X connect 511 0 516 0;
#X connect 512 0 500 0;
#X connect 513 0 506 0;
#X connect 516 0 501 0;
#X connect 517 0 519 0;
#X connect 518 0 507 0;
#X connect 518 0 509 0;
#X connect 518 0 510 0;
#X connect 518 0 511 0;
#X connect 518 0 517 0;
#X connect 518 0 523 0;
#X connect 518 0 524 0;
#X connect 518 0 525 0;
#X connect 518 0 526 0;
#X connect 518 0 1108 0;
#X connect 519 0 502 0;
#X connect 520 0 503 0;
#X connect 521 0 504 0;
#X connect 522 0 505 0;
#X connect 523 0 520 0;
#X connect 524 0 521 0;
#X connect 525 0 522 0;
#X connect 526 0 513 0;
#X connect 527 0 556 0;
#X connect 530 0 531 0;
#X connect 531 0 527 0;
#X connect 536 0 541 0;
#X connect 537 0 542 0;
#X connect 538 0 543 0;
#X connect 539 0 564 0;
#X connect 540 0 528 0;
#X connect 541 0 529 0;
#X connect 542 0 532 0;
#X connect 543 0 533 0;
#X connect 548 0 547 0;
#X connect 549 0 553 0;
#X connect 550 0 554 0;
#X connect 551 0 555 0;
#X connect 552 0 548 0;
#X connect 553 0 544 0;
#X connect 554 0 545 0;
#X connect 555 0 546 0;
#X connect 556 0 540 0;
#X connect 556 0 536 0;
#X connect 556 0 537 0;
#X connect 556 0 538 0;
#X connect 556 0 539 0;
#X connect 556 0 549 0;
#X connect 556 0 550 0;
#X connect 556 0 551 0;
#X connect 556 0 552 0;
#X connect 556 0 561 0;
#X connect 556 0 562 0;
#X connect 556 0 1109 0;
#X connect 557 0 318 0;
#X connect 561 0 565 0;
#X connect 562 0 563 0;
#X connect 563 0 535 0;
#X connect 564 0 534 0;
#X connect 565 0 560 0;
#X connect 566 0 527 0;
#X connect 567 0 589 0;
#X connect 570 0 571 0;
#X connect 571 0 567 0;
#X connect 576 0 581 0;
#X connect 577 0 582 0;
#X connect 578 0 583 0;
#X connect 579 0 590 0;
#X connect 580 0 568 0;
#X connect 581 0 569 0;
#X connect 582 0 572 0;
#X connect 583 0 573 0;
#X connect 584 0 575 0;
#X connect 585 0 584 0;
#X connect 587 0 567 0;
#X connect 589 0 580 0;
#X connect 589 0 576 0;
#X connect 589 0 577 0;
#X connect 589 0 578 0;
#X connect 589 0 579 0;
#X connect 589 0 585 0;
#X connect 589 0 1110 0;
#X connect 590 0 574 0;
#X connect 591 0 601 0;
#X connect 594 0 595 0;
#X connect 595 0 591 0;
#X connect 597 0 591 0;
#X connect 599 0 603 0;
#X connect 600 0 604 0;
#X connect 601 0 602 0;
#X connect 601 0 599 0;
#X connect 601 0 600 0;
#X connect 601 0 1111 0;
#X connect 602 0 592 0;
#X connect 603 0 593 0;
#X connect 604 0 596 0;
#X connect 606 0 613 0;
#X connect 608 0 609 0;
#X connect 609 0 606 0;
#X connect 611 0 606 0;
#X connect 613 0 614 0;
#X connect 613 0 1112 0;
#X connect 614 0 607 0;
#X connect 615 0 630 0;
#X connect 618 0 619 0;
#X connect 619 0 615 0;
#X connect 624 0 632 0;
#X connect 625 0 633 0;
#X connect 626 0 634 0;
#X connect 627 0 635 0;
#X connect 629 0 636 0;
#X connect 630 0 631 0;
#X connect 630 0 624 0;
#X connect 630 0 625 0;
#X connect 630 0 626 0;
#X connect 630 0 627 0;
#X connect 630 0 629 0;
#X connect 630 0 1113 0;
#X connect 631 0 616 0;
#X connect 632 0 617 0;
#X connect 633 0 620 0;
#X connect 634 0 621 0;
#X connect 635 0 622 0;
#X connect 636 0 623 0;
#X connect 637 0 293 0;
#X connect 638 0 615 0;
#X connect 640 0 657 0;
#X connect 643 0 644 0;
#X connect 644 0 640 0;
#X connect 649 0 659 0;
#X connect 650 0 660 0;
#X connect 651 0 661 0;
#X connect 652 0 662 0;
#X connect 653 0 663 0;
#X connect 655 0 640 0;
#X connect 657 0 658 0;
#X connect 657 0 649 0;
#X connect 657 0 650 0;
#X connect 657 0 651 0;
#X connect 657 0 652 0;
#X connect 657 0 653 0;
#X connect 657 0 665 0;
#X connect 657 0 1114 0;
#X connect 658 0 641 0;
#X connect 659 0 642 0;
#X connect 660 0 645 0;
#X connect 661 0 646 0;
#X connect 662 0 647 0;
#X connect 663 0 648 0;
#X connect 665 0 666 0;
#X connect 666 0 664 0;
#X connect 667 0 676 0;
#X connect 670 0 671 0;
#X connect 671 0 667 0;
#X connect 672 0 678 0;
#X connect 674 0 667 0;
#X connect 676 0 677 0;
#X connect 676 0 672 0;
#X connect 676 0 1115 0;
#X connect 677 0 668 0;
#X connect 678 0 669 0;
#X connect 679 0 690 0;
#X connect 682 0 683 0;
#X connect 683 0 679 0;
#X connect 684 0 686 0;
#X connect 685 0 680 0;
#X connect 686 0 681 0;
#X connect 688 0 679 0;
#X connect 690 0 685 0;
#X connect 690 0 684 0;
#X connect 690 0 1116 0;
#X connect 691 0 724 0;
#X connect 694 0 695 0;
#X connect 695 0 691 0;
#X connect 700 0 741 0;
#X connect 701 0 742 0;
#X connect 702 0 743 0;
#X connect 703 0 744 0;
#X connect 704 0 745 0;
#X connect 706 0 691 0;
#X connect 724 0 740 0;
#X connect 724 0 700 0;
#X connect 724 0 701 0;
#X connect 724 0 702 0;
#X connect 724 0 703 0;
#X connect 724 0 704 0;
#X connect 724 0 725 0;
#X connect 724 0 726 0;
#X connect 724 0 727 0;
#X connect 724 0 728 0;
#X connect 724 0 729 0;
#X connect 724 0 730 0;
#X connect 724 0 731 0;
#X connect 724 0 732 0;
#X connect 724 0 733 0;
#X connect 724 0 734 0;
#X connect 724 0 735 0;
#X connect 724 0 736 0;
#X connect 724 0 737 0;
#X connect 724 0 738 0;
#X connect 724 0 739 0;
#X connect 724 0 1119 0;
#X connect 724 0 1138 0;
#X connect 725 0 746 0;
#X connect 726 0 747 0;
#X connect 727 0 748 0;
#X connect 728 0 749 0;
#X connect 729 0 750 0;
#X connect 730 0 751 0;
#X connect 731 0 752 0;
#X connect 732 0 753 0;
#X connect 733 0 754 0;
#X connect 734 0 755 0;
#X connect 735 0 756 0;
#X connect 736 0 758 0;
#X connect 737 0 759 0;
#X connect 738 0 760 0;
#X connect 739 0 761 0;
#X connect 740 0 692 0;
#X connect 741 0 693 0;
#X connect 742 0 696 0;
#X connect 743 0 697 0;
#X connect 744 0 698 0;
#X connect 745 0 699 0;
#X connect 746 0 708 0;
#X connect 747 0 709 0;
#X connect 748 0 710 0;
#X connect 749 0 711 0;
#X connect 750 0 712 0;
#X connect 751 0 713 0;
#X connect 752 0 714 0;
#X connect 753 0 715 0;
#X connect 754 0 716 0;
#X connect 755 0 717 0;
#X connect 756 0 718 0;
#X connect 757 0 719 0;
#X connect 758 0 720 0;
#X connect 759 0 721 0;
#X connect 760 0 722 0;
#X connect 761 0 723 0;
#X connect 762 0 780 0;
#X connect 765 0 766 0;
#X connect 766 0 762 0;
#X connect 767 0 768 0;
#X connect 768 0 764 0;
#X connect 769 0 763 0;
#X connect 772 0 771 0;
#X connect 775 0 774 0;
#X connect 776 0 781 0;
#X connect 777 0 772 0;
#X connect 778 0 782 0;
#X connect 779 0 775 0;
#X connect 780 0 769 0;
#X connect 780 0 767 0;
#X connect 780 0 776 0;
#X connect 780 0 777 0;
#X connect 780 0 778 0;
#X connect 780 0 779 0;
#X connect 780 0 1117 0;
#X connect 781 0 770 0;
#X connect 782 0 773 0;
#X connect 784 0 762 0;
#X connect 786 0 792 0;
#X connect 789 0 790 0;
#X connect 790 0 786 0;
#X connect 791 0 797 0;
#X connect 792 0 796 0;
#X connect 792 0 791 0;
#X connect 792 0 1118 0;
#X connect 794 0 786 0;
#X connect 796 0 787 0;
#X connect 797 0 788 0;
#X connect 798 0 832 0;
#X connect 801 0 802 0;
#X connect 802 0 798 0;
#X connect 803 0 804 0;
#X connect 804 0 800 0;
#X connect 806 0 833 0;
#X connect 808 0 798 0;
#X connect 810 0 799 0;
#X connect 814 0 824 0;
#X connect 817 0 818 0;
#X connect 818 0 814 0;
#X connect 819 0 821 0;
#X connect 820 0 815 0;
#X connect 821 0 816 0;
#X connect 824 0 820 0;
#X connect 824 0 819 0;
#X connect 824 0 826 0;
#X connect 824 0 1120 0;
#X connect 826 0 827 0;
#X connect 827 0 825 0;
#X connect 828 0 814 0;
#X connect 829 0 834 0;
#X connect 830 0 835 0;
#X connect 831 0 836 0;
#X connect 832 0 810 0;
#X connect 832 0 803 0;
#X connect 832 0 806 0;
#X connect 832 0 829 0;
#X connect 832 0 830 0;
#X connect 832 0 831 0;
#X connect 832 0 1121 0;
#X connect 833 0 805 0;
#X connect 834 0 811 0;
#X connect 835 0 812 0;
#X connect 836 0 813 0;
#X connect 837 0 843 0;
#X connect 840 0 841 0;
#X connect 841 0 837 0;
#X connect 842 0 848 0;
#X connect 843 0 847 0;
#X connect 843 0 842 0;
#X connect 843 0 1122 0;
#X connect 845 0 837 0;
#X connect 847 0 838 0;
#X connect 848 0 839 0;
#X connect 849 0 855 0;
#X connect 852 0 853 0;
#X connect 853 0 849 0;
#X connect 854 0 858 0;
#X connect 855 0 856 0;
#X connect 855 0 854 0;
#X connect 855 0 1123 0;
#X connect 856 0 850 0;
#X connect 858 0 851 0;
#X connect 859 0 849 0;
#X connect 861 0 871 0;
#X connect 864 0 865 0;
#X connect 865 0 861 0;
#X connect 869 0 861 0;
#X connect 871 0 875 0;
#X connect 871 0 872 0;
#X connect 871 0 873 0;
#X connect 871 0 874 0;
#X connect 871 0 1124 0;
#X connect 872 0 876 0;
#X connect 873 0 877 0;
#X connect 874 0 878 0;
#X connect 875 0 862 0;
#X connect 876 0 863 0;
#X connect 877 0 866 0;
#X connect 878 0 867 0;
#X connect 879 0 922 0;
#X connect 882 0 883 0;
#X connect 883 0 879 0;
#X connect 884 0 900 0;
#X connect 886 0 901 0;
#X connect 890 0 902 0;
#X connect 891 0 903 0;
#X connect 894 0 904 0;
#X connect 895 0 905 0;
#X connect 897 0 906 0;
#X connect 898 0 907 0;
#X connect 899 0 880 0;
#X connect 900 0 881 0;
#X connect 901 0 885 0;
#X connect 902 0 887 0;
#X connect 903 0 888 0;
#X connect 904 0 889 0;
#X connect 905 0 892 0;
#X connect 906 0 893 0;
#X connect 907 0 896 0;
#X connect 909 0 879 0;
#X connect 911 0 929 0;
#X connect 914 0 915 0;
#X connect 915 0 911 0;
#X connect 919 0 911 0;
#X connect 921 0 926 0;
#X connect 922 0 899 0;
#X connect 922 0 884 0;
#X connect 922 0 886 0;
#X connect 922 0 890 0;
#X connect 922 0 891 0;
#X connect 922 0 894 0;
#X connect 922 0 895 0;
#X connect 922 0 897 0;
#X connect 922 0 898 0;
#X connect 922 0 1125 0;
#X connect 923 0 927 0;
#X connect 924 0 928 0;
#X connect 925 0 912 0;
#X connect 926 0 913 0;
#X connect 927 0 916 0;
#X connect 928 0 917 0;
#X connect 929 0 925 0;
#X connect 929 0 921 0;
#X connect 929 0 923 0;
#X connect 929 0 924 0;
#X connect 929 0 1126 0;
#X connect 930 0 936 0;
#X connect 933 0 934 0;
#X connect 934 0 930 0;
#X connect 936 0 940 0;
#X connect 936 0 1127 0;
#X connect 936 0 1135 0;
#X connect 936 0 1136 0;
#X connect 938 0 930 0;
#X connect 940 0 931 0;
#X connect 941 0 932 0;
#X connect 942 0 935 0;
#X connect 943 0 963 0;
#X connect 946 0 947 0;
#X connect 947 0 943 0;
#X connect 948 0 972 0;
#X connect 950 0 973 0;
#X connect 954 0 974 0;
#X connect 959 0 943 0;
#X connect 963 0 971 0;
#X connect 963 0 948 0;
#X connect 963 0 950 0;
#X connect 963 0 954 0;
#X connect 963 0 964 0;
#X connect 963 0 965 0;
#X connect 963 0 966 0;
#X connect 963 0 967 0;
#X connect 963 0 968 0;
#X connect 963 0 969 0;
#X connect 963 0 970 0;
#X connect 963 0 1128 0;
#X connect 964 0 975 0;
#X connect 965 0 976 0;
#X connect 966 0 977 0;
#X connect 967 0 978 0;
#X connect 968 0 979 0;
#X connect 969 0 980 0;
#X connect 970 0 981 0;
#X connect 971 0 944 0;
#X connect 972 0 945 0;
#X connect 973 0 949 0;
#X connect 974 0 951 0;
#X connect 975 0 952 0;
#X connect 976 0 953 0;
#X connect 977 0 955 0;
#X connect 978 0 956 0;
#X connect 979 0 957 0;
#X connect 980 0 961 0;
#X connect 981 0 962 0;
#X connect 982 0 988 0;
#X connect 985 0 986 0;
#X connect 986 0 982 0;
#X connect 988 0 995 0;
#X connect 988 0 992 0;
#X connect 988 0 993 0;
#X connect 988 0 1129 0;
#X connect 990 0 982 0;
#X connect 992 0 996 0;
#X connect 993 0 994 0;
#X connect 994 0 987 0;
#X connect 995 0 983 0;
#X connect 996 0 984 0;
#X connect 997 0 1010 0;
#X connect 1000 0 1001 0;
#X connect 1001 0 997 0;
#X connect 1005 0 997 0;
#X connect 1007 0 1013 0;
#X connect 1008 0 1014 0;
#X connect 1009 0 1011 0;
#X connect 1010 0 1012 0;
#X connect 1010 0 1007 0;
#X connect 1010 0 1008 0;
#X connect 1010 0 1009 0;
#X connect 1010 0 1137 0;
#X connect 1011 0 1003 0;
#X connect 1012 0 998 0;
#X connect 1013 0 999 0;
#X connect 1014 0 1002 0;
#X connect 1015 0 1033 0;
#X connect 1018 0 1019 0;
#X connect 1019 0 1015 0;
#X connect 1020 0 1021 0;
#X connect 1021 0 1017 0;
#X connect 1022 0 1016 0;
#X connect 1025 0 1024 0;
#X connect 1028 0 1027 0;
#X connect 1029 0 1037 0;
#X connect 1030 0 1025 0;
#X connect 1031 0 1038 0;
#X connect 1032 0 1028 0;
#X connect 1033 0 1022 0;
#X connect 1033 0 1020 0;
#X connect 1033 0 1029 0;
#X connect 1033 0 1030 0;
#X connect 1033 0 1031 0;
#X connect 1033 0 1032 0;
#X connect 1033 0 1130 0;
#X connect 1035 0 1015 0;
#X connect 1037 0 1023 0;
#X connect 1038 0 1026 0;
#X connect 1039 0 1050 0;
#X connect 1042 0 1043 0;
#X connect 1043 0 1039 0;
#X connect 1044 0 1045 0;
#X connect 1045 0 1041 0;
#X connect 1046 0 1040 0;
#X connect 1048 0 1039 0;
#X connect 1050 0 1046 0;
#X connect 1050 0 1044 0;
#X connect 1050 0 1131 0;
#X connect 1051 0 1060 0;
#X connect 1054 0 1055 0;
#X connect 1055 0 1051 0;
#X connect 1056 0 1057 0;
#X connect 1057 0 1053 0;
#X connect 1058 0 1052 0;
#X connect 1060 0 1058 0;
#X connect 1060 0 1056 0;
#X connect 1060 0 1061 0;
#X connect 1060 0 1132 0;
#X connect 1061 0 1062 0;
#X connect 1062 0 1059 0;
#X connect 1064 0 1051 0;
#X connect 1066 0 1075 0;
#X connect 1069 0 1070 0;
#X connect 1070 0 1066 0;
#X connect 1071 0 1077 0;
#X connect 1073 0 1066 0;
#X connect 1075 0 1076 0;
#X connect 1075 0 1071 0;
#X connect 1075 0 1133 0;
#X connect 1076 0 1067 0;
#X connect 1077 0 1068 0;
#X connect 1078 0 1084 0;
#X connect 1081 0 1082 0;
#X connect 1082 0 1078 0;
#X connect 1083 0 1087 0;
#X connect 1084 0 1086 0;
#X connect 1084 0 1083 0;
#X connect 1084 0 1134 0;
#X connect 1086 0 1079 0;
#X connect 1087 0 1080 0;
#X connect 1088 0 495 0;
#X connect 1089 0 87 0;
#X connect 1090 0 88 0;
#X connect 1091 0 23 0;
#X connect 1091 0 1148 0;
#X connect 1092 0 62 0;
#X connect 1092 0 1152 0;
#X connect 1093 0 63 0;
#X connect 1093 0 1154 0;
#X connect 1094 0 93 0;
#X connect 1094 0 1156 0;
#X connect 1095 0 137 0;
#X connect 1095 0 1164 0;
#X connect 1096 0 94 0;
#X connect 1096 0 1158 0;
#X connect 1097 0 136 0;
#X connect 1097 0 1162 0;
#X connect 1098 0 187 0;
#X connect 1098 0 1170 0;
#X connect 1099 0 208 0;
#X connect 1099 0 1172 0;
#X connect 1100 0 228 0;
#X connect 1100 0 1174 0;
#X connect 1101 0 297 0;
#X connect 1101 0 1182 0;
#X connect 1102 0 337 0;
#X connect 1102 0 1186 0;
#X connect 1103 0 358 0;
#X connect 1103 0 1188 0;
#X connect 1104 0 374 0;
#X connect 1104 0 1190 0;
#X connect 1105 0 427 0;
#X connect 1105 0 1192 0;
#X connect 1106 0 445 0;
#X connect 1106 0 1194 0;
#X connect 1107 0 480 0;
#X connect 1107 0 1196 0;
#X connect 1108 0 515 0;
#X connect 1108 0 1198 0;
#X connect 1109 0 559 0;
#X connect 1109 0 1200 0;
#X connect 1110 0 588 0;
#X connect 1110 0 1202 0;
#X connect 1111 0 598 0;
#X connect 1111 0 1204 0;
#X connect 1112 0 612 0;
#X connect 1112 0 1206 0;
#X connect 1113 0 639 0;
#X connect 1113 0 1208 0;
#X connect 1114 0 656 0;
#X connect 1114 0 1210 0;
#X connect 1115 0 675 0;
#X connect 1115 0 1212 0;
#X connect 1116 0 689 0;
#X connect 1116 0 1214 0;
#X connect 1117 0 785 0;
#X connect 1117 0 1218 0;
#X connect 1118 0 795 0;
#X connect 1118 0 1220 0;
#X connect 1119 0 707 0;
#X connect 1119 0 1216 0;
#X connect 1120 0 823 0;
#X connect 1120 0 1222 0;
#X connect 1121 0 809 0;
#X connect 1121 0 1224 0;
#X connect 1122 0 846 0;
#X connect 1122 0 1226 0;
#X connect 1123 0 860 0;
#X connect 1123 0 1228 0;
#X connect 1124 0 870 0;
#X connect 1124 0 1230 0;
#X connect 1125 0 910 0;
#X connect 1125 0 1232 0;
#X connect 1126 0 920 0;
#X connect 1126 0 1234 0;
#X connect 1127 0 939 0;
#X connect 1127 0 1236 0;
#X connect 1128 0 960 0;
#X connect 1128 0 1238 0;
#X connect 1129 0 991 0;
#X connect 1129 0 1240 0;
#X connect 1130 0 1036 0;
#X connect 1130 0 1244 0;
#X connect 1131 0 1049 0;
#X connect 1131 0 1246 0;
#X connect 1132 0 1065 0;
#X connect 1132 0 1248 0;
#X connect 1133 0 1074 0;
#X connect 1133 0 1253 0;
#X connect 1134 0 1251 0;
#X connect 1134 0 1252 0;
#X connect 1135 0 941 0;
#X connect 1136 0 942 0;
#X connect 1137 0 1006 0;
#X connect 1137 0 1242 0;
#X connect 1138 0 757 0;
#X connect 1139 0 252 0;
#X connect 1140 0 104 0;
#X connect 1140 0 1160 0;
#X connect 1141 0 153 0;
#X connect 1141 0 1166 0;
#X connect 1142 0 162 0;
#X connect 1142 0 1168 0;
#X connect 1143 0 244 0;
#X connect 1143 0 1176 0;
#X connect 1144 0 256 0;
#X connect 1144 0 1178 0;
#X connect 1145 0 283 0;
#X connect 1145 0 1180 0;
#X connect 1146 0 314 0;
#X connect 1146 0 1184 0;
#X connect 1147 0 325 0;
#X connect 1148 0 1149 0;
#X connect 1150 0 1151 0;
#X connect 1152 0 1153 0;
#X connect 1154 0 1155 0;
#X connect 1156 0 1157 0;
#X connect 1158 0 1159 0;
#X connect 1160 0 1161 0;
#X connect 1162 0 1163 0;
#X connect 1164 0 1165 0;
#X connect 1166 0 1167 0;
#X connect 1168 0 1169 0;
#X connect 1170 0 1171 0;
#X connect 1172 0 1173 0;
#X connect 1174 0 1175 0;
#X connect 1176 0 1177 0;
#X connect 1178 0 1179 0;
#X connect 1180 0 1181 0;
#X connect 1182 0 1183 0;
#X connect 1184 0 1185 0;
#X connect 1186 0 1187 0;
#X connect 1188 0 1189 0;
#X connect 1190 0 1191 0;
#X connect 1192 0 1193 0;
#X connect 1194 0 1195 0;
#X connect 1196 0 1197 0;
#X connect 1198 0 1199 0;
#X connect 1200 0 1201 0;
#X connect 1202 0 1203 0;
#X connect 1204 0 1205 0;
#X connect 1206 0 1207 0;
#X connect 1208 0 1209 0;
#X connect 1210 0 1211 0;
#X connect 1212 0 1213 0;
#X connect 1214 0 1215 0;
#X connect 1216 0 1217 0;
#X connect 1218 0 1219 0;
#X connect 1220 0 1221 0;
#X connect 1222 0 1223 0;
#X connect 1224 0 1225 0;
#X connect 1226 0 1227 0;
#X connect 1228 0 1229 0;
#X connect 1230 0 1231 0;
#X connect 1232 0 1233 0;
#X connect 1234 0 1235 0;
#X connect 1236 0 1237 0;
#X connect 1238 0 1239 0;
#X connect 1240 0 1241 0;
#X connect 1242 0 1243 0;
#X connect 1244 0 1245 0;
#X connect 1246 0 1247 0;
#X connect 1248 0 1249 0;
#X connect 1250 0 1078 0;
#X connect 1253 0 1254 0;
#X coords 0 -1 1 1 85 60 1 -20 20;
