#N canvas 0 0 450 300 10;
#X obj 36 264 noteout;
#X msg 140 234 60 0;
#X floatatom 230 160 5 0 0 0 - - -;
#X floatatom 192 160 5 0 0 0 - - -;
#X floatatom 155 160 5 0 0 0 - - -;
#X text 109 35 Handles note starts and ends;
#X obj 36 12 inlet;
#X obj 36 36 unpack f f;
#X obj 36 60 pack f 100 \$1 f;
#X obj 36 84 unpack f f f f;
#X obj 36 139 pack f f f;
#X obj 155 134 pipe f f f 10;
#X obj 119 191 pack f 0 f;
#X connect 1 0 0 0;
#X connect 6 0 7 0;
#X connect 7 0 8 0;
#X connect 7 1 8 3;
#X connect 8 0 9 0;
#X connect 9 0 10 0;
#X connect 9 0 11 0;
#X connect 9 1 10 1;
#X connect 9 2 10 2;
#X connect 9 2 11 2;
#X connect 9 3 11 3;
#X connect 10 0 0 0;
#X connect 11 0 4 0;
#X connect 11 0 12 0;
#X connect 11 1 3 0;
#X connect 11 2 2 0;
#X connect 11 2 12 2;
#X connect 12 0 0 0;
