#N canvas -8 -8 1366 725 10;
#X obj 250 90 inlet;
#X msg 250 111 1;
#X obj 250 132 metro 200;
#X obj 308 211 del 100;
#X obj 318 315 outlet;
#X obj 344 97 r reset;
#X msg 344 118 0;
#X msg 308 232 72 0;
#X msg 418 232 84 0;
#X obj 355 186 del 3;
#X obj 440 178 del 103;
#X msg 250 213 72 50;
#X msg 360 213 84 40;
#X connect 0 0 1 0;
#X connect 1 0 2 0;
#X connect 2 0 11 0;
#X connect 2 0 3 0;
#X connect 2 0 9 0;
#X connect 2 0 10 0;
#X connect 3 0 7 0;
#X connect 5 0 6 0;
#X connect 6 0 2 0;
#X connect 7 0 4 0;
#X connect 9 0 12 0;
#X connect 10 0 8 0;
#X connect 11 0 4 0;
