#N canvas -8 -8 1366 725 10;
#X obj 815 39 cnv 15 300 150 empty empty Metro_C's 20 12 0 14 -233017
-66577 0;
#X obj 101 101 cnv 15 660 518 empty empty empty 20 12 0 14 -233017
-66577 0;
#X obj 113 161 incPatterns;
#X obj 275 161 incPatterns;
#X obj 437 161 incPatterns;
#X obj 599 161 incPatterns;
#X obj 113 312 incPatterns;
#X obj 275 312 incPatterns;
#X obj 437 312 incPatterns;
#X obj 599 312 incPatterns;
#X obj 113 119 bng 30 250 50 0 empty empty empty 17 7 0 10 -204786
-1 -1;
#X obj 153 119 bng 30 250 50 0 reset empty empty 17 7 0 10 -261234
-1 -1;
#X obj 825 60 incMetrobeep;
#X obj 825 140 pan~ 0;
#X obj 825 161 throw~ \$0_left;
#X obj 915 161 throw~ \$0_right;
#X obj 858 98 loadbang;
#X msg 858 119 0;
#X obj 133 739 pan~ 0;
#X obj 133 760 throw~ \$0_left;
#X obj 223 760 throw~ \$0_right;
#X obj 196 697 loadbang;
#X msg 196 718 -15;
#X obj 463 739 pan~ 0;
#X obj 463 760 throw~ \$0_left;
#X obj 553 760 throw~ \$0_right;
#X obj 526 697 loadbang;
#X obj 790 768 pan~ 0;
#X obj 790 789 throw~ \$0_left;
#X obj 880 789 throw~ \$0_right;
#X obj 823 726 loadbang;
#X obj 1080 769 pan~ 0;
#X obj 1080 790 throw~ \$0_left;
#X obj 1170 790 throw~ \$0_right;
#X obj 1113 727 loadbang;
#X msg 823 747 -30;
#X msg 526 718 15;
#X msg 1113 748 30;
#X obj 791 655 pack f f;
#X obj 1081 654 pack f f;
#X obj 133 953 pan~ 0;
#X obj 133 974 throw~ \$0_left;
#X obj 223 974 throw~ \$0_right;
#X obj 166 911 loadbang;
#X msg 166 932 -15;
#X obj 413 953 pan~ 0;
#X obj 413 974 throw~ \$0_left;
#X obj 503 974 throw~ \$0_right;
#X obj 446 911 loadbang;
#X obj 132 1132 pan~ 0;
#X obj 132 1153 throw~ \$0_left;
#X obj 222 1153 throw~ \$0_right;
#X obj 225 1090 loadbang;
#X obj 415 1161 pan~ 0;
#X obj 415 1182 throw~ \$0_left;
#X obj 505 1182 throw~ \$0_right;
#X obj 448 1119 loadbang;
#X msg 225 1111 -30;
#X msg 446 932 15;
#X msg 448 1140 30;
#X obj 133 1075 pack f f;
#X obj 416 1073 pack f f;
#X obj 134 865 pack f f;
#X obj 414 867 pack f f;
#X obj 134 833 expr $i1-24 \; $i2;
#X obj 416 1041 expr $i1-36 \; $i2;
#X obj 133 1043 expr $i1-36 \; $i2;
#X obj 820 21 tgl 15 0 empty empty empty 17 7 0 10 -262144 -1 -1 0
1;
#X obj 825 79 inc_fmsynth~ 2 0.2 1 1 50 0.2 30 1 50 0.25 10;
#X obj 134 676 inc_fmsynth~ 0.5 0.25 3 15 50 0.8 300 15 50 0.25 300
;
#X obj 464 676 inc_fmsynth~ 0.5 0.25 3 15 50 0.8 300 15 50 0.25 300
;
#X obj 416 1095 inc_fmsynth~ 2 0.2 1 1 50 0.2 30 1 50 0.25 10;
#X obj 134 697 lop~ 350;
#X obj 464 697 lop~ 350;
#X obj 134 887 inc_clarinet~;
#X obj 133 1096 inc_clarinet~;
#X obj 113 463 incPatterns;
#X obj 275 463 incPatterns;
#X obj 437 463 incPatterns;
#X obj 599 463 incPatterns;
#X obj 757 952 pan~ 0;
#X obj 757 973 throw~ \$0_left;
#X obj 847 973 throw~ \$0_right;
#X obj 801 915 loadbang;
#X obj 1084 953 pan~ 0;
#X obj 1084 974 throw~ \$0_left;
#X obj 1174 974 throw~ \$0_right;
#X obj 1130 914 loadbang;
#X obj 759 1123 pan~ 0;
#X obj 759 1144 throw~ \$0_left;
#X obj 849 1144 throw~ \$0_right;
#X obj 852 1081 loadbang;
#X obj 1085 1162 pan~ 0;
#X obj 1085 1183 throw~ \$0_left;
#X obj 1175 1183 throw~ \$0_right;
#X obj 1118 1120 loadbang;
#X obj 759 1077 pack f f;
#X obj 1086 1075 pack f f;
#X obj 758 874 pack f f;
#X obj 1085 873 pack f f;
#X obj 1086 1043 expr $i1-36 \; $i2;
#X obj 759 1045 expr $i1-36 \; $i2;
#X obj 1086 1096 inc_fmsynth~ 2 0.2 1 1 50 0.2 30 1 50 0.25 10;
#X obj 759 1100 inc_clarinet~;
#X obj 777 1216 vsl 15 128 0 127 0 0 empty empty empty 0 -9 0 10 -262144
-1 -1 0 1;
#X obj 758 894 inc_fmsynth~ 50 0 0.25 30 30 1 200 100 100 0.25 200
;
#X obj 1085 893 inc_fmsynth~ 50 0 0.25 30 30 1 200 100 100 0.25 200
;
#X msg 852 1102 30;
#X msg 1118 1141 -30;
#X msg 801 935 -35;
#X msg 1130 935 35;
#X obj 758 842 expr $i1+12 \; $i2;
#X obj 1085 841 expr $i1+12 \; $i2;
#X obj 189 46 loadbang;
#X obj 758 915 *~ 0.5;
#X obj 1085 914 *~ 0.5;
#X obj 1121 39 cnv 15 200 120 empty empty Catch_to_DAC 20 12 0 14 -233017
-66577 0;
#X obj 1129 68 catch~ \$0_left;
#X obj 1219 68 catch~ \$0_right;
#X obj 1165 203 dac~;
#X obj 1130 159 *~ 0.2;
#X obj 1220 158 *~ 0.2;
#X obj 1129 183 outlet~;
#X obj 1219 180 outlet~;
#X obj 916 366 s \$0_inst1;
#X obj 986 366 s \$0_inst2;
#X obj 1059 366 s \$0_inst3;
#X obj 1132 366 s \$0_inst4;
#X obj 916 386 s \$0_inst5;
#X obj 986 386 s \$0_inst6;
#X obj 1059 386 s \$0_inst7;
#X obj 1132 386 s \$0_inst8;
#X obj 916 406 s \$0_inst9;
#X obj 986 406 s \$0_inst10;
#X obj 1059 406 s \$0_inst11;
#X obj 1132 406 s \$0_inst12;
#X obj 134 655 r \$0_inst1;
#X obj 464 655 r \$0_inst2;
#X obj 791 602 r \$0_inst3;
#X obj 1081 602 r \$0_inst4;
#X obj 134 812 r \$0_inst5;
#X obj 414 814 r \$0_inst6;
#X obj 758 821 r \$0_inst7;
#X obj 1085 821 r \$0_inst8;
#X obj 133 1022 r \$0_inst9;
#X obj 416 1020 r \$0_inst10;
#X obj 759 1024 r \$0_inst11;
#X obj 1086 1023 r \$0_inst12;
#X obj 414 835 expr $i1-12 \; $i2;
#X obj 414 887 inc_fmsynth~ 16 0 4.5 1 50 1 30 1 80 0.02 10;
#X obj 791 676 inc_fmsynth~ 16 0 4.5 1 50 1 30 1 80 0.02 10;
#X obj 1081 676 inc_fmsynth~ 16 0 4.5 1 50 1 30 1 80 0.02 10;
#X obj 791 623 expr $i1+0 \; $i2;
#X obj 1081 622 expr $i1+0 \; $i2;
#X obj 791 697 *~ 0.7;
#X obj 1081 697 *~ 0.7;
#X connect 2 0 124 0;
#X connect 3 0 125 0;
#X connect 4 0 126 0;
#X connect 5 0 127 0;
#X connect 6 0 128 0;
#X connect 7 0 129 0;
#X connect 8 0 130 0;
#X connect 9 0 131 0;
#X connect 10 0 2 0;
#X connect 10 0 5 0;
#X connect 10 0 9 0;
#X connect 10 0 8 0;
#X connect 10 0 7 0;
#X connect 10 0 6 0;
#X connect 10 0 4 0;
#X connect 10 0 3 0;
#X connect 10 0 76 0;
#X connect 10 0 77 0;
#X connect 10 0 79 0;
#X connect 10 0 78 0;
#X connect 10 0 12 0;
#X connect 12 0 68 0;
#X connect 13 0 14 0;
#X connect 13 1 15 0;
#X connect 16 0 17 0;
#X connect 17 0 13 1;
#X connect 18 0 19 0;
#X connect 18 1 20 0;
#X connect 21 0 22 0;
#X connect 22 0 18 1;
#X connect 23 0 24 0;
#X connect 23 1 25 0;
#X connect 26 0 36 0;
#X connect 27 0 28 0;
#X connect 27 1 29 0;
#X connect 30 0 35 0;
#X connect 31 0 32 0;
#X connect 31 1 33 0;
#X connect 34 0 37 0;
#X connect 35 0 27 1;
#X connect 36 0 23 1;
#X connect 37 0 31 1;
#X connect 38 0 150 0;
#X connect 39 0 151 0;
#X connect 40 0 41 0;
#X connect 40 1 42 0;
#X connect 43 0 44 0;
#X connect 44 0 40 1;
#X connect 45 0 46 0;
#X connect 45 1 47 0;
#X connect 48 0 58 0;
#X connect 49 0 50 0;
#X connect 49 1 51 0;
#X connect 52 0 57 0;
#X connect 53 0 54 0;
#X connect 53 1 55 0;
#X connect 56 0 59 0;
#X connect 57 0 49 1;
#X connect 58 0 45 1;
#X connect 59 0 53 1;
#X connect 60 0 75 0;
#X connect 61 0 71 0;
#X connect 62 0 74 0;
#X connect 63 0 149 0;
#X connect 64 0 62 0;
#X connect 64 1 62 1;
#X connect 65 0 61 0;
#X connect 65 1 61 1;
#X connect 66 0 60 0;
#X connect 66 1 60 1;
#X connect 67 0 12 0;
#X connect 68 0 13 0;
#X connect 69 0 72 0;
#X connect 70 0 73 0;
#X connect 71 0 53 0;
#X connect 72 0 18 0;
#X connect 73 0 23 0;
#X connect 74 0 40 0;
#X connect 75 0 49 0;
#X connect 76 0 132 0;
#X connect 77 0 133 0;
#X connect 78 0 134 0;
#X connect 79 0 135 0;
#X connect 80 0 81 0;
#X connect 80 1 82 0;
#X connect 83 0 109 0;
#X connect 84 0 85 0;
#X connect 84 1 86 0;
#X connect 87 0 110 0;
#X connect 88 0 89 0;
#X connect 88 1 90 0;
#X connect 91 0 107 0;
#X connect 92 0 93 0;
#X connect 92 1 94 0;
#X connect 95 0 108 0;
#X connect 96 0 103 0;
#X connect 97 0 102 0;
#X connect 98 0 105 0;
#X connect 99 0 106 0;
#X connect 100 0 97 0;
#X connect 100 1 97 1;
#X connect 101 0 96 0;
#X connect 101 1 96 1;
#X connect 102 0 92 0;
#X connect 103 0 88 0;
#X connect 105 0 114 0;
#X connect 106 0 115 0;
#X connect 107 0 88 1;
#X connect 108 0 92 1;
#X connect 109 0 80 1;
#X connect 110 0 84 1;
#X connect 111 0 98 0;
#X connect 111 1 98 1;
#X connect 112 0 99 0;
#X connect 112 1 99 1;
#X connect 113 0 11 0;
#X connect 114 0 80 0;
#X connect 115 0 84 0;
#X connect 117 0 120 0;
#X connect 118 0 121 0;
#X connect 120 0 119 0;
#X connect 120 0 122 0;
#X connect 121 0 119 1;
#X connect 121 0 123 0;
#X connect 136 0 69 0;
#X connect 137 0 70 0;
#X connect 138 0 152 0;
#X connect 139 0 153 0;
#X connect 140 0 64 0;
#X connect 141 0 148 0;
#X connect 142 0 111 0;
#X connect 143 0 112 0;
#X connect 144 0 66 0;
#X connect 145 0 65 0;
#X connect 146 0 101 0;
#X connect 147 0 100 0;
#X connect 148 0 63 0;
#X connect 148 1 63 1;
#X connect 149 0 45 0;
#X connect 150 0 154 0;
#X connect 151 0 155 0;
#X connect 152 0 38 0;
#X connect 152 1 38 1;
#X connect 153 0 39 0;
#X connect 153 1 39 1;
#X connect 154 0 27 0;
#X connect 155 0 31 0;
#X coords 0 -1 1 1 662 520 1 100 100;
