#N canvas -8 -8 1366 725 10;
#X obj 101 201 cnv 15 150 140 empty empty empty 20 12 0 14 -162280
-66577 0;
#X obj 42 409 bng 15 250 50 0 empty empty empty 17 7 0 10 -262144 -1
-1;
#X obj 42 428 s randbang;
#X obj 114 428 s resetcounters;
#X obj 114 409 bng 15 250 50 0 empty empty empty 17 7 0 10 -262144
-1 -1;
#X obj 229 211 bng 12 250 50 0 empty empty empty 35 15 0 10 -204786
-13381 -13381;
#X obj 42 387 r reset;
#X obj 229 225 bng 12 250 50 0 reset empty empty 35 15 0 10 -261234
-86277 -86277;
#N canvas 476 216 450 420 measure1 0;
#X obj 256 93 tgl 15 0 empty empty empty 17 7 0 10 -262144 -1 -1 0
1;
#X obj 256 152 metro 400;
#X obj 314 177 del 290;
#X msg 314 200 72 100;
#X msg 302 89 0;
#X obj 63 202 inccountdown 30 7;
#X obj 63 250 del 400;
#X msg 256 200 76 200;
#X obj 256 69 inlet;
#X obj 302 69 r reset;
#X msg 35 132 0;
#X msg 63 271 1;
#X obj 63 292 outlet;
#X obj 256 302 outlet;
#X connect 0 0 1 0;
#X connect 1 0 7 0;
#X connect 1 0 2 0;
#X connect 1 0 5 0;
#X connect 2 0 3 0;
#X connect 3 0 13 0;
#X connect 4 0 0 0;
#X connect 5 0 6 0;
#X connect 5 0 10 0;
#X connect 6 0 11 0;
#X connect 7 0 13 0;
#X connect 8 0 0 0;
#X connect 9 0 4 0;
#X connect 10 0 0 0;
#X connect 11 0 12 0;
#X restore 515 233 pd measure1;
#N canvas 677 135 401 335 measure2 0;
#X obj 89 56 tgl 15 0 empty empty empty 17 7 0 10 -262144 -1 -1 0 1
;
#X obj 89 77 metro 800;
#X obj 258 110 del 690;
#X obj 146 109 del 200;
#X obj 202 110 del 400;
#X obj 66 179 inccountdown 30 7;
#X msg 258 133 72 100;
#X obj 142 35 r reset;
#X msg 142 55 0;
#X text 87 19 # 2 (pickup at end);
#X obj 59 236 del 800;
#X msg 89 133 76 200;
#X msg 146 132 77 200;
#X msg 202 133 76 200;
#X obj 89 35 inlet;
#X msg 38 32 0;
#X obj 305 300 outlet;
#X msg 59 257 1;
#X obj 59 278 outlet;
#X connect 0 0 1 0;
#X connect 1 0 11 0;
#X connect 1 0 2 0;
#X connect 1 0 3 0;
#X connect 1 0 4 0;
#X connect 1 0 5 0;
#X connect 2 0 6 0;
#X connect 3 0 12 0;
#X connect 4 0 13 0;
#X connect 5 0 10 0;
#X connect 5 0 15 0;
#X connect 6 0 16 0;
#X connect 7 0 8 0;
#X connect 8 0 0 0;
#X connect 10 0 17 0;
#X connect 11 0 16 0;
#X connect 12 0 16 0;
#X connect 13 0 16 0;
#X connect 14 0 0 0;
#X connect 15 0 0 0;
#X connect 17 0 18 0;
#X restore 515 254 pd measure2;
#X obj 253 136 r \$0_tomidi;
#N canvas 484 98 526 409 measure3 0;
#X obj 80 72 tgl 15 0 empty empty empty 17 7 0 10 -262144 -1 -1 0 1
;
#X obj 80 93 metro 800;
#X obj 122 51 r reset;
#X msg 122 71 0;
#X obj 80 126 del 200;
#X obj 136 126 del 400;
#X obj 192 126 del 600;
#X text 78 35 # 3 (del 200 eighth at front);
#X obj 57 195 inccountdown 30 7;
#X obj 89 243 del 800;
#X msg 80 149 76 200;
#X msg 136 149 77 200;
#X msg 192 149 76 200;
#X obj 80 51 inlet;
#X msg 18 118 0;
#X msg 89 264 1;
#X obj 89 285 outlet;
#X obj 265 301 outlet;
#X connect 0 0 1 0;
#X connect 1 0 4 0;
#X connect 1 0 5 0;
#X connect 1 0 6 0;
#X connect 1 0 8 0;
#X connect 2 0 3 0;
#X connect 3 0 0 0;
#X connect 4 0 10 0;
#X connect 5 0 11 0;
#X connect 6 0 12 0;
#X connect 8 0 9 0;
#X connect 8 0 14 0;
#X connect 9 0 15 0;
#X connect 10 0 17 0;
#X connect 11 0 17 0;
#X connect 12 0 17 0;
#X connect 13 0 0 0;
#X connect 14 0 0 0;
#X connect 15 0 16 0;
#X restore 515 274 pd measure3;
#X obj 1141 1012 s \$0_tomidi;
#N canvas 0 50 349 365 measure4 0;
#X obj 70 65 tgl 15 0 empty empty empty 17 7 0 10 -262144 -1 -1 0 1
;
#X obj 70 85 metro 800;
#X obj 142 44 r reset;
#X msg 142 64 0;
#X obj 70 120 del 200;
#X obj 126 119 del 400;
#X obj 182 119 del 600;
#X text 68 28 # 4 (eighth rest at front);
#X obj 52 190 inccountdown 30 7;
#X obj 52 237 del 800;
#X msg 70 142 76 200;
#X msg 126 142 77 200;
#X msg 182 142 79 200;
#X msg 22 46 0;
#X msg 52 258 1;
#X obj 52 279 outlet;
#X obj 240 299 outlet;
#X obj 70 44 inlet;
#X connect 0 0 1 0;
#X connect 1 0 4 0;
#X connect 1 0 5 0;
#X connect 1 0 6 0;
#X connect 1 0 8 0;
#X connect 2 0 3 0;
#X connect 3 0 0 0;
#X connect 4 0 10 0;
#X connect 5 0 11 0;
#X connect 6 0 12 0;
#X connect 8 0 9 0;
#X connect 8 0 13 0;
#X connect 9 0 14 0;
#X connect 10 0 16 0;
#X connect 11 0 16 0;
#X connect 12 0 16 0;
#X connect 13 0 0 0;
#X connect 14 0 15 0;
#X connect 17 0 0 0;
#X restore 515 294 pd measure4;
#X msg 365 253 2;
#X msg 365 233 1;
#X msg 365 273 3;
#X msg 365 293 4;
#X msg 365 313 5;
#X msg 365 333 6;
#X msg 365 353 7;
#X msg 365 373 8;
#X obj 75 1328 s \$0_pos;
#N canvas 0 50 450 300 measure5 0;
#X obj 61 57 tgl 15 0 empty empty empty 17 7 0 10 -262144 -1 -1 0 1
;
#X obj 61 77 metro 800;
#X obj 123 36 r reset;
#X msg 123 56 0;
#X obj 117 111 del 200;
#X obj 173 111 del 400;
#X text 59 20 # 5 eighths;
#X obj 43 182 inccountdown 30 7;
#X obj 43 229 del 800;
#X msg 61 134 76 200;
#X msg 117 134 77 200;
#X msg 173 134 79 200;
#X obj 61 36 inlet;
#X msg 15 36 0;
#X msg 43 250 1;
#X obj 43 271 outlet;
#X obj 221 278 outlet;
#X connect 0 0 1 0;
#X connect 1 0 9 0;
#X connect 1 0 4 0;
#X connect 1 0 5 0;
#X connect 1 0 7 0;
#X connect 2 0 3 0;
#X connect 3 0 0 0;
#X connect 4 0 10 0;
#X connect 5 0 11 0;
#X connect 7 0 8 0;
#X connect 7 0 13 0;
#X connect 8 0 14 0;
#X connect 9 0 16 0;
#X connect 10 0 16 0;
#X connect 11 0 16 0;
#X connect 12 0 0 0;
#X connect 13 0 0 0;
#X connect 14 0 15 0;
#X restore 515 314 pd measure5;
#N canvas 0 50 485 334 measure6 0;
#X obj 91 57 tgl 15 0 empty empty empty 17 7 0 10 -262144 -1 -1 0 1
;
#X obj 143 36 r reset;
#X msg 143 56 0;
#X obj 91 77 metro 3200;
#X obj 147 111 del 1600;
#X text 89 20 # 6 whole notes;
#X obj 73 182 inccountdown 10 3;
#X obj 73 230 del 3200;
#X msg 91 134 84 1599;
#X msg 147 134 84 1599;
#X obj 91 36 inlet;
#X msg 34 42 0;
#X msg 73 251 1;
#X obj 73 272 outlet;
#X obj 254 289 outlet;
#X connect 0 0 3 0;
#X connect 1 0 2 0;
#X connect 2 0 0 0;
#X connect 3 0 8 0;
#X connect 3 0 4 0;
#X connect 3 0 6 0;
#X connect 4 0 9 0;
#X connect 6 0 7 0;
#X connect 6 0 11 0;
#X connect 7 0 12 0;
#X connect 8 0 14 0;
#X connect 9 0 14 0;
#X connect 10 0 0 0;
#X connect 11 0 0 0;
#X connect 12 0 13 0;
#X restore 515 334 pd measure6;
#N canvas 0 50 398 371 measure7 0;
#X obj 103 59 tgl 15 0 empty empty empty 17 7 0 10 -262144 -1 -1 0
1;
#X obj 165 38 r reset;
#X msg 165 58 0;
#X obj 103 113 del 1400;
#X obj 159 113 del 1500;
#X obj 215 113 del 1600;
#X obj 103 80 metro 3600;
#X text 101 22 # 7 isolated eighths and rests;
#X obj 80 182 inccountdown 25 12;
#X obj 80 230 del 3600;
#X msg 103 136 72 99;
#X msg 159 136 72 99;
#X msg 215 136 72 99;
#X obj 103 38 inlet;
#X msg 33 55 0;
#X msg 80 251 1;
#X obj 80 272 outlet;
#X obj 244 288 outlet;
#X connect 0 0 6 0;
#X connect 1 0 2 0;
#X connect 2 0 0 0;
#X connect 3 0 10 0;
#X connect 4 0 11 0;
#X connect 5 0 12 0;
#X connect 6 0 3 0;
#X connect 6 0 4 0;
#X connect 6 0 5 0;
#X connect 6 0 8 0;
#X connect 8 0 9 0;
#X connect 8 0 14 0;
#X connect 9 0 15 0;
#X connect 10 0 17 0;
#X connect 11 0 17 0;
#X connect 12 0 17 0;
#X connect 13 0 0 0;
#X connect 14 0 0 0;
#X connect 15 0 16 0;
#X restore 515 354 pd measure7;
#N canvas 0 50 450 300 measure8 0;
#X obj 103 49 tgl 15 0 empty empty empty 17 7 0 10 -262144 -1 -1 0
1;
#X obj 145 28 r reset;
#X msg 145 48 0;
#X obj 103 70 metro 3600;
#X text 101 11 # 8 long notes again;
#X obj 159 103 del 2400;
#X obj 215 103 del 4000;
#X obj 80 172 inccountdown 10 3;
#X obj 80 218 del 3600;
#X msg 103 126 79 2400;
#X msg 215 126 77 1600;
#X msg 159 126 77 1599;
#X msg 36 31 0;
#X msg 80 239 1;
#X obj 80 260 outlet;
#X obj 263 276 outlet;
#X obj 103 28 inlet;
#X connect 0 0 3 0;
#X connect 1 0 2 0;
#X connect 2 0 0 0;
#X connect 3 0 9 0;
#X connect 3 0 5 0;
#X connect 3 0 6 0;
#X connect 3 0 7 0;
#X connect 5 0 11 0;
#X connect 6 0 10 0;
#X connect 7 0 8 0;
#X connect 7 0 12 0;
#X connect 8 0 13 0;
#X connect 9 0 15 0;
#X connect 10 0 15 0;
#X connect 11 0 15 0;
#X connect 12 0 0 0;
#X connect 13 0 14 0;
#X connect 16 0 0 0;
#X restore 515 373 pd measure8;
#X msg 365 393 9;
#X msg 365 413 10;
#X msg 365 433 11;
#X msg 365 453 12;
#X msg 365 473 13;
#X msg 365 493 14;
#X msg 365 513 15;
#X msg 365 533 16;
#N canvas 0 50 346 372 measure9 0;
#X obj 70 54 tgl 15 0 empty empty empty 17 7 0 10 -262144 -1 -1 0 1
;
#X obj 122 33 r reset;
#X msg 122 53 0;
#X text 68 16 # 9 isolated sixteenths;
#X obj 70 75 metro 1600;
#X obj 126 108 del 100;
#X obj 47 177 inccountdown 30 7;
#X obj 47 225 del 1600;
#X msg 70 131 83 100;
#X msg 126 131 79 100;
#X msg 20 40 0;
#X msg 47 246 1;
#X obj 47 267 outlet;
#X obj 206 280 outlet;
#X obj 70 33 inlet;
#X connect 0 0 4 0;
#X connect 1 0 2 0;
#X connect 2 0 0 0;
#X connect 4 0 8 0;
#X connect 4 0 5 0;
#X connect 4 0 6 0;
#X connect 5 0 9 0;
#X connect 6 0 7 0;
#X connect 6 0 10 0;
#X connect 7 0 11 0;
#X connect 8 0 13 0;
#X connect 9 0 13 0;
#X connect 10 0 0 0;
#X connect 11 0 12 0;
#X connect 14 0 0 0;
#X restore 515 393 pd measure9;
#N canvas 0 50 312 343 measure10 0;
#X obj 84 60 tgl 15 0 empty empty empty 17 7 0 10 -262144 -1 -1 0 1
;
#X obj 142 39 r reset;
#X msg 142 59 0;
#X obj 140 114 del 100;
#X text 82 22 #10 repeated sxts;
#X obj 84 81 metro 200;
#X obj 61 183 inccountdown 40 22;
#X obj 61 231 del 200;
#X msg 84 137 83 100;
#X msg 140 137 79 100;
#X obj 84 39 inlet;
#X msg 39 33 0;
#X msg 61 252 1;
#X obj 61 273 outlet;
#X obj 217 287 outlet;
#X connect 0 0 5 0;
#X connect 1 0 2 0;
#X connect 2 0 0 0;
#X connect 3 0 9 0;
#X connect 5 0 8 0;
#X connect 5 0 3 0;
#X connect 5 0 6 0;
#X connect 6 0 7 0;
#X connect 6 0 11 0;
#X connect 7 0 12 0;
#X connect 8 0 14 0;
#X connect 9 0 14 0;
#X connect 10 0 0 0;
#X connect 11 0 0 0;
#X connect 12 0 13 0;
#X restore 515 413 pd measure10;
#N canvas 0 50 669 422 measure11 0;
#X obj 95 67 tgl 15 0 empty empty empty 17 7 0 10 -262144 -1 -1 0 1
;
#X obj 133 46 r reset;
#X msg 133 66 0;
#X obj 151 121 del 100;
#X obj 207 121 del 200;
#X obj 262 121 del 300;
#X obj 318 121 del 400;
#X obj 373 121 del 500;
#X obj 95 88 metro 600;
#X text 93 29 #11 repeated sxts;
#X obj 72 190 inccountdown 40 16;
#X obj 72 238 del 600;
#X msg 95 144 77 100;
#X msg 151 144 79 100;
#X msg 207 144 83 100;
#X msg 262 144 79 100;
#X msg 318 144 83 100;
#X msg 373 144 79 100;
#X msg 33 47 0;
#X obj 95 46 inlet;
#X msg 72 259 1;
#X obj 72 280 outlet;
#X obj 407 299 outlet;
#X connect 0 0 8 0;
#X connect 1 0 2 0;
#X connect 2 0 0 0;
#X connect 3 0 13 0;
#X connect 4 0 14 0;
#X connect 5 0 15 0;
#X connect 6 0 16 0;
#X connect 7 0 17 0;
#X connect 8 0 12 0;
#X connect 8 0 3 0;
#X connect 8 0 4 0;
#X connect 8 0 5 0;
#X connect 8 0 6 0;
#X connect 8 0 7 0;
#X connect 8 0 10 0;
#X connect 10 0 11 0;
#X connect 10 0 18 0;
#X connect 11 0 20 0;
#X connect 12 0 22 0;
#X connect 13 0 22 0;
#X connect 14 0 22 0;
#X connect 15 0 22 0;
#X connect 16 0 22 0;
#X connect 17 0 22 0;
#X connect 18 0 0 0;
#X connect 19 0 0 0;
#X connect 20 0 21 0;
#X restore 515 433 pd measure11;
#X obj 124 211 inc_gridvis;
#X obj 124 143 r \$0_pos;
#X obj 110 282 notevis_poly;
#N canvas 0 50 381 424 measure12 0;
#X obj 53 59 tgl 15 0 empty empty empty 17 7 0 10 -262144 -1 -1 0 1
;
#X obj 91 38 r reset;
#X msg 91 58 0;
#X text 50 21 #12 Motif;
#X obj 109 113 del 200;
#X obj 165 113 del 400;
#X obj 220 113 del 2000;
#X obj 53 80 metro 2400;
#X obj 30 182 inccountdown 20 5;
#X obj 30 230 del 2400;
#X msg 53 136 77 200;
#X msg 109 136 79 200;
#X msg 165 136 83 1600;
#X msg 220 136 84 400;
#X obj 53 38 inlet;
#X msg 14 38 0;
#X msg 30 251 1;
#X obj 30 272 outlet;
#X obj 275 310 outlet;
#X connect 0 0 7 0;
#X connect 1 0 2 0;
#X connect 2 0 0 0;
#X connect 4 0 11 0;
#X connect 5 0 12 0;
#X connect 6 0 13 0;
#X connect 7 0 10 0;
#X connect 7 0 4 0;
#X connect 7 0 5 0;
#X connect 7 0 6 0;
#X connect 7 0 8 0;
#X connect 8 0 9 0;
#X connect 8 0 15 0;
#X connect 9 0 16 0;
#X connect 10 0 18 0;
#X connect 11 0 18 0;
#X connect 12 0 18 0;
#X connect 13 0 18 0;
#X connect 14 0 0 0;
#X connect 15 0 0 0;
#X connect 16 0 17 0;
#X restore 515 453 pd measure12;
#N canvas 0 50 450 386 measure13 0;
#X obj 73 59 tgl 15 0 empty empty empty 17 7 0 10 -262144 -1 -1 0 1
;
#X obj 120 38 r reset;
#X msg 120 58 0;
#X obj 185 113 del 400;
#X obj 73 80 metro 2400;
#X text 70 21 #13 Motif 2;
#X obj 129 113 del 100;
#X obj 240 113 del 500;
#X obj 295 113 del 600;
#X obj 350 113 del 1100;
#X obj 50 182 inccountdown 20 5;
#X obj 50 230 del 2400;
#X msg 73 136 83 100;
#X msg 185 136 79 100;
#X msg 240 136 77 100;
#X msg 350 136 79 1500;
#X msg 129 136 79 199;
#X msg 295 136 79 199;
#X msg 26 43 0;
#X msg 50 251 1;
#X obj 50 272 outlet;
#X obj 393 332 outlet;
#X obj 73 38 inlet;
#X connect 0 0 4 0;
#X connect 1 0 2 0;
#X connect 2 0 0 0;
#X connect 3 0 13 0;
#X connect 4 0 12 0;
#X connect 4 0 3 0;
#X connect 4 0 6 0;
#X connect 4 0 7 0;
#X connect 4 0 8 0;
#X connect 4 0 9 0;
#X connect 4 0 10 0;
#X connect 6 0 16 0;
#X connect 7 0 14 0;
#X connect 8 0 17 0;
#X connect 9 0 15 0;
#X connect 10 0 11 0;
#X connect 10 0 18 0;
#X connect 11 0 19 0;
#X connect 12 0 21 0;
#X connect 13 0 21 0;
#X connect 14 0 21 0;
#X connect 15 0 21 0;
#X connect 16 0 21 0;
#X connect 17 0 21 0;
#X connect 18 0 0 0;
#X connect 19 0 20 0;
#X connect 22 0 0 0;
#X restore 515 473 pd measure13;
#N canvas 0 50 440 426 measure14 0;
#X obj 79 59 tgl 15 0 empty empty empty 17 7 0 10 -262144 -1 -1 0 1
;
#X obj 127 38 r reset;
#X msg 127 58 0;
#X text 76 21 #14 Whole Notes;
#X obj 79 80 metro 6400;
#X obj 135 113 del 1600;
#X obj 191 113 del 3200;
#X obj 246 113 del 4800;
#X obj 56 182 inccountdown 10 3;
#X obj 56 230 del 6400;
#X msg 79 136 84 1600;
#X msg 135 136 83 1600;
#X msg 191 136 79 1600;
#X msg 246 136 78 1600;
#X msg 39 37 0;
#X obj 79 38 inlet;
#X msg 56 251 1;
#X obj 56 272 outlet;
#X obj 286 294 outlet;
#X connect 0 0 4 0;
#X connect 1 0 2 0;
#X connect 2 0 0 0;
#X connect 4 0 10 0;
#X connect 4 0 5 0;
#X connect 4 0 6 0;
#X connect 4 0 7 0;
#X connect 4 0 8 0;
#X connect 5 0 11 0;
#X connect 6 0 12 0;
#X connect 7 0 13 0;
#X connect 8 0 9 0;
#X connect 8 0 14 0;
#X connect 9 0 16 0;
#X connect 10 0 18 0;
#X connect 11 0 18 0;
#X connect 12 0 18 0;
#X connect 13 0 18 0;
#X connect 14 0 0 0;
#X connect 15 0 0 0;
#X connect 16 0 17 0;
#X restore 515 493 pd measure14;
#N canvas 0 50 273 294 measure15 0;
#X obj 66 59 tgl 15 0 empty empty empty 17 7 0 10 -262144 -1 -1 0 1
;
#X obj 114 38 r reset;
#X msg 114 58 0;
#X text 63 21 #15 Isolated G;
#X obj 66 80 metro 1600;
#X obj 66 152 inccountdown 20 15;
#X obj 66 200 del 1600;
#X msg 75 106 79 100;
#X msg 25 38 0;
#X msg 66 221 1;
#X obj 66 242 outlet;
#X obj 120 253 outlet;
#X obj 66 38 inlet;
#X connect 0 0 4 0;
#X connect 1 0 2 0;
#X connect 2 0 0 0;
#X connect 4 0 7 0;
#X connect 4 0 5 0;
#X connect 5 0 6 0;
#X connect 5 0 8 0;
#X connect 6 0 9 0;
#X connect 7 0 11 0;
#X connect 8 0 0 0;
#X connect 9 0 10 0;
#X connect 12 0 0 0;
#X restore 515 513 pd measure15;
#X msg 365 553 17;
#X msg 365 573 18;
#X msg 365 593 19;
#X msg 365 613 20;
#X msg 365 633 21;
#X msg 365 653 22;
#X msg 365 673 23;
#X msg 365 693 24;
#X msg 365 713 25;
#X msg 365 733 26;
#X msg 365 753 27;
#X msg 365 773 28;
#X msg 366 793 29;
#X msg 365 813 30;
#X msg 365 833 31;
#X msg 365 853 32;
#N canvas 0 50 427 383 measure16 0;
#X obj 79 59 tgl 15 0 empty empty empty 17 7 0 10 -262144 -1 -1 0 1
;
#X obj 127 38 r reset;
#X msg 127 58 0;
#X text 76 21 #16 Sixteenths pt 1;
#X obj 79 80 metro 400;
#X obj 135 113 del 100;
#X obj 191 113 del 200;
#X obj 246 113 del 300;
#X obj 56 182 inccountdown 40 12;
#X obj 56 230 del 400;
#X msg 79 136 79 100;
#X msg 135 136 83 100;
#X msg 191 136 84 100;
#X msg 246 136 83 100;
#X obj 79 38 inlet;
#X msg 37 36 0;
#X msg 56 251 1;
#X obj 56 272 outlet;
#X obj 234 290 outlet;
#X connect 0 0 4 0;
#X connect 1 0 2 0;
#X connect 2 0 0 0;
#X connect 4 0 10 0;
#X connect 4 0 5 0;
#X connect 4 0 6 0;
#X connect 4 0 7 0;
#X connect 4 0 8 0;
#X connect 5 0 11 0;
#X connect 6 0 12 0;
#X connect 7 0 13 0;
#X connect 8 0 9 0;
#X connect 8 0 15 0;
#X connect 9 0 16 0;
#X connect 10 0 18 0;
#X connect 11 0 18 0;
#X connect 12 0 18 0;
#X connect 13 0 18 0;
#X connect 14 0 0 0;
#X connect 15 0 0 0;
#X connect 16 0 17 0;
#X restore 515 533 pd measure16;
#N canvas 0 50 504 434 measure17 0;
#X obj 63 59 tgl 15 0 empty empty empty 17 7 0 10 -262144 -1 -1 0 1
;
#X obj 111 38 r reset;
#X msg 111 58 0;
#X obj 119 113 del 100;
#X text 60 21 # 17 Sixteenths pt 2;
#X obj 63 80 metro 600;
#X obj 175 113 del 200;
#X obj 230 113 del 300;
#X obj 285 113 del 400;
#X obj 40 182 inccountdown 20 17;
#X obj 40 230 del 600;
#X msg 63 136 83 100;
#X msg 119 136 84 100;
#X msg 175 136 83 100;
#X msg 230 136 84 100;
#X msg 285 136 83 199;
#X obj 63 38 inlet;
#X msg 22 38 0;
#X msg 40 251 1;
#X obj 40 272 outlet;
#X obj 284 300 outlet;
#X connect 0 0 5 0;
#X connect 1 0 2 0;
#X connect 2 0 0 0;
#X connect 3 0 12 0;
#X connect 5 0 11 0;
#X connect 5 0 3 0;
#X connect 5 0 6 0;
#X connect 5 0 7 0;
#X connect 5 0 8 0;
#X connect 5 0 9 0;
#X connect 6 0 13 0;
#X connect 7 0 14 0;
#X connect 8 0 15 0;
#X connect 9 0 10 0;
#X connect 9 0 17 0;
#X connect 10 0 18 0;
#X connect 11 0 20 0;
#X connect 12 0 20 0;
#X connect 13 0 20 0;
#X connect 14 0 20 0;
#X connect 15 0 20 0;
#X connect 16 0 0 0;
#X connect 17 0 0 0;
#X connect 18 0 19 0;
#X restore 515 552 pd measure17;
#N canvas 0 50 476 358 measure18 0;
#X obj 63 59 tgl 15 0 empty empty empty 17 7 0 10 -262144 -1 -1 0 1
;
#X obj 111 38 r reset;
#X msg 111 58 0;
#X obj 119 113 del 100;
#X text 60 21 #18 Sixteenths pt 3;
#X obj 63 80 metro 800;
#X obj 175 113 del 200;
#X obj 230 113 del 300;
#X obj 285 113 del 400;
#X obj 340 113 del 700;
#X obj 40 182 inccountdown 20 5;
#X obj 40 226 del 800;
#X msg 63 136 76 100;
#X msg 119 136 78 100;
#X msg 175 136 76 100;
#X msg 230 136 78 100;
#X msg 285 136 76 300;
#X msg 340 136 76 99;
#X msg 29 36 0;
#X msg 40 247 1;
#X obj 40 268 outlet;
#X obj 63 38 inlet;
#X obj 356 317 outlet;
#X connect 0 0 5 0;
#X connect 1 0 2 0;
#X connect 2 0 0 0;
#X connect 3 0 13 0;
#X connect 5 0 12 0;
#X connect 5 0 3 0;
#X connect 5 0 6 0;
#X connect 5 0 7 0;
#X connect 5 0 8 0;
#X connect 5 0 9 0;
#X connect 5 0 10 0;
#X connect 6 0 14 0;
#X connect 7 0 15 0;
#X connect 8 0 16 0;
#X connect 9 0 17 0;
#X connect 10 0 11 0;
#X connect 10 0 18 0;
#X connect 11 0 19 0;
#X connect 12 0 22 0;
#X connect 13 0 22 0;
#X connect 14 0 22 0;
#X connect 15 0 22 0;
#X connect 16 0 22 0;
#X connect 17 0 22 0;
#X connect 18 0 0 0;
#X connect 19 0 20 0;
#X connect 21 0 0 0;
#X restore 515 572 pd measure18;
#N canvas 0 50 450 382 measure19 0;
#X obj 73 69 tgl 15 0 empty empty empty 17 7 0 10 -262144 -1 -1 0 1
;
#X obj 121 48 r reset;
#X msg 121 68 0;
#X text 70 31 #19 Isolated G;
#X obj 73 90 metro 1200;
#X obj 82 115 del 600;
#X obj 73 182 inccountdown 21 7;
#X obj 73 230 del 600;
#X msg 82 136 91 600;
#X msg 42 49 0;
#X msg 73 251 1;
#X obj 73 272 outlet;
#X obj 221 293 outlet;
#X obj 73 48 inlet;
#X connect 0 0 4 0;
#X connect 1 0 2 0;
#X connect 2 0 0 0;
#X connect 4 0 5 0;
#X connect 4 0 6 0;
#X connect 5 0 8 0;
#X connect 6 0 7 0;
#X connect 6 0 9 0;
#X connect 7 0 10 0;
#X connect 8 0 12 0;
#X connect 9 0 0 0;
#X connect 10 0 11 0;
#X connect 13 0 0 0;
#X restore 515 591 pd measure19;
#N canvas 0 50 860 300 measure20 0;
#X obj 203 56 tgl 15 0 empty empty empty 17 7 0 10 -262144 -1 -1 0
1;
#X obj 251 35 r reset;
#X msg 251 55 0;
#X obj 259 110 del 100;
#X obj 315 110 del 200;
#X obj 370 110 del 300;
#X obj 425 110 del 400;
#X text 200 18 #20 Sixteenths pt 4;
#X msg 703 130 76 80;
#X obj 480 110 del 700;
#X obj 538 107 del 800;
#X obj 593 107 del 900;
#X obj 648 107 del 1000;
#X obj 703 107 del 1100;
#X msg 538 130 78 90;
#X msg 593 130 76 90;
#X msg 648 130 78 280;
#X obj 203 77 metro 1200;
#X obj 55 180 inccountdown 20 5;
#X obj 55 225 del 1200;
#X msg 203 133 76 100;
#X msg 259 133 78 100;
#X msg 315 133 76 100;
#X msg 370 133 78 100;
#X msg 425 133 67 300;
#X msg 480 133 76 99;
#X obj 203 35 inlet;
#X msg 153 37 0;
#X msg 55 246 1;
#X obj 55 267 outlet;
#X obj 706 273 outlet;
#X connect 0 0 17 0;
#X connect 1 0 2 0;
#X connect 2 0 0 0;
#X connect 3 0 21 0;
#X connect 4 0 22 0;
#X connect 5 0 23 0;
#X connect 6 0 24 0;
#X connect 8 0 30 0;
#X connect 9 0 25 0;
#X connect 10 0 14 0;
#X connect 11 0 15 0;
#X connect 12 0 16 0;
#X connect 13 0 8 0;
#X connect 14 0 30 0;
#X connect 15 0 30 0;
#X connect 16 0 30 0;
#X connect 17 0 20 0;
#X connect 17 0 3 0;
#X connect 17 0 4 0;
#X connect 17 0 5 0;
#X connect 17 0 6 0;
#X connect 17 0 9 0;
#X connect 17 0 10 0;
#X connect 17 0 11 0;
#X connect 17 0 12 0;
#X connect 17 0 13 0;
#X connect 17 0 18 0;
#X connect 18 0 19 0;
#X connect 18 0 27 0;
#X connect 19 0 28 0;
#X connect 20 0 30 0;
#X connect 21 0 30 0;
#X connect 22 0 30 0;
#X connect 23 0 30 0;
#X connect 24 0 30 0;
#X connect 25 0 30 0;
#X connect 26 0 0 0;
#X connect 27 0 0 0;
#X connect 28 0 29 0;
#X restore 515 611 pd measure20;
#N canvas 0 50 450 471 measure21 0;
#X obj 62 69 tgl 15 0 empty empty empty 17 7 0 10 -262144 -1 -1 0 1
;
#X obj 110 48 r reset;
#X msg 110 68 0;
#X text 59 31 #21 Isolated F#;
#X obj 62 90 metro 1200;
#X obj 62 162 inccountdown 15 4;
#X obj 43 218 del 1200;
#X msg 71 116 78 1199;
#X obj 43 260 outlet;
#X obj 259 296 outlet;
#X msg 25 47 0;
#X msg 43 239 1;
#X obj 62 48 inlet;
#X connect 0 0 4 0;
#X connect 1 0 2 0;
#X connect 2 0 0 0;
#X connect 4 0 7 0;
#X connect 4 0 5 0;
#X connect 5 0 6 0;
#X connect 5 0 10 0;
#X connect 6 0 11 0;
#X connect 7 0 9 0;
#X connect 10 0 0 0;
#X connect 11 0 8 0;
#X connect 12 0 0 0;
#X restore 515 631 pd measure21;
#N canvas 0 50 774 597 measure22 0;
#X obj 113 89 tgl 15 0 empty empty empty 17 7 0 10 -262144 -1 -1 0
1;
#X obj 161 68 r reset;
#X msg 161 88 0;
#X text 110 51 #22 6/8 Transition pt 1;
#X obj 113 110 metro 5000;
#X obj 267 255 del 600;
#X obj 323 255 del 1200;
#X obj 378 255 del 1800;
#X obj 433 255 del 2400;
#X obj 488 255 del 3000;
#X obj 558 258 del 3600;
#X obj 613 258 del 4200;
#X obj 668 258 del 4800;
#X obj 30 282 inccountdown 8 4;
#X obj 30 330 del 5000;
#X msg 211 278 76 599;
#X msg 267 278 76 599;
#X msg 433 278 76 599;
#X msg 323 278 76 599;
#X msg 378 278 76 599;
#X msg 488 278 78 599;
#X msg 558 281 79 599;
#X msg 613 281 81 599;
#X msg 668 281 83 199;
#X obj 113 68 inlet;
#X msg 56 70 0;
#X msg 30 351 1;
#X obj 30 372 outlet;
#X obj 434 452 outlet;
#X connect 0 0 4 0;
#X connect 1 0 2 0;
#X connect 2 0 0 0;
#X connect 4 0 15 0;
#X connect 4 0 5 0;
#X connect 4 0 6 0;
#X connect 4 0 7 0;
#X connect 4 0 8 0;
#X connect 4 0 9 0;
#X connect 4 0 10 0;
#X connect 4 0 11 0;
#X connect 4 0 12 0;
#X connect 4 0 13 0;
#X connect 5 0 16 0;
#X connect 6 0 18 0;
#X connect 7 0 19 0;
#X connect 8 0 17 0;
#X connect 8 0 17 0;
#X connect 9 0 20 0;
#X connect 10 0 21 0;
#X connect 11 0 22 0;
#X connect 12 0 23 0;
#X connect 13 0 14 0;
#X connect 13 0 25 0;
#X connect 14 0 26 0;
#X connect 15 0 28 0;
#X connect 16 0 28 0;
#X connect 17 0 28 0;
#X connect 18 0 28 0;
#X connect 19 0 28 0;
#X connect 20 0 28 0;
#X connect 21 0 28 0;
#X connect 22 0 28 0;
#X connect 23 0 28 0;
#X connect 24 0 0 0;
#X connect 25 0 0 0;
#X connect 26 0 27 0;
#X restore 515 651 pd measure22;
#N canvas 0 50 879 539 measure23 0;
#X obj 65 56 tgl 15 0 empty empty empty 17 7 0 10 -262144 -1 -1 0 1
;
#X obj 113 35 r reset;
#X msg 113 55 0;
#X obj 192 200 del 200;
#X obj 248 200 del 800;
#X obj 303 200 del 1400;
#X obj 358 200 del 2000;
#X obj 413 200 del 2600;
#X obj 486 200 del 3200;
#X obj 541 200 del 3800;
#X obj 596 200 del 4400;
#X text 62 18 #23 6/8 Transition pt 2;
#X obj 65 77 metro 4800;
#X obj 37 271 inccountdown 8 4;
#X obj 32 331 del 4800;
#X msg 136 223 76 599;
#X msg 192 223 78 599;
#X msg 248 223 78 599;
#X msg 303 223 78 599;
#X msg 358 223 78 599;
#X msg 413 223 78 599;
#X msg 486 223 79 599;
#X msg 541 223 81 599;
#X msg 596 223 83 399;
#X msg 21 32 0;
#X msg 32 352 1;
#X obj 32 373 outlet;
#X obj 459 423 outlet;
#X obj 65 35 inlet;
#X connect 0 0 12 0;
#X connect 1 0 2 0;
#X connect 2 0 0 0;
#X connect 3 0 16 0;
#X connect 4 0 17 0;
#X connect 5 0 18 0;
#X connect 6 0 19 0;
#X connect 7 0 20 0;
#X connect 8 0 21 0;
#X connect 9 0 22 0;
#X connect 10 0 23 0;
#X connect 12 0 15 0;
#X connect 12 0 3 0;
#X connect 12 0 4 0;
#X connect 12 0 5 0;
#X connect 12 0 6 0;
#X connect 12 0 7 0;
#X connect 12 0 8 0;
#X connect 12 0 9 0;
#X connect 12 0 10 0;
#X connect 12 0 13 0;
#X connect 13 0 14 0;
#X connect 13 0 24 0;
#X connect 14 0 25 0;
#X connect 15 0 27 0;
#X connect 16 0 27 0;
#X connect 17 0 27 0;
#X connect 18 0 27 0;
#X connect 19 0 27 0;
#X connect 20 0 27 0;
#X connect 21 0 27 0;
#X connect 22 0 27 0;
#X connect 23 0 27 0;
#X connect 24 0 0 0;
#X connect 25 0 26 0;
#X connect 28 0 0 0;
#X restore 515 671 pd measure23;
#N canvas 0 50 930 536 measure24 0;
#X obj 105 72 tgl 15 0 empty empty empty 17 7 0 10 -262144 -1 -1 0
1;
#X obj 153 51 r reset;
#X msg 153 71 0;
#X obj 210 193 del 200;
#X text 102 34 #24 6/8 Transition pt 3;
#X obj 105 93 metro 4200;
#X obj 604 195 del 4000;
#X obj 266 193 del 400;
#X obj 321 193 del 1000;
#X obj 376 193 del 1600;
#X obj 431 193 del 2200;
#X obj 494 195 del 2800;
#X obj 549 195 del 3400;
#X obj 10 221 inccountdown 8 4;
#X obj 48 269 del 4200;
#X msg 154 216 76 199;
#X msg 210 216 78 199;
#X msg 266 216 79 599;
#X msg 321 216 79 599;
#X msg 376 216 79 599;
#X msg 431 216 79 599;
#X msg 494 218 79 599;
#X msg 549 218 81 599;
#X msg 604 218 83 199;
#X msg 10 266 0;
#X msg 48 290 1;
#X obj 48 311 outlet;
#X obj 529 423 outlet;
#X obj 105 51 inlet;
#X connect 0 0 5 0;
#X connect 1 0 2 0;
#X connect 2 0 0 0;
#X connect 3 0 16 0;
#X connect 5 0 15 0;
#X connect 5 0 3 0;
#X connect 5 0 6 0;
#X connect 5 0 7 0;
#X connect 5 0 8 0;
#X connect 5 0 9 0;
#X connect 5 0 10 0;
#X connect 5 0 11 0;
#X connect 5 0 12 0;
#X connect 5 0 13 0;
#X connect 6 0 23 0;
#X connect 7 0 17 0;
#X connect 8 0 18 0;
#X connect 9 0 19 0;
#X connect 10 0 20 0;
#X connect 11 0 21 0;
#X connect 12 0 22 0;
#X connect 13 0 14 0;
#X connect 13 0 24 0;
#X connect 14 0 25 0;
#X connect 15 0 27 0;
#X connect 16 0 27 0;
#X connect 17 0 27 0;
#X connect 18 0 27 0;
#X connect 19 0 27 0;
#X connect 20 0 27 0;
#X connect 21 0 27 0;
#X connect 22 0 27 0;
#X connect 23 0 27 0;
#X connect 24 0 0 0;
#X connect 25 0 26 0;
#X connect 28 0 0 0;
#X restore 515 690 pd measure24;
#N canvas 0 50 932 426 measure25 0;
#X obj 102 63 tgl 15 0 empty empty empty 17 7 0 10 -262144 -1 -1 0
1;
#X obj 150 42 r reset;
#X msg 150 62 0;
#X obj 102 84 metro 4200;
#X obj 244 189 del 400;
#X obj 188 189 del 200;
#X obj 299 189 del 600;
#X obj 354 189 del 1200;
#X obj 409 189 del 1800;
#X obj 475 190 del 2400;
#X obj 530 190 del 3000;
#X obj 585 190 del 3600;
#X text 99 25 #25 6/8 Transition pt 4;
#X obj 62 267 inccountdown 8 4;
#X obj 100 315 del 4200;
#X msg 132 212 76 199;
#X msg 188 212 78 199;
#X msg 244 212 79 199;
#X msg 299 212 81 599;
#X msg 354 212 81 599;
#X msg 409 212 81 599;
#X msg 475 213 81 599;
#X msg 530 213 81 599;
#X msg 585 213 83 599;
#X msg 54 43 0;
#X msg 100 336 1;
#X obj 100 357 outlet;
#X obj 614 389 outlet;
#X obj 102 42 inlet;
#X connect 0 0 3 0;
#X connect 1 0 2 0;
#X connect 2 0 0 0;
#X connect 3 0 15 0;
#X connect 3 0 4 0;
#X connect 3 0 5 0;
#X connect 3 0 6 0;
#X connect 3 0 7 0;
#X connect 3 0 8 0;
#X connect 3 0 9 0;
#X connect 3 0 10 0;
#X connect 3 0 11 0;
#X connect 3 0 13 0;
#X connect 4 0 17 0;
#X connect 5 0 16 0;
#X connect 6 0 18 0;
#X connect 7 0 19 0;
#X connect 8 0 20 0;
#X connect 9 0 21 0;
#X connect 10 0 22 0;
#X connect 11 0 23 0;
#X connect 13 0 14 0;
#X connect 13 0 24 0;
#X connect 14 0 25 0;
#X connect 15 0 27 0;
#X connect 16 0 27 0;
#X connect 17 0 27 0;
#X connect 18 0 27 0;
#X connect 19 0 27 0;
#X connect 20 0 27 0;
#X connect 21 0 27 0;
#X connect 22 0 27 0;
#X connect 23 0 27 0;
#X connect 24 0 0 0;
#X connect 25 0 26 0;
#X connect 28 0 0 0;
#X restore 515 710 pd measure25;
#N canvas 0 50 1031 529 measure26 0;
#X obj 248 89 tgl 15 0 empty empty empty 17 7 0 10 -262144 -1 -1 0
1;
#X obj 306 68 r reset;
#X msg 306 88 0;
#X obj 367 230 del 400;
#X obj 311 230 del 200;
#X obj 422 230 del 600;
#X text 245 51 #26 6/8 Transition pt 5;
#X obj 477 230 del 800;
#X obj 248 110 metro 3800;
#X obj 532 230 del 1400;
#X obj 593 228 del 2000;
#X obj 648 228 del 2600;
#X obj 703 228 del 3200;
#X obj 88 249 inccountdown 8 4;
#X obj 126 297 del 3800;
#X msg 255 253 76 199;
#X msg 311 253 78 199;
#X msg 367 253 79 199;
#X msg 422 253 81 199;
#X msg 477 253 83 599;
#X msg 532 253 83 599;
#X msg 593 251 83 599;
#X msg 648 251 83 599;
#X msg 703 251 83 599;
#X msg 88 294 0;
#X msg 126 318 1;
#X obj 126 339 outlet;
#X obj 470 410 outlet;
#X obj 248 68 inlet;
#X connect 0 0 8 0;
#X connect 1 0 2 0;
#X connect 2 0 0 0;
#X connect 3 0 17 0;
#X connect 4 0 16 0;
#X connect 5 0 18 0;
#X connect 7 0 19 0;
#X connect 8 0 15 0;
#X connect 8 0 3 0;
#X connect 8 0 4 0;
#X connect 8 0 5 0;
#X connect 8 0 7 0;
#X connect 8 0 9 0;
#X connect 8 0 10 0;
#X connect 8 0 11 0;
#X connect 8 0 12 0;
#X connect 8 0 13 0;
#X connect 9 0 20 0;
#X connect 10 0 21 0;
#X connect 11 0 22 0;
#X connect 12 0 23 0;
#X connect 13 0 14 0;
#X connect 13 0 24 0;
#X connect 14 0 25 0;
#X connect 15 0 27 0;
#X connect 16 0 27 0;
#X connect 17 0 27 0;
#X connect 18 0 27 0;
#X connect 19 0 27 0;
#X connect 20 0 27 0;
#X connect 21 0 27 0;
#X connect 22 0 27 0;
#X connect 23 0 27 0;
#X connect 24 0 0 0;
#X connect 25 0 26 0;
#X connect 28 0 0 0;
#X restore 515 730 pd measure26;
#N canvas 4 51 1003 566 measure27 0;
#X obj 323 169 tgl 15 0 empty empty empty 17 7 0 10 -262144 -1 -1 0
1;
#X obj 371 148 r reset;
#X msg 371 168 0;
#X obj 288 307 del 100;
#X obj 344 307 del 200;
#X obj 399 307 del 300;
#X obj 454 307 del 400;
#X obj 621 307 del 800;
#X obj 676 307 del 900;
#X obj 731 307 del 1000;
#X obj 786 307 del 1100;
#X obj 323 190 metro 1200;
#X text 320 131 #27 -reprise 20;
#X obj 564 307 del 700;
#X obj 509 307 del 600;
#X obj 77 314 inccountdown 20 5;
#X obj 115 362 del 1200;
#X msg 232 330 76 99;
#X msg 288 330 78 99;
#X msg 344 330 76 99;
#X msg 399 330 78 99;
#X msg 454 330 79 199;
#X msg 509 330 76 199;
#X msg 564 330 79 199;
#X msg 621 330 78 199;
#X msg 676 330 76 199;
#X msg 731 330 78 199;
#X msg 786 330 76 99;
#X msg 77 359 0;
#X msg 115 383 1;
#X obj 115 404 outlet;
#X obj 451 479 outlet;
#X obj 324 148 inlet;
#X connect 0 0 11 0;
#X connect 1 0 2 0;
#X connect 2 0 0 0;
#X connect 3 0 18 0;
#X connect 4 0 19 0;
#X connect 5 0 20 0;
#X connect 6 0 21 0;
#X connect 7 0 24 0;
#X connect 8 0 25 0;
#X connect 9 0 26 0;
#X connect 10 0 27 0;
#X connect 11 0 17 0;
#X connect 11 0 3 0;
#X connect 11 0 4 0;
#X connect 11 0 5 0;
#X connect 11 0 6 0;
#X connect 11 0 7 0;
#X connect 11 0 8 0;
#X connect 11 0 9 0;
#X connect 11 0 10 0;
#X connect 11 0 13 0;
#X connect 11 0 14 0;
#X connect 11 0 15 0;
#X connect 13 0 23 0;
#X connect 14 0 22 0;
#X connect 15 0 16 0;
#X connect 15 0 28 0;
#X connect 16 0 29 0;
#X connect 17 0 31 0;
#X connect 18 0 31 0;
#X connect 19 0 31 0;
#X connect 20 0 31 0;
#X connect 21 0 31 0;
#X connect 22 0 31 0;
#X connect 23 0 31 0;
#X connect 24 0 31 0;
#X connect 25 0 31 0;
#X connect 26 0 31 0;
#X connect 27 0 31 0;
#X connect 28 0 0 0;
#X connect 29 0 30 0;
#X connect 32 0 0 0;
#X restore 515 750 pd measure27;
#N canvas -8 -8 1366 725 measure28 0;
#X obj 211 87 tgl 15 0 empty empty empty 17 7 0 10 -262144 -1 -1 0
1;
#X obj 259 66 r reset;
#X msg 259 86 0;
#X obj 293 203 del 100;
#X obj 349 203 del 200;
#X obj 404 203 del 300;
#X obj 459 203 del 400;
#X obj 514 203 del 700;
#X text 208 50 #28 reprise shorter;
#X obj 211 108 metro 800;
#X obj 60 212 inccountdown 20 5;
#X obj 98 260 del 800;
#X msg 237 226 76 100;
#X msg 293 226 78 100;
#X msg 349 226 76 100;
#X msg 404 226 78 100;
#X msg 459 226 76 300;
#X msg 514 226 76 99;
#X obj 211 66 inlet;
#X msg 147 72 0;
#X msg 98 281 1;
#X obj 98 302 outlet;
#X obj 378 359 outlet;
#X connect 0 0 9 0;
#X connect 1 0 2 0;
#X connect 2 0 0 0;
#X connect 3 0 13 0;
#X connect 4 0 14 0;
#X connect 5 0 15 0;
#X connect 6 0 16 0;
#X connect 7 0 17 0;
#X connect 9 0 12 0;
#X connect 9 0 3 0;
#X connect 9 0 4 0;
#X connect 9 0 5 0;
#X connect 9 0 6 0;
#X connect 9 0 7 0;
#X connect 9 0 10 0;
#X connect 10 0 11 0;
#X connect 10 0 19 0;
#X connect 11 0 20 0;
#X connect 12 0 22 0;
#X connect 13 0 22 0;
#X connect 14 0 22 0;
#X connect 15 0 22 0;
#X connect 16 0 22 0;
#X connect 17 0 22 0;
#X connect 18 0 0 0;
#X connect 19 0 0 0;
#X connect 20 0 21 0;
#X restore 515 770 pd measure28;
#N canvas -8 -8 1366 725 measure29 0;
#X obj 268 104 tgl 15 0 empty empty empty 17 7 0 10 -262144 -1 -1 0
1;
#X obj 316 83 r reset;
#X msg 316 103 0;
#X obj 382 264 del 1200;
#X obj 438 264 del 2400;
#X obj 268 125 metro 3600;
#X text 265 67 #29 long notes C chord;
#X obj 131 261 inccountdown 10 3;
#X obj 169 309 del 3600;
#X msg 326 287 76 1200;
#X msg 382 287 79 1200;
#X msg 438 287 84 1200;
#X msg 131 306 0;
#X msg 169 330 1;
#X obj 169 351 outlet;
#X obj 377 385 outlet;
#X obj 268 83 inlet;
#X connect 0 0 5 0;
#X connect 1 0 2 0;
#X connect 2 0 0 0;
#X connect 3 0 10 0;
#X connect 4 0 11 0;
#X connect 5 0 9 0;
#X connect 5 0 3 0;
#X connect 5 0 4 0;
#X connect 5 0 7 0;
#X connect 7 0 8 0;
#X connect 7 0 12 0;
#X connect 8 0 13 0;
#X connect 9 0 15 0;
#X connect 10 0 15 0;
#X connect 11 0 15 0;
#X connect 12 0 0 0;
#X connect 13 0 14 0;
#X connect 16 0 0 0;
#X restore 515 790 pd measure29;
#N canvas -8 -8 1366 725 measure30 0;
#X obj 187 86 tgl 15 0 empty empty empty 17 7 0 10 -262144 -1 -1 0
1;
#X obj 235 65 r reset;
#X msg 235 85 0;
#X text 184 48 #30 C .whole;
#X obj 187 106 metro 2400;
#X obj 113 197 inccountdown 10 4;
#X obj 151 245 del 2400;
#X msg 317 217 84 2399;
#X obj 187 65 inlet;
#X msg 113 242 0;
#X msg 151 266 1;
#X obj 151 287 outlet;
#X obj 323 351 outlet;
#X connect 0 0 4 0;
#X connect 1 0 2 0;
#X connect 2 0 0 0;
#X connect 4 0 7 0;
#X connect 4 0 5 0;
#X connect 5 0 6 0;
#X connect 5 0 9 0;
#X connect 6 0 10 0;
#X connect 7 0 12 0;
#X connect 8 0 0 0;
#X connect 9 0 0 0;
#X connect 10 0 11 0;
#X restore 515 810 pd measure30;
#N canvas -8 -8 1366 725 measure31 0;
#X obj 142 115 tgl 15 0 empty empty empty 17 7 0 10 -262144 -1 -1 0
1;
#X obj 190 94 r reset;
#X msg 190 114 0;
#X obj 340 220 del 100;
#X obj 396 220 del 200;
#X obj 451 220 del 300;
#X obj 506 220 del 400;
#X text 139 68 #31 3/8 sixtheenths;
#X obj 561 220 del 500;
#X obj 142 136 metro 600;
#X obj 119 238 inccountdown 30 9;
#X obj 86 315 del 600;
#X msg 284 243 79 100;
#X msg 340 243 77 100;
#X msg 396 243 79 100;
#X msg 451 243 83 100;
#X msg 506 243 79 100;
#X msg 561 243 83 100;
#X obj 142 94 inlet;
#X msg 81 85 0;
#X msg 86 336 1;
#X obj 86 357 outlet;
#X obj 365 378 outlet;
#X connect 0 0 9 0;
#X connect 1 0 2 0;
#X connect 2 0 0 0;
#X connect 3 0 13 0;
#X connect 4 0 14 0;
#X connect 5 0 15 0;
#X connect 6 0 16 0;
#X connect 8 0 17 0;
#X connect 9 0 12 0;
#X connect 9 0 3 0;
#X connect 9 0 4 0;
#X connect 9 0 5 0;
#X connect 9 0 6 0;
#X connect 9 0 8 0;
#X connect 9 0 10 0;
#X connect 10 0 11 0;
#X connect 10 0 19 0;
#X connect 11 0 20 0;
#X connect 12 0 22 0;
#X connect 13 0 22 0;
#X connect 14 0 22 0;
#X connect 15 0 22 0;
#X connect 16 0 22 0;
#X connect 17 0 22 0;
#X connect 18 0 0 0;
#X connect 19 0 0 0;
#X connect 20 0 21 0;
#X restore 515 830 pd measure31;
#N canvas -8 -8 1366 725 measure32 0;
#X obj 157 132 tgl 15 0 empty empty empty 17 7 0 10 -262144 -1 -1 0
1;
#X obj 205 111 r reset;
#X msg 205 131 0;
#X obj 341 234 del 100;
#X obj 397 234 del 200;
#X obj 452 234 del 300;
#X obj 507 234 del 400;
#X obj 562 234 del 500;
#X text 154 95 #32 3/8 elaboration;
#X obj 157 153 metro 2400;
#X obj 617 234 del 1800;
#X obj 134 255 inccountdown 30 4;
#X obj 127 303 del 2400;
#X msg 285 257 77 100;
#X msg 341 257 79 100;
#X msg 397 257 77 100;
#X msg 452 257 79 100;
#X msg 507 257 83 100;
#X msg 562 257 77 1300;
#X msg 617 257 79 600;
#X obj 157 111 inlet;
#X msg 110 107 0;
#X msg 127 324 1;
#X obj 127 345 outlet;
#X obj 418 379 outlet;
#X connect 0 0 9 0;
#X connect 1 0 2 0;
#X connect 2 0 0 0;
#X connect 3 0 14 0;
#X connect 4 0 15 0;
#X connect 5 0 16 0;
#X connect 6 0 17 0;
#X connect 7 0 18 0;
#X connect 9 0 13 0;
#X connect 9 0 3 0;
#X connect 9 0 4 0;
#X connect 9 0 5 0;
#X connect 9 0 6 0;
#X connect 9 0 7 0;
#X connect 9 0 10 0;
#X connect 9 0 11 0;
#X connect 10 0 19 0;
#X connect 11 0 12 0;
#X connect 11 0 21 0;
#X connect 12 0 22 0;
#X connect 13 0 24 0;
#X connect 14 0 24 0;
#X connect 15 0 24 0;
#X connect 16 0 24 0;
#X connect 17 0 24 0;
#X connect 18 0 24 0;
#X connect 19 0 24 0;
#X connect 20 0 0 0;
#X connect 21 0 0 0;
#X connect 22 0 23 0;
#X restore 515 850 pd measure32;
#X msg 365 873 33;
#X msg 365 893 34;
#X msg 365 913 35;
#X msg 365 933 36;
#X msg 365 953 37;
#X msg 365 973 38;
#X msg 365 993 39;
#X msg 365 1013 40;
#X msg 365 1033 41;
#X msg 365 1053 42;
#X msg 365 1073 43;
#X msg 365 1093 44;
#X msg 365 1113 45;
#X msg 365 1133 46;
#X msg 365 1153 47;
#X msg 365 1173 48;
#X msg 365 1193 49;
#X msg 365 1213 50;
#X msg 365 1233 51;
#X msg 365 1253 52;
#X msg 365 1273 53;
#X msg 365 1293 54;
#X obj 1305 902 vsl 15 500 0 127 0 0 empty empty empty 0 -9 0 10 -262144
-1 -1 0 1;
#N canvas -8 -8 1366 725 measure33 0;
#X obj 37 37 inlet;
#X obj 46 59 tgl 15 0 empty empty empty 17 7 0 10 -262144 -1 -1 0 1
;
#X obj 84 38 r reset;
#X msg 84 58 0;
#X obj 289 151 del 100;
#X text 43 22 #33 Sixteenths transition;
#X obj 46 80 metro 400;
#X obj 46 170 inccountdown 40 12;
#X obj 84 218 del 400;
#X msg 233 174 79 100;
#X msg 289 174 77 100;
#X msg 16 60 0;
#X msg 84 239 1;
#X obj 84 260 outlet;
#X obj 261 291 outlet;
#X connect 0 0 1 0;
#X connect 1 0 6 0;
#X connect 2 0 3 0;
#X connect 3 0 1 0;
#X connect 4 0 10 0;
#X connect 6 0 9 0;
#X connect 6 0 4 0;
#X connect 6 0 7 0;
#X connect 7 0 8 0;
#X connect 7 0 11 0;
#X connect 8 0 12 0;
#X connect 9 0 14 0;
#X connect 10 0 14 0;
#X connect 11 0 1 0;
#X connect 12 0 13 0;
#X restore 515 871 pd measure33;
#N canvas -8 -8 1366 725 measure34 0;
#X obj 176 65 tgl 15 0 empty empty empty 17 7 0 10 -262144 -1 -1 0
1;
#X obj 224 44 r reset;
#X msg 224 64 0;
#X obj 433 169 del 100;
#X text 173 28 #34 Sixteenths transition 2;
#X obj 176 86 metro 200;
#X obj 176 176 inccountdown 45 15;
#X obj 167 234 del 200;
#X msg 377 192 79 100;
#X msg 433 192 77 100;
#X obj 176 44 inlet;
#X msg 126 43 0;
#X msg 167 255 1;
#X obj 167 276 outlet;
#X obj 369 300 outlet;
#X connect 0 0 5 0;
#X connect 1 0 2 0;
#X connect 2 0 0 0;
#X connect 3 0 9 0;
#X connect 5 0 8 0;
#X connect 5 0 3 0;
#X connect 5 0 6 0;
#X connect 6 0 7 0;
#X connect 6 0 11 0;
#X connect 7 0 12 0;
#X connect 8 0 14 0;
#X connect 9 0 14 0;
#X connect 10 0 0 0;
#X connect 11 0 0 0;
#X connect 12 0 13 0;
#X restore 515 892 pd measure34;
#N canvas -8 -8 1366 725 measure35 0;
#X obj 172 76 tgl 15 0 empty empty empty 17 7 0 10 -262144 -1 -1 0
1;
#X obj 220 55 r reset;
#X msg 220 75 0;
#X obj 219 223 del 100;
#X obj 268 224 del 200;
#X obj 317 224 del 300;
#X obj 366 224 del 400;
#X obj 416 224 del 500;
#X text 169 39 #35 Gigantic Melody;
#X obj 172 97 metro 13200;
#X obj 465 224 del 600;
#X obj 515 224 del 700;
#X obj 564 224 del 800;
#X obj 615 224 del 900;
#X obj 666 224 del 2400;
#X obj 721 224 del 2800;
#X obj 776 224 del 4000;
#X obj 831 224 del 4200;
#X obj 886 224 del 4600;
#X obj 941 224 del 4800;
#X obj 996 224 del 5400;
#X obj 1107 224 del 7200;
#X obj 1162 224 del 7400;
#X obj 1217 224 del 9800;
#X obj 1272 224 del 10800;
#X obj 33 194 inccountdown 10 3;
#X obj 1051 224 del 5600;
#X obj 26 250 del 13200;
#X msg 172 246 77 100;
#X msg 219 246 79 100;
#X msg 268 247 83 100;
#X msg 317 247 79 100;
#X msg 366 247 83 100;
#X msg 416 247 79 100;
#X msg 465 247 83 100;
#X msg 515 247 79 100;
#X msg 564 247 83 100;
#X msg 615 247 79 100;
#X msg 666 247 82 200;
#X msg 721 247 91 1200;
#X msg 776 247 93 200;
#X msg 831 247 91 400;
#X msg 886 247 95 200;
#X msg 941 247 93 300;
#X msg 996 247 91 200;
#X msg 1051 247 88 1200;
#X msg 1107 247 91 200;
#X msg 1162 247 90 1400;
#X msg 1217 247 88 1000;
#X msg 1272 247 89 1200;
#X msg 66 48 0;
#X obj 172 55 inlet;
#X msg 26 271 1;
#X obj 26 292 outlet;
#X obj 732 434 outlet;
#X connect 0 0 9 0;
#X connect 1 0 2 0;
#X connect 2 0 0 0;
#X connect 3 0 29 0;
#X connect 4 0 30 0;
#X connect 5 0 31 0;
#X connect 6 0 32 0;
#X connect 7 0 33 0;
#X connect 9 0 28 0;
#X connect 9 0 3 0;
#X connect 9 0 4 0;
#X connect 9 0 5 0;
#X connect 9 0 6 0;
#X connect 9 0 7 0;
#X connect 9 0 10 0;
#X connect 9 0 11 0;
#X connect 9 0 12 0;
#X connect 9 0 13 0;
#X connect 9 0 14 0;
#X connect 9 0 15 0;
#X connect 9 0 16 0;
#X connect 9 0 17 0;
#X connect 9 0 18 0;
#X connect 9 0 19 0;
#X connect 9 0 20 0;
#X connect 9 0 21 0;
#X connect 9 0 22 0;
#X connect 9 0 23 0;
#X connect 9 0 24 0;
#X connect 9 0 25 0;
#X connect 9 0 26 0;
#X connect 10 0 34 0;
#X connect 11 0 35 0;
#X connect 12 0 36 0;
#X connect 13 0 37 0;
#X connect 14 0 38 0;
#X connect 15 0 39 0;
#X connect 16 0 40 0;
#X connect 17 0 41 0;
#X connect 18 0 42 0;
#X connect 19 0 43 0;
#X connect 20 0 44 0;
#X connect 21 0 46 0;
#X connect 22 0 47 0;
#X connect 23 0 48 0;
#X connect 24 0 49 0;
#X connect 25 0 27 0;
#X connect 25 0 50 0;
#X connect 26 0 45 0;
#X connect 27 0 52 0;
#X connect 28 0 54 0;
#X connect 29 0 54 0;
#X connect 30 0 54 0;
#X connect 31 0 54 0;
#X connect 32 0 54 0;
#X connect 33 0 54 0;
#X connect 34 0 54 0;
#X connect 35 0 54 0;
#X connect 36 0 54 0;
#X connect 37 0 54 0;
#X connect 38 0 54 0;
#X connect 39 0 54 0;
#X connect 40 0 54 0;
#X connect 41 0 54 0;
#X connect 42 0 54 0;
#X connect 43 0 54 0;
#X connect 44 0 54 0;
#X connect 45 0 54 0;
#X connect 46 0 54 0;
#X connect 47 0 54 0;
#X connect 48 0 54 0;
#X connect 49 0 54 0;
#X connect 50 0 0 0;
#X connect 51 0 0 0;
#X connect 52 0 53 0;
#X restore 515 912 pd measure35;
#N canvas -8 -8 1366 725 measure36 0;
#X obj 294 135 tgl 15 0 empty empty empty 17 7 0 10 -262144 -1 -1 0
1;
#X obj 342 114 r reset;
#X msg 342 134 0;
#X obj 522 262 del 100;
#X obj 578 262 del 200;
#X obj 633 262 del 300;
#X obj 689 262 del 400;
#X obj 744 262 del 500;
#X obj 294 156 metro 600;
#X text 292 97 #36 reprise 11;
#X obj 271 258 inccountdown 40 9;
#X obj 265 306 del 600;
#X msg 466 285 77 100;
#X msg 522 285 79 100;
#X msg 578 285 83 100;
#X msg 633 285 79 100;
#X msg 689 285 83 100;
#X msg 744 285 79 100;
#X obj 294 114 inlet;
#X msg 229 113 0;
#X msg 265 327 1;
#X obj 265 348 outlet;
#X obj 604 394 outlet;
#X connect 0 0 8 0;
#X connect 1 0 2 0;
#X connect 2 0 0 0;
#X connect 3 0 13 0;
#X connect 4 0 14 0;
#X connect 5 0 15 0;
#X connect 6 0 16 0;
#X connect 7 0 17 0;
#X connect 8 0 12 0;
#X connect 8 0 3 0;
#X connect 8 0 4 0;
#X connect 8 0 5 0;
#X connect 8 0 6 0;
#X connect 8 0 7 0;
#X connect 8 0 10 0;
#X connect 10 0 11 0;
#X connect 10 0 19 0;
#X connect 11 0 20 0;
#X connect 12 0 22 0;
#X connect 13 0 22 0;
#X connect 14 0 22 0;
#X connect 15 0 22 0;
#X connect 16 0 22 0;
#X connect 17 0 22 0;
#X connect 18 0 0 0;
#X connect 19 0 0 0;
#X connect 20 0 21 0;
#X restore 515 932 pd measure36;
#N canvas -8 -8 1366 725 measure37 0;
#X obj 215 105 tgl 15 0 empty empty empty 17 7 0 10 -262144 -1 -1 0
1;
#X obj 263 84 r reset;
#X msg 263 104 0;
#X obj 469 188 del 100;
#X obj 215 126 metro 200;
#X text 212 67 #37 Sixteenths trns rep;
#X obj 215 216 inccountdown 45 15;
#X obj 213 264 del 200;
#X msg 413 211 77 100;
#X msg 469 211 79 100;
#X obj 215 84 inlet;
#X msg 168 78 0;
#X msg 213 285 1;
#X obj 213 306 outlet;
#X obj 447 337 outlet;
#X connect 0 0 4 0;
#X connect 1 0 2 0;
#X connect 2 0 0 0;
#X connect 3 0 9 0;
#X connect 4 0 8 0;
#X connect 4 0 3 0;
#X connect 4 0 6 0;
#X connect 6 0 7 0;
#X connect 6 0 11 0;
#X connect 7 0 12 0;
#X connect 8 0 14 0;
#X connect 9 0 14 0;
#X connect 10 0 0 0;
#X connect 11 0 0 0;
#X connect 12 0 13 0;
#X restore 515 952 pd measure37;
#N canvas -8 -8 1366 725 measure38 0;
#X obj 146 114 tgl 15 0 empty empty empty 17 7 0 10 -262144 -1 -1 0
1;
#X obj 194 93 r reset;
#X msg 194 113 0;
#X obj 441 243 del 100;
#X text 143 76 #38 Sixteenths trns rep2;
#X obj 146 135 metro 300;
#X obj 496 243 del 200;
#X obj 146 225 inccountdown 42 12;
#X obj 144 273 del 300;
#X msg 385 266 77 100;
#X msg 441 266 79 100;
#X msg 496 266 83 100;
#X msg 105 90 0;
#X msg 144 294 1;
#X obj 144 315 outlet;
#X obj 432 360 outlet;
#X obj 146 93 inlet;
#X connect 0 0 5 0;
#X connect 1 0 2 0;
#X connect 2 0 0 0;
#X connect 3 0 10 0;
#X connect 5 0 9 0;
#X connect 5 0 3 0;
#X connect 5 0 6 0;
#X connect 5 0 7 0;
#X connect 6 0 11 0;
#X connect 7 0 8 0;
#X connect 7 0 12 0;
#X connect 8 0 13 0;
#X connect 9 0 15 0;
#X connect 10 0 15 0;
#X connect 11 0 15 0;
#X connect 12 0 0 0;
#X connect 13 0 14 0;
#X connect 16 0 0 0;
#X restore 515 972 pd measure38;
#N canvas -8 -8 1366 725 measure39 0;
#X obj 197 78 tgl 15 0 empty empty empty 17 7 0 10 -262144 -1 -1 0
1;
#X obj 245 57 r reset;
#X msg 245 77 0;
#X obj 446 188 del 100;
#X obj 506 188 del 200;
#X text 194 40 #39 Sixteenths trns rep 3;
#X obj 563 188 del 300;
#X obj 620 188 del 400;
#X obj 676 188 del 500;
#X obj 197 99 metro 600;
#X obj 197 189 inccountdown 36 8;
#X obj 195 237 del 600;
#X msg 390 211 83 100;
#X msg 446 211 79 100;
#X msg 506 211 77 100;
#X msg 563 211 79 100;
#X msg 620 211 83 100;
#X msg 676 211 84 100;
#X obj 197 57 inlet;
#X msg 161 57 0;
#X msg 195 258 1;
#X obj 195 279 outlet;
#X obj 532 316 outlet;
#X connect 0 0 9 0;
#X connect 1 0 2 0;
#X connect 2 0 0 0;
#X connect 3 0 13 0;
#X connect 4 0 14 0;
#X connect 6 0 15 0;
#X connect 7 0 16 0;
#X connect 8 0 17 0;
#X connect 9 0 12 0;
#X connect 9 0 3 0;
#X connect 9 0 4 0;
#X connect 9 0 6 0;
#X connect 9 0 7 0;
#X connect 9 0 8 0;
#X connect 9 0 10 0;
#X connect 10 0 11 0;
#X connect 10 0 19 0;
#X connect 11 0 20 0;
#X connect 12 0 22 0;
#X connect 13 0 22 0;
#X connect 14 0 22 0;
#X connect 15 0 22 0;
#X connect 16 0 22 0;
#X connect 17 0 22 0;
#X connect 18 0 0 0;
#X connect 19 0 0 0;
#X connect 20 0 21 0;
#X restore 515 992 pd measure39;
#N canvas -8 -8 1366 725 measure40 0;
#X obj 193 94 tgl 15 0 empty empty empty 17 7 0 10 -262144 -1 -1 0
1;
#X obj 251 73 r reset;
#X msg 251 93 0;
#X obj 462 181 del 100;
#X obj 193 115 metro 200;
#X text 190 56 #40 BF;
#X obj 193 205 inccountdown 45 15;
#X obj 191 253 del 200;
#X msg 406 204 83 100;
#X msg 462 204 77 100;
#X obj 193 73 inlet;
#X msg 148 70 0;
#X msg 191 274 1;
#X obj 191 295 outlet;
#X obj 467 331 outlet;
#X connect 0 0 4 0;
#X connect 1 0 2 0;
#X connect 2 0 0 0;
#X connect 3 0 9 0;
#X connect 4 0 8 0;
#X connect 4 0 3 0;
#X connect 4 0 6 0;
#X connect 6 0 7 0;
#X connect 6 0 11 0;
#X connect 7 0 12 0;
#X connect 8 0 14 0;
#X connect 9 0 14 0;
#X connect 10 0 0 0;
#X connect 11 0 0 0;
#X connect 12 0 13 0;
#X restore 515 1012 pd measure40;
#N canvas -8 -8 1366 725 measure41 0;
#X obj 149 100 tgl 15 0 empty empty empty 17 7 0 10 -262144 -1 -1 0
1;
#X obj 197 79 r reset;
#X msg 197 99 0;
#X obj 437 212 del 100;
#X obj 149 121 metro 200;
#X text 146 62 #41 BG;
#X obj 149 211 inccountdown 45 15;
#X obj 132 257 del 200;
#X msg 381 235 83 100;
#X msg 437 235 79 100;
#X obj 149 79 inlet;
#X msg 112 74 0;
#X msg 132 278 1;
#X obj 132 299 outlet;
#X obj 415 347 outlet;
#X connect 0 0 4 0;
#X connect 1 0 2 0;
#X connect 2 0 0 0;
#X connect 3 0 9 0;
#X connect 4 0 8 0;
#X connect 4 0 3 0;
#X connect 4 0 6 0;
#X connect 6 0 7 0;
#X connect 6 0 11 0;
#X connect 7 0 12 0;
#X connect 8 0 14 0;
#X connect 9 0 14 0;
#X connect 10 0 0 0;
#X connect 11 0 0 0;
#X connect 12 0 13 0;
#X restore 515 1032 pd measure41;
#N canvas -8 -8 1366 725 measure42 0;
#X obj 165 91 tgl 15 0 empty empty empty 17 7 0 10 -262144 -1 -1 0
1;
#X obj 213 70 r reset;
#X msg 213 90 0;
#X text 147 54 #42 Whole Notes CBAC;
#X obj 165 112 metro 6400;
#X obj 419 195 del 1600;
#X obj 475 195 del 3200;
#X obj 530 195 del 4800;
#X obj 142 214 inccountdown 20 4;
#X obj 179 262 del 6400;
#X msg 363 218 84 1600;
#X msg 419 218 83 1600;
#X msg 475 218 81 1600;
#X msg 530 218 84 1599;
#X obj 165 70 inlet;
#X msg 179 283 1;
#X obj 179 304 outlet;
#X msg 112 70 0;
#X obj 434 340 outlet;
#X connect 0 0 4 0;
#X connect 1 0 2 0;
#X connect 2 0 0 0;
#X connect 4 0 10 0;
#X connect 4 0 5 0;
#X connect 4 0 6 0;
#X connect 4 0 7 0;
#X connect 4 0 8 0;
#X connect 5 0 11 0;
#X connect 6 0 12 0;
#X connect 7 0 13 0;
#X connect 8 0 9 0;
#X connect 8 0 17 0;
#X connect 9 0 15 0;
#X connect 10 0 18 0;
#X connect 11 0 18 0;
#X connect 12 0 18 0;
#X connect 13 0 18 0;
#X connect 14 0 0 0;
#X connect 15 0 16 0;
#X connect 17 0 0 0;
#X restore 515 1052 pd measure42;
#N canvas -8 -8 1366 725 measure43 0;
#X obj 134 102 tgl 15 0 empty empty empty 17 7 0 10 -262144 -1 -1 0
1;
#X obj 182 81 r reset;
#X msg 182 101 0;
#X obj 373 213 del 100;
#X obj 433 213 del 200;
#X obj 490 213 del 300;
#X obj 546 213 del 400;
#X obj 601 213 del 600;
#X obj 657 213 del 800;
#X obj 713 213 del 1000;
#X obj 769 213 del 1100;
#X text 131 64 #43 Transitiony;
#X obj 134 123 metro 1200;
#X obj 114 213 inccountdown 25 6;
#X obj 152 261 del 1200;
#X msg 317 236 89 99;
#X msg 373 236 88 99;
#X msg 433 236 89 99;
#X msg 490 236 88 99;
#X msg 546 236 88 99;
#X msg 601 236 88 99;
#X msg 657 236 88 99;
#X msg 713 236 89 99;
#X msg 769 236 88 99;
#X msg 91 79 0;
#X msg 152 282 1;
#X obj 152 303 outlet;
#X obj 497 355 outlet;
#X obj 134 81 inlet;
#X connect 0 0 12 0;
#X connect 1 0 2 0;
#X connect 2 0 0 0;
#X connect 3 0 16 0;
#X connect 4 0 17 0;
#X connect 5 0 18 0;
#X connect 6 0 19 0;
#X connect 7 0 20 0;
#X connect 8 0 21 0;
#X connect 9 0 22 0;
#X connect 10 0 23 0;
#X connect 12 0 15 0;
#X connect 12 0 3 0;
#X connect 12 0 4 0;
#X connect 12 0 5 0;
#X connect 12 0 6 0;
#X connect 12 0 7 0;
#X connect 12 0 8 0;
#X connect 12 0 9 0;
#X connect 12 0 10 0;
#X connect 12 0 13 0;
#X connect 13 0 14 0;
#X connect 13 0 24 0;
#X connect 14 0 25 0;
#X connect 15 0 27 0;
#X connect 16 0 27 0;
#X connect 17 0 27 0;
#X connect 18 0 27 0;
#X connect 19 0 27 0;
#X connect 20 0 27 0;
#X connect 21 0 27 0;
#X connect 22 0 27 0;
#X connect 23 0 27 0;
#X connect 24 0 0 0;
#X connect 25 0 26 0;
#X connect 28 0 0 0;
#X restore 515 1072 pd measure43;
#N canvas -8 -8 1366 725 measure44 0;
#X obj 202 86 tgl 15 0 empty empty empty 17 7 0 10 -262144 -1 -1 0
1;
#X obj 250 65 r reset;
#X msg 250 85 0;
#X text 199 48 #44 Slowing;
#X obj 484 200 del 200;
#X obj 544 200 del 600;
#X obj 601 200 del 800;
#X obj 202 107 metro 1200;
#X obj 182 197 inccountdown 27 5;
#X obj 220 245 del 1200;
#X msg 428 223 89 99;
#X msg 484 223 88 399;
#X msg 544 223 88 199;
#X msg 601 223 84 399;
#X msg 141 65 0;
#X msg 220 266 1;
#X obj 220 287 outlet;
#X obj 508 350 outlet;
#X obj 202 65 inlet;
#X connect 0 0 7 0;
#X connect 1 0 2 0;
#X connect 2 0 0 0;
#X connect 4 0 11 0;
#X connect 5 0 12 0;
#X connect 6 0 13 0;
#X connect 7 0 10 0;
#X connect 7 0 4 0;
#X connect 7 0 5 0;
#X connect 7 0 6 0;
#X connect 7 0 8 0;
#X connect 8 0 9 0;
#X connect 8 0 14 0;
#X connect 9 0 15 0;
#X connect 10 0 17 0;
#X connect 11 0 17 0;
#X connect 12 0 17 0;
#X connect 13 0 17 0;
#X connect 14 0 0 0;
#X connect 15 0 16 0;
#X connect 18 0 0 0;
#X restore 515 1092 pd measure44;
#N canvas -8 -8 1366 725 measure45 0;
#X obj 193 103 tgl 15 0 empty empty empty 17 7 0 10 -262144 -1 -1 0
1;
#X obj 241 82 r reset;
#X msg 241 102 0;
#X obj 193 124 metro 1200;
#X text 190 65 #45 Slowing DDG;
#X obj 173 214 inccountdown 27 5;
#X obj 442 216 del 400;
#X obj 502 216 del 800;
#X obj 211 262 del 1200;
#X msg 386 239 86 399;
#X msg 442 239 86 399;
#X msg 502 239 79 399;
#X obj 193 82 inlet;
#X msg 143 78 0;
#X msg 211 283 1;
#X obj 211 304 outlet;
#X obj 447 347 outlet;
#X connect 0 0 3 0;
#X connect 1 0 2 0;
#X connect 2 0 0 0;
#X connect 3 0 9 0;
#X connect 3 0 5 0;
#X connect 3 0 6 0;
#X connect 3 0 7 0;
#X connect 5 0 8 0;
#X connect 5 0 13 0;
#X connect 6 0 10 0;
#X connect 7 0 11 0;
#X connect 8 0 14 0;
#X connect 9 0 16 0;
#X connect 10 0 16 0;
#X connect 11 0 16 0;
#X connect 12 0 0 0;
#X connect 13 0 0 0;
#X connect 14 0 15 0;
#X restore 515 1112 pd measure45;
#N canvas -8 -8 1366 725 measure46 0;
#X obj 126 100 tgl 15 0 empty empty empty 17 7 0 10 -262144 -1 -1 0
1;
#X obj 174 79 r reset;
#X msg 174 99 0;
#X obj 465 208 del 100;
#X obj 525 208 del 200;
#X obj 582 208 del 300;
#X text 123 62 #46 Transitiony;
#X obj 126 121 metro 2000;
#X obj 638 208 del 600;
#X obj 693 208 del 1000;
#X obj 749 208 del 1400;
#X obj 805 208 del 1600;
#X obj 861 208 del 1700;
#X obj 915 208 del 1800;
#X obj 971 208 del 1900;
#X obj 106 211 inccountdown 22 4;
#X obj 144 260 del 2000;
#X msg 409 231 79 99;
#X msg 465 231 86 99;
#X msg 525 231 88 99;
#X msg 582 231 86 99;
#X msg 638 231 79 99;
#X msg 693 231 79 99;
#X msg 749 231 79 99;
#X msg 805 231 79 99;
#X msg 861 231 86 99;
#X msg 915 231 88 99;
#X msg 971 231 86 99;
#X msg 81 77 0;
#X msg 144 281 1;
#X obj 144 302 outlet;
#X obj 614 329 outlet;
#X obj 126 79 inlet;
#X connect 0 0 7 0;
#X connect 1 0 2 0;
#X connect 2 0 0 0;
#X connect 3 0 18 0;
#X connect 4 0 19 0;
#X connect 5 0 20 0;
#X connect 7 0 17 0;
#X connect 7 0 3 0;
#X connect 7 0 4 0;
#X connect 7 0 5 0;
#X connect 7 0 8 0;
#X connect 7 0 9 0;
#X connect 7 0 10 0;
#X connect 7 0 11 0;
#X connect 7 0 12 0;
#X connect 7 0 13 0;
#X connect 7 0 14 0;
#X connect 7 0 15 0;
#X connect 8 0 21 0;
#X connect 9 0 22 0;
#X connect 10 0 23 0;
#X connect 11 0 24 0;
#X connect 12 0 25 0;
#X connect 13 0 26 0;
#X connect 14 0 27 0;
#X connect 15 0 16 0;
#X connect 15 0 28 0;
#X connect 16 0 29 0;
#X connect 17 0 31 0;
#X connect 18 0 31 0;
#X connect 19 0 31 0;
#X connect 20 0 31 0;
#X connect 21 0 31 0;
#X connect 22 0 31 0;
#X connect 23 0 31 0;
#X connect 24 0 31 0;
#X connect 25 0 31 0;
#X connect 26 0 31 0;
#X connect 27 0 31 0;
#X connect 28 0 0 0;
#X connect 29 0 30 0;
#X connect 32 0 0 0;
#X restore 515 1132 pd measure46;
#N canvas -8 -8 1366 725 measure47 0;
#X obj 146 83 tgl 15 0 empty empty empty 17 7 0 10 -262144 -1 -1 0
1;
#X obj 194 62 r reset;
#X msg 194 82 0;
#X obj 146 104 metro 400;
#X text 143 45 #47;
#X obj 488 201 del 100;
#X obj 548 201 del 200;
#X obj 126 194 inccountdown 38 12;
#X obj 164 242 del 400;
#X msg 548 224 86 199;
#X msg 432 224 86 100;
#X msg 488 224 88 100;
#X obj 146 62 inlet;
#X msg 95 64 0;
#X msg 164 263 1;
#X obj 164 284 outlet;
#X obj 487 314 outlet;
#X connect 0 0 3 0;
#X connect 1 0 2 0;
#X connect 2 0 0 0;
#X connect 3 0 10 0;
#X connect 3 0 5 0;
#X connect 3 0 6 0;
#X connect 3 0 7 0;
#X connect 5 0 11 0;
#X connect 6 0 9 0;
#X connect 7 0 8 0;
#X connect 7 0 13 0;
#X connect 8 0 14 0;
#X connect 9 0 16 0;
#X connect 10 0 16 0;
#X connect 11 0 16 0;
#X connect 12 0 0 0;
#X connect 13 0 0 0;
#X connect 14 0 15 0;
#X restore 515 1152 pd measure47;
#N canvas -8 -8 1366 725 measure48 0;
#X obj 102 94 tgl 15 0 empty empty empty 17 7 0 10 -262144 -1 -1 0
1;
#X obj 150 73 r reset;
#X msg 150 93 0;
#X text 99 56 #48;
#X obj 342 210 del 2400;
#X obj 402 210 del 4000;
#X obj 459 210 del 5600;
#X obj 102 115 metro 6000;
#X obj 82 205 inccountdown 6 6;
#X obj 120 253 del 6000;
#X msg 286 233 79 2399;
#X msg 342 233 79 1599;
#X msg 402 233 77 1599;
#X msg 459 233 77 400;
#X msg 55 75 0;
#X msg 120 274 1;
#X obj 120 295 outlet;
#X obj 361 328 outlet;
#X obj 102 73 inlet;
#X connect 0 0 7 0;
#X connect 1 0 2 0;
#X connect 2 0 0 0;
#X connect 4 0 11 0;
#X connect 5 0 12 0;
#X connect 6 0 13 0;
#X connect 7 0 10 0;
#X connect 7 0 4 0;
#X connect 7 0 5 0;
#X connect 7 0 6 0;
#X connect 7 0 8 0;
#X connect 8 0 9 0;
#X connect 8 0 14 0;
#X connect 9 0 15 0;
#X connect 10 0 17 0;
#X connect 11 0 17 0;
#X connect 12 0 17 0;
#X connect 13 0 17 0;
#X connect 14 0 0 0;
#X connect 15 0 16 0;
#X connect 18 0 0 0;
#X restore 515 1172 pd measure48;
#N canvas -8 -8 1366 725 measure49 0;
#X obj 151 85 tgl 15 0 empty empty empty 17 7 0 10 -262144 -1 -1 0
1;
#X obj 199 64 r reset;
#X msg 199 84 0;
#X obj 436 208 del 100;
#X obj 492 208 del 200;
#X obj 547 208 del 300;
#X obj 603 208 del 400;
#X obj 658 208 del 500;
#X obj 151 106 metro 600;
#X text 149 47 #49 reprise 11;
#X obj 128 208 inccountdown 40 9;
#X obj 165 256 del 600;
#X msg 380 231 77 99;
#X msg 436 231 79 99;
#X msg 492 231 82 99;
#X msg 547 231 79 99;
#X msg 603 231 82 99;
#X msg 658 231 79 99;
#X msg 92 61 0;
#X msg 165 277 1;
#X obj 165 298 outlet;
#X obj 479 346 outlet;
#X obj 151 64 inlet;
#X connect 0 0 8 0;
#X connect 1 0 2 0;
#X connect 2 0 0 0;
#X connect 3 0 13 0;
#X connect 4 0 14 0;
#X connect 5 0 15 0;
#X connect 6 0 16 0;
#X connect 7 0 17 0;
#X connect 8 0 12 0;
#X connect 8 0 3 0;
#X connect 8 0 4 0;
#X connect 8 0 5 0;
#X connect 8 0 6 0;
#X connect 8 0 7 0;
#X connect 8 0 10 0;
#X connect 10 0 11 0;
#X connect 10 0 18 0;
#X connect 11 0 19 0;
#X connect 12 0 21 0;
#X connect 13 0 21 0;
#X connect 14 0 21 0;
#X connect 15 0 21 0;
#X connect 16 0 21 0;
#X connect 17 0 21 0;
#X connect 18 0 0 0;
#X connect 19 0 20 0;
#X connect 22 0 0 0;
#X restore 515 1192 pd measure49;
#N canvas -8 -8 1366 725 measure50 0;
#X obj 313 174 tgl 15 0 empty empty empty 17 7 0 10 -262144 -1 -1 0
1;
#X obj 361 153 r reset;
#X msg 361 173 0;
#X obj 576 301 del 100;
#X text 311 136 #50;
#X obj 313 195 metro 200;
#X obj 290 297 inccountdown 40 9;
#X obj 327 345 del 200;
#X msg 520 324 77 100;
#X msg 576 324 79 100;
#X obj 313 153 inlet;
#X msg 237 146 0;
#X msg 327 366 1;
#X obj 327 387 outlet;
#X obj 546 402 outlet;
#X connect 0 0 5 0;
#X connect 1 0 2 0;
#X connect 2 0 0 0;
#X connect 3 0 9 0;
#X connect 5 0 8 0;
#X connect 5 0 3 0;
#X connect 5 0 6 0;
#X connect 6 0 7 0;
#X connect 6 0 11 0;
#X connect 7 0 12 0;
#X connect 8 0 14 0;
#X connect 9 0 14 0;
#X connect 10 0 0 0;
#X connect 11 0 0 0;
#X connect 12 0 13 0;
#X restore 515 1212 pd measure50;
#N canvas -8 -8 1366 725 measure51 0;
#X obj 230 109 tgl 15 0 empty empty empty 17 7 0 10 -262144 -1 -1 0
1;
#X obj 278 88 r reset;
#X msg 278 108 0;
#X obj 431 224 del 100;
#X obj 230 130 metro 300;
#X obj 487 224 del 300;
#X text 228 71 #51;
#X obj 207 232 inccountdown 37 7;
#X obj 195 279 del 300;
#X msg 375 247 77 100;
#X msg 431 247 79 100;
#X msg 487 247 82 100;
#X obj 230 88 inlet;
#X msg 176 76 0;
#X msg 195 300 1;
#X obj 195 321 outlet;
#X obj 444 369 outlet;
#X connect 0 0 4 0;
#X connect 1 0 2 0;
#X connect 2 0 0 0;
#X connect 3 0 10 0;
#X connect 4 0 9 0;
#X connect 4 0 3 0;
#X connect 4 0 5 0;
#X connect 4 0 7 0;
#X connect 5 0 11 0;
#X connect 7 0 8 0;
#X connect 7 0 13 0;
#X connect 8 0 14 0;
#X connect 9 0 16 0;
#X connect 10 0 16 0;
#X connect 11 0 16 0;
#X connect 12 0 0 0;
#X connect 13 0 0 0;
#X connect 14 0 15 0;
#X restore 515 1232 pd measure51;
#N canvas -8 -8 1366 725 measure52 0;
#X obj 173 86 tgl 15 0 empty empty empty 17 7 0 10 -262144 -1 -1 0
1;
#X obj 221 65 r reset;
#X msg 221 85 0;
#X obj 419 140 del 100;
#X text 171 48 #52;
#X obj 173 107 metro 200;
#X obj 150 149 inccountdown 42 8;
#X obj 187 197 del 200;
#X msg 363 163 79 100;
#X msg 419 163 82 99;
#X obj 173 65 inlet;
#X msg 124 59 0;
#X msg 187 218 1;
#X obj 187 239 outlet;
#X obj 368 327 outlet;
#X connect 0 0 5 0;
#X connect 1 0 2 0;
#X connect 2 0 0 0;
#X connect 3 0 9 0;
#X connect 5 0 8 0;
#X connect 5 0 3 0;
#X connect 5 0 6 0;
#X connect 6 0 7 0;
#X connect 6 0 11 0;
#X connect 7 0 12 0;
#X connect 8 0 14 0;
#X connect 9 0 14 0;
#X connect 10 0 0 0;
#X connect 11 0 0 0;
#X connect 12 0 13 0;
#X restore 515 1252 pd measure52;
#N canvas -8 -8 1366 725 measure53 0;
#X obj 133 86 tgl 15 0 empty empty empty 17 7 0 10 -262144 -1 -1 0
1;
#X obj 181 65 r reset;
#X msg 181 85 0;
#X obj 392 197 del 100;
#X obj 133 107 metro 200;
#X text 131 48 #53;
#X obj 110 209 inccountdown 42 12;
#X msg 336 220 82 100;
#X msg 392 220 79 100;
#X obj 133 65 inlet;
#X msg 78 63 0;
#X msg 110 254 1;
#X obj 110 275 outlet;
#X obj 313 316 outlet;
#X connect 0 0 4 0;
#X connect 1 0 2 0;
#X connect 2 0 0 0;
#X connect 3 0 8 0;
#X connect 4 0 7 0;
#X connect 4 0 3 0;
#X connect 4 0 6 0;
#X connect 6 0 10 0;
#X connect 6 0 11 0;
#X connect 7 0 13 0;
#X connect 8 0 13 0;
#X connect 9 0 0 0;
#X connect 10 0 0 0;
#X connect 11 0 12 0;
#X restore 515 1272 pd measure53;
#X msg 365 213 0;
#N canvas -8 -8 1366 725 midihandler 0;
#X obj 37 37 inlet;
#X msg 37 58 \$1 100;
#X obj 37 332 outlet;
#X obj 111 74 unpack f f;
#X msg 132 211 \$1 0;
#X obj 132 191 pipe;
#X connect 0 0 1 0;
#X connect 0 0 3 0;
#X connect 1 0 2 0;
#X connect 3 0 5 0;
#X connect 3 1 5 1;
#X connect 4 0 2 0;
#X connect 5 0 4 0;
#X restore 253 157 pd midihandler;
#X obj 267 181 loadbang;
#X obj 74 133 inlet;
#N canvas -8 -8 1366 725 measure0 0;
#X obj 256 93 tgl 15 0 empty empty empty 17 7 0 10 -262144 -1 -1 0
1;
#X msg 302 89 0;
#X obj 256 69 inlet;
#X obj 302 69 r reset;
#X msg 185 37 0;
#X msg 63 271 1;
#X obj 63 292 outlet;
#X obj 256 152 metro 200;
#X obj 63 202 inccountdown 256 16;
#X connect 0 0 7 0;
#X connect 1 0 0 0;
#X connect 2 0 0 0;
#X connect 3 0 1 0;
#X connect 4 0 0 0;
#X connect 5 0 6 0;
#X connect 7 0 8 0;
#X connect 8 0 4 0;
#X connect 8 0 5 0;
#X restore 515 212 pd measure0;
#X obj 376 152 r reset;
#X msg 365 193 54;
#X obj 239 369 outlet;
#X obj 515 180 bng 15 250 50 0 empty empty empty 17 7 0 10 -262144
-1 -1;
#X connect 1 0 2 0;
#X connect 4 0 3 0;
#X connect 5 0 130 0;
#X connect 6 0 1 0;
#X connect 6 0 4 0;
#X connect 8 0 9 0;
#X connect 8 0 14 0;
#X connect 8 1 12 0;
#X connect 9 0 11 0;
#X connect 9 0 16 0;
#X connect 9 1 12 0;
#X connect 10 0 123 0;
#X connect 11 0 13 0;
#X connect 11 0 17 0;
#X connect 11 1 12 0;
#X connect 13 0 18 0;
#X connect 13 0 23 0;
#X connect 13 1 12 0;
#X connect 14 0 22 0;
#X connect 15 0 22 0;
#X connect 16 0 22 0;
#X connect 17 0 22 0;
#X connect 18 0 22 0;
#X connect 19 0 22 0;
#X connect 20 0 22 0;
#X connect 21 0 22 0;
#X connect 23 0 19 0;
#X connect 23 0 24 0;
#X connect 23 1 12 0;
#X connect 24 0 20 0;
#X connect 24 0 25 0;
#X connect 24 1 12 0;
#X connect 25 0 21 0;
#X connect 25 0 26 0;
#X connect 25 1 12 0;
#X connect 26 0 27 0;
#X connect 26 0 35 0;
#X connect 26 1 12 0;
#X connect 27 0 22 0;
#X connect 28 0 22 0;
#X connect 29 0 22 0;
#X connect 30 0 22 0;
#X connect 31 0 22 0;
#X connect 32 0 22 0;
#X connect 33 0 22 0;
#X connect 34 0 22 0;
#X connect 35 0 28 0;
#X connect 35 0 36 0;
#X connect 35 1 12 0;
#X connect 36 0 29 0;
#X connect 36 0 37 0;
#X connect 36 1 12 0;
#X connect 37 0 30 0;
#X connect 37 0 41 0;
#X connect 37 1 12 0;
#X connect 39 0 38 0;
#X connect 41 0 31 0;
#X connect 41 0 42 0;
#X connect 41 1 12 0;
#X connect 42 0 32 0;
#X connect 42 0 43 0;
#X connect 42 1 12 0;
#X connect 43 0 33 0;
#X connect 43 0 44 0;
#X connect 43 1 12 0;
#X connect 44 0 34 0;
#X connect 44 0 61 0;
#X connect 44 1 12 0;
#X connect 45 0 22 0;
#X connect 46 0 22 0;
#X connect 47 0 22 0;
#X connect 48 0 22 0;
#X connect 49 0 22 0;
#X connect 50 0 22 0;
#X connect 51 0 22 0;
#X connect 52 0 22 0;
#X connect 53 0 22 0;
#X connect 54 0 22 0;
#X connect 55 0 22 0;
#X connect 56 0 22 0;
#X connect 57 0 22 0;
#X connect 58 0 22 0;
#X connect 59 0 22 0;
#X connect 60 0 22 0;
#X connect 61 0 45 0;
#X connect 61 0 62 0;
#X connect 61 1 12 0;
#X connect 62 0 46 0;
#X connect 62 0 63 0;
#X connect 62 1 12 0;
#X connect 63 0 47 0;
#X connect 63 0 64 0;
#X connect 63 1 12 0;
#X connect 64 0 65 0;
#X connect 64 0 48 0;
#X connect 64 1 12 0;
#X connect 65 0 49 0;
#X connect 65 0 66 0;
#X connect 65 1 12 0;
#X connect 66 0 67 0;
#X connect 66 0 50 0;
#X connect 66 1 12 0;
#X connect 67 0 68 0;
#X connect 67 0 51 0;
#X connect 67 1 12 0;
#X connect 68 0 52 0;
#X connect 68 0 69 0;
#X connect 68 1 12 0;
#X connect 69 0 53 0;
#X connect 69 0 70 0;
#X connect 69 1 12 0;
#X connect 70 0 54 0;
#X connect 70 0 71 0;
#X connect 70 1 12 0;
#X connect 71 0 55 0;
#X connect 71 0 72 0;
#X connect 71 1 12 0;
#X connect 72 0 56 0;
#X connect 72 0 73 0;
#X connect 72 1 12 0;
#X connect 73 0 57 0;
#X connect 73 0 74 0;
#X connect 73 1 12 0;
#X connect 74 0 58 0;
#X connect 74 0 75 0;
#X connect 74 1 12 0;
#X connect 75 0 59 0;
#X connect 75 0 76 0;
#X connect 75 1 12 0;
#X connect 76 0 77 0;
#X connect 76 0 60 0;
#X connect 76 1 12 0;
#X connect 77 0 78 0;
#X connect 77 0 101 0;
#X connect 77 1 12 0;
#X connect 78 0 22 0;
#X connect 79 0 22 0;
#X connect 80 0 22 0;
#X connect 81 0 22 0;
#X connect 82 0 22 0;
#X connect 83 0 22 0;
#X connect 84 0 22 0;
#X connect 85 0 22 0;
#X connect 86 0 22 0;
#X connect 87 0 22 0;
#X connect 88 0 22 0;
#X connect 89 0 22 0;
#X connect 90 0 22 0;
#X connect 91 0 22 0;
#X connect 92 0 22 0;
#X connect 93 0 22 0;
#X connect 94 0 22 0;
#X connect 95 0 22 0;
#X connect 96 0 22 0;
#X connect 97 0 22 0;
#X connect 98 0 22 0;
#X connect 99 0 22 0;
#X connect 101 0 102 0;
#X connect 101 0 79 0;
#X connect 101 1 12 0;
#X connect 102 0 80 0;
#X connect 102 0 103 0;
#X connect 102 1 12 0;
#X connect 103 0 81 0;
#X connect 103 0 104 0;
#X connect 103 1 12 0;
#X connect 104 0 82 0;
#X connect 104 0 105 0;
#X connect 104 1 12 0;
#X connect 105 0 83 0;
#X connect 105 0 106 0;
#X connect 105 1 12 0;
#X connect 106 0 84 0;
#X connect 106 0 107 0;
#X connect 106 1 12 0;
#X connect 107 0 85 0;
#X connect 107 0 108 0;
#X connect 107 1 12 0;
#X connect 108 0 86 0;
#X connect 108 0 109 0;
#X connect 108 1 12 0;
#X connect 109 0 87 0;
#X connect 109 0 110 0;
#X connect 109 1 12 0;
#X connect 110 0 88 0;
#X connect 110 0 111 0;
#X connect 110 1 12 0;
#X connect 111 0 89 0;
#X connect 111 0 112 0;
#X connect 111 1 12 0;
#X connect 112 0 90 0;
#X connect 112 0 113 0;
#X connect 112 1 12 0;
#X connect 113 0 91 0;
#X connect 113 0 114 0;
#X connect 113 1 12 0;
#X connect 114 0 92 0;
#X connect 114 0 115 0;
#X connect 114 1 12 0;
#X connect 115 0 93 0;
#X connect 115 0 116 0;
#X connect 115 1 12 0;
#X connect 116 0 94 0;
#X connect 116 0 117 0;
#X connect 116 1 12 0;
#X connect 117 0 95 0;
#X connect 117 0 118 0;
#X connect 117 1 12 0;
#X connect 118 0 96 0;
#X connect 118 0 119 0;
#X connect 118 1 12 0;
#X connect 119 0 97 0;
#X connect 119 0 120 0;
#X connect 119 1 12 0;
#X connect 120 0 98 0;
#X connect 120 0 121 0;
#X connect 120 1 12 0;
#X connect 121 0 99 0;
#X connect 121 1 12 0;
#X connect 122 0 22 0;
#X connect 123 0 40 0;
#X connect 123 0 129 0;
#X connect 124 0 7 0;
#X connect 125 0 5 0;
#X connect 126 0 15 0;
#X connect 126 0 8 0;
#X connect 127 0 128 0;
#X connect 128 0 22 0;
#X connect 130 0 122 0;
#X connect 130 0 126 0;
#X coords 0 -1 1 1 152 142 1 100 200;
