#N canvas -8 -8 1366 725 10;
#X obj 293 176 midikeyboard;
#X obj 294 254 pack i i;
#X obj 310 388 ezdac~;
#X obj 122 350 notevis_poly;
#X obj 304 348 inc_fmsynth~ 50 0 0.25 30 30 1 200 100 100 0.25 200
;
#X connect 0 0 1 0;
#X connect 0 1 1 1;
#X connect 1 0 3 0;
#X connect 1 0 4 0;
#X connect 4 0 2 0;
